<svg width="51" height="46" viewBox="0 0 51 46" fill="none" xmlns="http://www.w3.org/2000/svg">
<path d="M13.825 45.8394H3.29481C2.72003 45.8387 2.15543 45.6887 1.65712 45.4044C1.1588 45.12 0.74411 44.7112 0.454248 44.2185C0.164385 43.7259 0.00944004 43.1665 0.00480676 42.5959C0.000173476 42.0254 0.146013 41.4636 0.427836 40.9663L22.3834 2.14756C22.5316 1.88063 22.716 1.63521 22.9316 1.41823C23.1385 1.21383 23.3724 1.03841 23.6271 0.896808C24.1226 0.62344 24.6802 0.47998 25.2471 0.47998C25.814 0.47998 26.3716 0.62344 26.8671 0.896808C27.1213 1.03845 27.3547 1.21388 27.561 1.41823C27.7844 1.63354 27.9761 1.87907 28.1304 2.14756L50.0893 40.9615C50.3713 41.4591 50.5172 42.0213 50.5123 42.5923C50.5075 43.1632 50.3521 43.7229 50.0616 44.2158C49.7712 44.7086 49.3558 45.1173 48.8568 45.4013C48.3578 45.6853 47.7926 45.8347 47.2174 45.8345H36.6954C35.6014 43.7731 33.9542 42.0524 31.9359 40.8629C29.9177 39.6735 27.6071 39.0616 25.2602 39.0951C22.9136 39.0615 20.6034 39.6729 18.5852 40.8618C16.5671 42.0507 14.9196 43.7706 13.825 45.8313V45.8394Z" fill="url(#paint0_linear_4_482)"/>
<path opacity="0.27" d="M22.4807 30.3931L25.4458 26.688H26.9857L24.248 30.3915L22.4807 30.3931Z" fill="url(#paint1_linear_4_482)"/>
<path opacity="0.22" d="M24.8282 21.1857H29.4609L28.1518 22.81L23.6418 22.6996L24.8282 21.1857Z" fill="url(#paint2_linear_4_482)"/>
<path d="M24.8383 21.1967L19.7164 27.6437C19.4677 27.9056 19.3292 28.2519 19.3292 28.6118C19.3292 28.9717 19.4677 29.318 19.7164 29.5799C20.0107 29.9077 20.381 30.1593 20.7953 30.313C21.2096 30.4667 21.6554 30.5178 22.0941 30.4619L25.7989 25.9267L29.4775 21.1967H24.8383Z" fill="white"/>
<path d="M25.4515 26.7148H29.6669C29.6669 26.7148 30.9023 27.0137 31.2231 27.7496C31.4073 28.2399 31.4073 28.7797 31.2231 29.2699C31.2231 29.2699 30.8025 30.3972 29.8158 30.3972H22.506L25.4515 26.7148Z" fill="white"/>
<path d="M21.3853 17.4868H28.6951C29.1452 17.4868 29.5768 17.6643 29.895 17.9802C30.2133 18.2961 30.392 18.7245 30.392 19.1713C30.392 19.3925 30.3482 19.6115 30.2629 19.8159C30.1776 20.0203 30.0526 20.2059 29.895 20.3624C29.7375 20.5188 29.5504 20.6429 29.3445 20.7275C29.1386 20.8122 28.9179 20.8557 28.6951 20.8557H21.3853C21.1625 20.8557 20.9418 20.8122 20.7359 20.7275C20.53 20.6429 20.3429 20.5188 20.1854 20.3624C20.0278 20.2059 19.9028 20.0203 19.8175 19.8159C19.7322 19.6115 19.6884 19.3925 19.6884 19.1713C19.6884 18.7245 19.8671 18.2961 20.1854 17.9802C20.5036 17.6643 20.9352 17.4868 21.3853 17.4868Z" fill="white"/>
<defs>
<linearGradient id="paint0_linear_4_482" x1="-74.8983" y1="99.6356" x2="-74.8983" y2="99.4996" gradientUnits="userSpaceOnUse">
<stop stop-color="#0E2041"/>
<stop offset="1" stop-color="#29539B"/>
</linearGradient>
<linearGradient id="paint1_linear_4_482" x1="-72.8816" y1="97.6561" x2="-72.9028" y2="97.6861" gradientUnits="userSpaceOnUse">
<stop stop-color="white"/>
<stop offset="1" stop-color="#A7ACAD"/>
</linearGradient>
<linearGradient id="paint2_linear_4_482" x1="-73.4255" y1="95.1733" x2="-73.4255" y2="95.0368" gradientUnits="userSpaceOnUse">
<stop stop-color="#A7ACAD"/>
<stop offset="1" stop-color="white"/>
</linearGradient>
</defs>
</svg>
