<svg width="164" height="32" viewBox="0 0 164 32" fill="none" xmlns="http://www.w3.org/2000/svg">
<path d="M14.3141 20.6049H7.06488L5.96357 23.9234H-0.00927734L7.44286 3.61902H13.9885L21.4112 23.9234H15.4072L14.3141 20.6049ZM10.6895 9.72172L8.51635 16.2825H12.8938L10.6895 9.72172Z" fill="#29539B"/>
<path d="M23.2703 2.61914H28.9519V23.9306H23.2703V2.61914Z" fill="#29539B"/>
<path d="M38.1992 7.5787C39.1448 7.52251 40.0881 7.72 40.9303 8.15043C41.7725 8.58085 42.4824 9.22834 42.9857 10.025V7.77036H48.6672V23.7426C48.6672 28.0585 46.2912 31.8644 40.4329 31.8644C35.36 31.8644 32.2279 29.332 31.8221 25.3329H37.4219C37.6542 26.3676 38.6394 26.9718 40.0892 26.9718C41.6831 26.9718 42.989 26.2539 42.989 23.7491V21.6764C42.4857 22.4727 41.776 23.1199 40.9342 23.5503C40.0923 23.9807 39.1494 24.1784 38.2041 24.1227C34.3487 24.1227 31.2756 20.9861 31.2756 15.8385C31.2756 10.691 34.3422 7.5787 38.1992 7.5787ZM40.0254 12.4989C39.6017 12.4996 39.1831 12.5899 38.7973 12.7636C38.4115 12.9373 38.0673 13.1904 37.7876 13.5063C37.5079 13.8222 37.2993 14.1935 37.1753 14.5956C37.0513 14.9977 37.0148 15.4214 37.0684 15.8385C37.1433 16.4029 37.3805 16.9338 37.7515 17.3678C38.1225 17.8018 38.6116 18.1205 39.1603 18.2857C39.7091 18.4509 40.2941 18.4556 40.8455 18.2992C41.3968 18.1429 41.8911 17.8321 42.2691 17.4041C42.6472 16.9761 42.8929 16.449 42.977 15.886C43.061 15.323 42.9798 14.7478 42.7431 14.2294C42.5063 13.7109 42.1241 13.2712 41.6421 12.9629C41.1601 12.6545 40.5988 12.4906 40.0254 12.4907V12.4989Z" fill="#29539B"/>
<path d="M59.4776 24.1155C57.8388 24.0734 56.2489 23.5526 54.9067 22.6183C53.5645 21.684 52.5295 20.3777 51.9312 18.8627C51.3329 17.3477 51.1979 15.6912 51.5429 14.1004C51.8879 12.5096 52.6977 11.0551 53.8711 9.91866C55.0444 8.78225 56.5292 8.0144 58.1398 7.71115C59.7504 7.40789 61.4154 7.58268 62.9265 8.21365C64.4376 8.84462 65.7277 9.90377 66.6356 11.2587C67.5436 12.6136 68.0289 14.2041 68.031 15.8313C68.0836 16.9508 67.8966 18.0686 67.4825 19.1112C67.0684 20.1538 66.4366 21.0974 65.6285 21.8801C64.8204 22.6627 63.8544 23.2666 62.7942 23.6519C61.7341 24.0372 60.6037 24.1952 59.4776 24.1155ZM59.4776 19.223C60.9275 19.223 62.2595 18.159 62.2595 15.8281C62.2595 13.5248 60.9504 12.4608 59.5153 12.4608C58.0801 12.4608 56.789 13.5248 56.789 15.8281C56.7808 18.159 57.9983 19.223 59.4776 19.223Z" fill="#29539B"/>
<path d="M85.0445 7.91993L76.5516 19.344H85.0445V23.9328H70.1729V19.6348L78.5774 8.18307H70.1729V3.63489H85.0445V7.91993Z" fill="#29539B"/>
<path d="M95.4493 24.1157C93.259 24.0853 91.1687 23.2002 89.6307 21.6519C88.0926 20.1036 87.2303 18.0165 87.2303 15.8421C87.2303 13.6677 88.0926 11.5806 89.6307 10.0323C91.1687 8.48402 93.259 7.59892 95.4493 7.56845C96.5412 7.49382 97.6364 7.65136 98.662 8.03051C99.6876 8.40966 100.62 9.0017 101.396 9.76709C102.173 10.5325 102.776 11.4536 103.166 12.4688C103.555 13.4841 103.722 14.5702 103.654 15.6545C103.654 16.0966 103.625 16.5383 103.568 16.9767H92.8115C92.9276 18.8496 93.9422 19.5952 95.2137 19.5952C95.6411 19.6109 96.0632 19.4984 96.4251 19.2724C96.7871 19.0464 97.0721 18.7173 97.2428 18.3282H103.298C102.865 20.0448 101.847 21.5597 100.416 22.6149C98.985 23.6701 97.2299 24.2005 95.4493 24.1157ZM92.8409 14.2397H97.8516C97.8532 13.9308 97.7896 13.625 97.6649 13.342C97.5403 13.059 97.3572 12.8051 97.1277 12.5965C96.8982 12.3879 96.6272 12.2294 96.3323 12.1311C96.0373 12.0328 95.7248 11.9969 95.415 12.0257C94.7802 11.9929 94.1574 12.2059 93.6776 12.6198C93.1978 13.0336 92.8985 13.616 92.8425 14.2445L92.8409 14.2397Z" fill="#29539B"/>
<path d="M117.051 15.2535C117.083 14.8823 117.037 14.5086 116.916 14.156C116.794 13.8035 116.601 13.4797 116.347 13.2053C116.093 12.9309 115.785 12.7119 115.441 12.562C115.097 12.4122 114.726 12.3348 114.351 12.3348C113.976 12.3348 113.604 12.4122 113.261 12.562C112.917 12.7119 112.609 12.9309 112.355 13.2053C112.101 13.4797 111.907 13.8035 111.786 14.156C111.665 14.5086 111.619 14.8823 111.651 15.2535V23.9243H105.976V7.77011H111.657V10.0799C112.217 9.29925 112.963 8.66771 113.827 8.24129C114.692 7.81486 115.649 7.60671 116.614 7.63528C120.388 7.63528 122.731 10.283 122.731 14.5128V23.934H117.049L117.051 15.2535Z" fill="#29539B"/>
<path d="M125.398 3.39586C125.492 2.58747 125.883 1.84163 126.495 1.30025C127.107 0.758862 127.898 0.459717 128.718 0.459717C129.538 0.459717 130.329 0.758862 130.941 1.30025C131.553 1.84163 131.943 2.58747 132.037 3.39586C131.929 4.19319 131.532 4.92434 130.922 5.45374C130.311 5.98314 129.528 6.27489 128.718 6.27489C127.907 6.27489 127.124 5.98314 126.514 5.45374C125.903 4.92434 125.507 4.19319 125.398 3.39586ZM125.862 7.77024H131.545V23.9244H125.862V7.77024Z" fill="#29539B"/>
<path d="M135.688 12.4606H133.688V7.76947H135.688V3.85315H141.401V7.76947H144.356V12.4606H141.401V17.8713C141.401 18.7338 141.775 19.1074 142.733 19.1074H144.384V23.922H141.921C138.321 23.922 135.688 22.426 135.688 17.7917V12.4606Z" fill="#29539B"/>
<path d="M146.995 2.61914H152.678V10.0717C153.245 9.28417 153.999 8.64859 154.874 8.22192C155.75 7.79526 156.718 7.59084 157.692 7.62702C161.403 7.62702 163.747 10.2747 163.747 14.5045V23.9306H158.065V15.2599C158.103 14.8856 158.062 14.5075 157.944 14.15C157.826 13.7925 157.634 13.4635 157.38 13.1844C157.126 12.9052 156.815 12.6821 156.469 12.5294C156.123 12.3766 155.748 12.2977 155.369 12.2977C154.99 12.2977 154.615 12.3766 154.269 12.5294C153.922 12.6821 153.612 12.9052 153.358 13.1844C153.104 13.4635 152.912 13.7925 152.794 14.15C152.676 14.5075 152.635 14.8856 152.673 15.2599V23.9306H146.99L146.995 2.61914Z" fill="#29539B"/>
</svg>
