<svg width="24" height="23" viewBox="0 0 24 23" fill="none" xmlns="http://www.w3.org/2000/svg">
<path fill-rule="evenodd" clip-rule="evenodd" d="M23.5457 22.6592H18.8339V14.8569C18.8339 12.7177 17.9979 11.5223 16.2563 11.5223C14.3617 11.5223 13.3719 12.7663 13.3719 14.8569V22.6592H8.83105V7.79591H13.3719V9.798C13.3719 9.798 14.7372 7.34182 17.9814 7.34182C21.2242 7.34182 23.5457 9.26701 23.5457 13.2487V22.6592ZM3.41383 5.84968C1.86711 5.84968 0.61377 4.62159 0.61377 3.10697C0.61377 1.59235 1.86711 0.364258 3.41383 0.364258C4.96054 0.364258 6.21314 1.59235 6.21314 3.10697C6.21314 4.62159 4.96054 5.84968 3.41383 5.84968ZM1.06912 22.6592H5.80407V7.79591H1.06912V22.6592Z" fill="black"/>
</svg>
