<svg width="31" height="25" viewBox="0 0 31 25" fill="none" xmlns="http://www.w3.org/2000/svg">
<path d="M9.74712 24.3349C21.2202 24.3349 27.4944 15.2385 27.4944 7.35032C27.4944 7.09199 27.4889 6.83484 27.4767 6.57875C28.6976 5.73335 29.7512 4.68661 30.5881 3.4876C29.4705 3.96313 28.2678 4.28318 27.0061 4.42748C28.2939 3.68848 29.2826 2.51935 29.7491 1.12576C28.5246 1.8209 27.1851 2.31093 25.7882 2.57474C24.65 1.41442 23.0295 0.688721 21.2352 0.688721C17.7906 0.688721 14.9973 3.36204 14.9973 6.65731C14.9973 7.1258 15.0521 7.58135 15.1591 8.01845C9.97501 7.7688 5.37809 5.39342 2.3016 1.78153C1.7475 2.69252 1.45604 3.72788 1.45701 4.78187C1.45701 6.85293 2.55817 8.68119 4.23276 9.75082C3.24222 9.72187 2.27342 9.46582 1.40783 9.0042C1.4069 9.02926 1.4069 9.05368 1.4069 9.08045C1.4069 11.9714 3.55693 14.3851 6.41103 14.9321C5.87499 15.0718 5.32186 15.1424 4.76628 15.1421C4.36506 15.1421 3.97403 15.1043 3.594 15.0345C4.38811 17.4063 6.69077 19.1323 9.42085 19.1806C7.28596 20.7819 4.59666 21.7358 1.67378 21.7358C1.17656 21.7362 0.679752 21.7086 0.185928 21.6531C2.94647 23.3464 6.22435 24.3345 9.74742 24.3345" fill="black"/>
</svg>
