<svg width="29" height="29" viewBox="0 0 29 29" fill="none" xmlns="http://www.w3.org/2000/svg">
<path d="M14.3132 0.662109C10.5517 0.662109 10.0797 0.678556 8.60235 0.745786C7.1279 0.813304 6.12146 1.04673 5.24083 1.38923C4.3299 1.74298 3.55719 2.21618 2.78735 2.9863C2.01695 3.75612 1.54374 4.52883 1.18883 5.43946C0.845463 6.32037 0.611744 7.32709 0.545379 8.80095C0.479303 10.2783 0.46199 10.7506 0.46199 14.512C0.46199 18.2734 0.478726 18.744 0.545668 20.2214C0.613475 21.6958 0.846906 22.7022 1.18912 23.5828C1.54316 24.4938 2.01637 25.2665 2.78649 26.0363C3.55603 26.8067 4.32875 27.2811 5.2391 27.6348C6.12031 27.9773 7.12703 28.2107 8.6012 28.2782C10.0785 28.3455 10.5503 28.3619 14.3115 28.3619C18.0732 28.3619 18.5438 28.3455 20.0211 28.2782C21.4956 28.2107 22.5032 27.9773 23.3844 27.6348C24.295 27.2811 25.0666 26.8067 25.8361 26.0363C26.6065 25.2665 27.0798 24.4938 27.4347 23.5831C27.7751 22.7022 28.0089 21.6955 28.0781 20.2216C28.1445 18.7443 28.1618 18.2734 28.1618 14.512C28.1618 10.7506 28.1445 10.2786 28.0781 8.80124C28.0089 7.3268 27.7751 6.32037 27.4347 5.43975C27.0798 4.52883 26.6065 3.75612 25.8361 2.9863C25.0657 2.2159 24.2953 1.74269 23.3835 1.38923C22.5006 1.04673 21.4936 0.813304 20.0191 0.745786C18.5418 0.678556 18.0715 0.662109 14.3089 0.662109H14.3132ZM13.0707 3.15798C13.4395 3.1574 13.8509 3.15798 14.3132 3.15798C18.0111 3.15798 18.4494 3.17125 19.9098 3.23761C21.2601 3.29936 21.993 3.525 22.4812 3.71457C23.1276 3.9656 23.5884 4.26568 24.0728 4.75043C24.5576 5.23517 24.8577 5.69684 25.1093 6.34317C25.2989 6.8308 25.5248 7.56369 25.5863 8.91406C25.6526 10.3741 25.667 10.8126 25.667 14.5088C25.667 18.205 25.6526 18.6436 25.5863 20.1036C25.5245 21.454 25.2989 22.1869 25.1093 22.6745C24.8583 23.3208 24.5576 23.7811 24.0728 24.2655C23.5881 24.7503 23.1279 25.0504 22.4812 25.3014C21.9936 25.4918 21.2601 25.7169 19.9098 25.7786C18.4497 25.845 18.0111 25.8594 14.3132 25.8594C10.6149 25.8594 10.1766 25.845 8.71662 25.7786C7.36624 25.7163 6.63334 25.4907 6.14484 25.3011C5.4985 25.0501 5.03683 24.75 4.55208 24.2652C4.06733 23.7805 3.76725 23.32 3.51564 22.6734C3.32606 22.1857 3.10013 21.4528 3.03868 20.1025C2.97231 18.6425 2.95904 18.2039 2.95904 14.5054C2.95904 10.8069 2.97231 10.3706 3.03868 8.91059C3.10042 7.56023 3.32606 6.82734 3.51564 6.33913C3.76667 5.6928 4.06733 5.23114 4.55208 4.74639C5.03683 4.26164 5.4985 3.96156 6.14484 3.70995C6.63305 3.51952 7.36624 3.29446 8.71662 3.23242C9.99428 3.17471 10.4894 3.1574 13.0707 3.15452V3.15798ZM21.7062 5.45764C20.7887 5.45764 20.0442 6.20121 20.0442 7.11905C20.0442 8.03661 20.7887 8.78104 21.7062 8.78104C22.6238 8.78104 23.3682 8.03661 23.3682 7.11905C23.3682 6.20149 22.6238 5.45706 21.7062 5.45706V5.45764ZM14.3132 7.39951C10.3853 7.39951 7.20061 10.5841 7.20061 14.512C7.20061 18.4399 10.3853 21.6231 14.3132 21.6231C18.2411 21.6231 21.4246 18.4399 21.4246 14.512C21.4246 10.5841 18.2408 7.39951 14.3129 7.39951H14.3132ZM14.3132 9.89538C16.8627 9.89538 18.9299 11.9622 18.9299 14.512C18.9299 17.0616 16.8627 19.1287 14.3132 19.1287C11.7633 19.1287 9.69651 17.0616 9.69651 14.512C9.69651 11.9622 11.7633 9.89538 14.3132 9.89538Z" fill="black"/>
</svg>
