<svg width="447" height="90" viewBox="0 0 447 90" fill="none" xmlns="http://www.w3.org/2000/svg">
<g opacity="0.44">
<path d="M98.2719 72.008L101.09 73.8867C100.175 75.2339 97.9877 77.5451 94.2056 77.5451C89.509 77.5451 86.0112 73.9114 86.0112 69.2889C86.0112 64.3698 89.5461 61.0327 93.8101 61.0327C98.0989 61.0327 100.2 64.444 100.88 66.2855L101.251 67.2249L90.2011 71.7979C91.0416 73.4541 92.3517 74.2945 94.2056 74.2945C96.0596 74.2945 97.345 73.3799 98.2719 72.008ZM89.6079 69.0294L96.9865 65.9642C96.5787 64.9383 95.3674 64.2091 93.9214 64.2091C92.0798 64.2091 89.5214 65.8406 89.6079 69.0294Z" fill="white"/>
<path d="M80.6836 52.6157H84.2432V76.7911H80.6836V52.6157Z" fill="white"/>
<path d="M75.0723 61.6746H78.5083V76.3578C78.5083 82.451 74.9116 84.96 70.6599 84.96C66.6554 84.96 64.2453 82.2656 63.343 80.078L66.4947 78.7679C67.0633 80.1151 68.4352 81.7095 70.6599 81.7095C73.3914 81.7095 75.0723 80.0162 75.0723 76.8522V75.6656H74.9487C74.133 76.6544 72.5757 77.5443 70.5981 77.5443C66.47 77.5443 62.688 73.9476 62.688 69.3128C62.688 64.6532 66.47 61.0195 70.5981 61.0195C72.5633 61.0195 74.133 61.8971 74.9487 62.8611H75.0723V61.6746ZM75.3195 69.3128C75.3195 66.3959 73.379 64.2701 70.9071 64.2701C68.4105 64.2701 66.3093 66.3959 66.3093 69.3128C66.3093 72.1926 68.4105 74.2814 70.9071 74.2814C73.379 74.2937 75.3195 72.1926 75.3195 69.3128Z" fill="white"/>
<path d="M43.1462 69.2515C43.1462 74.0099 39.4383 77.5077 34.89 77.5077C30.3417 77.5077 26.6338 73.9975 26.6338 69.2515C26.6338 64.4683 30.3417 60.9829 34.89 60.9829C39.4383 60.9829 43.1462 64.4683 43.1462 69.2515ZM39.5372 69.2515C39.5372 66.2852 37.3866 64.2458 34.89 64.2458C32.3934 64.2458 30.2428 66.2852 30.2428 69.2515C30.2428 72.193 32.3934 74.2571 34.89 74.2571C37.3866 74.2571 39.5372 72.193 39.5372 69.2515Z" fill="white"/>
<path d="M61.1799 69.2889C61.1799 74.0473 57.472 77.5451 52.9237 77.5451C48.3754 77.5451 44.6675 74.0473 44.6675 69.2889C44.6675 64.5058 48.3754 61.0327 52.9237 61.0327C57.472 61.0327 61.1799 64.4934 61.1799 69.2889ZM57.5585 69.2889C57.5585 66.3226 55.408 64.2833 52.9113 64.2833C50.4147 64.2833 48.2641 66.3226 48.2641 69.2889C48.2641 72.2305 50.4147 74.2945 52.9113 74.2945C55.4203 74.2945 57.5585 72.2181 57.5585 69.2889Z" fill="white"/>
<path d="M13.0641 73.9234C7.88541 73.9234 3.83147 69.7458 3.83147 64.5672C3.83147 59.3885 7.88541 55.211 13.0641 55.211C15.8573 55.211 17.8967 56.311 19.4045 57.72L21.8888 55.2357C19.7877 53.2211 16.9821 51.6885 13.0641 51.6885C5.96968 51.6885 0 57.4728 0 64.5672C0 71.6616 5.96968 77.4458 13.0641 77.4458C16.8955 77.4458 19.7877 76.1852 22.0495 73.8368C24.3731 71.5132 25.0899 68.2503 25.0899 65.6054C25.0899 64.7773 24.9911 63.9245 24.8798 63.2941H13.0641V66.7301H21.4809C21.2338 68.8807 20.554 70.3514 19.5529 71.3526C18.3416 72.5762 16.4259 73.9234 13.0641 73.9234Z" fill="white"/>
<path d="M200.554 83.2973C194.624 87.6679 186.03 89.9998 178.63 89.9998C168.254 89.9998 158.913 86.1622 151.846 79.7794C151.291 79.2775 151.789 78.5935 152.455 78.9844C160.081 83.4216 169.511 86.0911 179.252 86.0911C185.821 86.0911 193.048 84.7319 199.692 81.9115C200.696 81.485 201.536 82.5688 200.554 83.2973Z" fill="white"/>
<path d="M203.019 80.4769C202.264 79.5086 198.009 80.0194 196.099 80.2459C195.517 80.317 195.428 79.8106 195.953 79.4464C199.342 77.0612 204.903 77.7497 205.551 78.5492C206.2 79.3531 205.382 84.9275 202.198 87.5881C201.709 87.9967 201.243 87.7791 201.46 87.2372C202.175 85.4516 203.779 81.4496 203.019 80.4769Z" fill="white"/>
<path d="M196.232 62.609V60.2904C196.232 59.9395 196.499 59.7041 196.819 59.7041H207.199C207.532 59.7041 207.799 59.944 207.799 60.2904V62.2759C207.794 62.609 207.514 63.0443 207.017 63.7327L201.638 71.4125C203.637 71.3636 205.747 71.6612 207.559 72.6828C207.967 72.9138 208.078 73.2513 208.11 73.5845V76.0585C208.11 76.3961 207.736 76.7914 207.346 76.5871C204.152 74.9125 199.91 74.7304 196.379 76.6048C196.019 76.8003 195.642 76.4094 195.642 76.0718V73.7222C195.642 73.3446 195.646 72.7006 196.024 72.1276L202.255 63.1909H196.832C196.499 63.1909 196.232 62.9554 196.232 62.609Z" fill="white"/>
<path d="M158.367 77.0744H155.209C154.907 77.0522 154.667 76.8257 154.645 76.537V60.3292C154.645 60.0049 154.916 59.7473 155.254 59.7473H158.198C158.505 59.7606 158.749 59.996 158.771 60.2892V62.4079H158.829C159.598 60.3602 161.041 59.4053 162.987 59.4053C164.963 59.4053 166.198 60.3602 167.086 62.4079C167.85 60.3602 169.587 59.4053 171.448 59.4053C172.772 59.4053 174.22 59.9516 175.104 61.1775C176.103 62.5411 175.899 64.5221 175.899 66.2588L175.894 76.4881C175.894 76.8124 175.623 77.0744 175.286 77.0744H172.132C171.817 77.0522 171.564 76.799 171.564 76.4881V67.8978C171.564 67.2138 171.626 65.5082 171.475 64.8597C171.239 63.7715 170.533 63.465 169.618 63.465C168.854 63.465 168.055 63.9758 167.73 64.7931C167.406 65.6104 167.437 66.9784 167.437 67.8978V76.4881C167.437 76.8124 167.166 77.0744 166.829 77.0744H163.675C163.355 77.0522 163.106 76.799 163.106 76.4881L163.102 67.8978C163.102 66.0901 163.4 63.4295 161.157 63.4295C158.887 63.4295 158.976 66.0234 158.976 67.8978V76.4881C158.976 76.8124 158.705 77.0744 158.367 77.0744Z" fill="white"/>
<path d="M216.735 59.4053C221.421 59.4053 223.957 63.4295 223.957 68.5463C223.957 73.49 221.154 77.412 216.735 77.412C212.133 77.412 209.628 73.3878 209.628 68.3731C209.628 63.3273 212.164 59.4053 216.735 59.4053ZM216.761 62.7144C214.434 62.7144 214.287 65.8857 214.287 67.8623C214.287 69.8433 214.256 74.0718 216.735 74.0718C219.182 74.0718 219.298 70.6606 219.298 68.5819C219.298 67.2138 219.24 65.5793 218.827 64.2823C218.471 63.1541 217.765 62.7144 216.761 62.7144Z" fill="white"/>
<path d="M230.033 77.0747H226.888C226.573 77.0525 226.32 76.7993 226.32 76.4884L226.315 60.2761C226.342 59.9785 226.604 59.7475 226.924 59.7475H229.851C230.126 59.7608 230.353 59.9474 230.415 60.2006V62.6791H230.473C231.357 60.4626 232.596 59.4055 234.777 59.4055C236.194 59.4055 237.575 59.9163 238.464 61.3155C239.29 62.6124 239.29 64.7933 239.29 66.3612V76.5639C239.254 76.8481 238.992 77.0747 238.681 77.0747H235.514C235.226 77.0525 234.986 76.8393 234.955 76.5639V67.7604C234.955 65.9881 235.159 63.3942 232.978 63.3942C232.21 63.3942 231.503 63.9094 231.152 64.6912C230.708 65.6817 230.651 66.6677 230.651 67.7604V76.4884C230.646 76.8126 230.371 77.0747 230.033 77.0747Z" fill="white"/>
<path d="M187.955 69.3327V68.6487C185.672 68.6487 183.26 69.1373 183.26 71.8289C183.26 73.1926 183.966 74.1164 185.179 74.1164C186.067 74.1164 186.862 73.5701 187.364 72.6818C187.986 71.5891 187.955 70.5631 187.955 69.3327ZM191.14 77.0302C190.931 77.2168 190.629 77.2301 190.393 77.1057C189.345 76.2351 189.159 75.8309 188.581 75.0003C186.849 76.7681 185.623 77.2967 183.375 77.2967C180.719 77.2967 178.649 75.6577 178.649 72.3753C178.649 69.8124 180.04 68.0668 182.016 67.214C183.731 66.4589 186.125 66.3257 187.955 66.1169V65.7083C187.955 64.9576 188.013 64.0693 187.573 63.4208C187.186 62.8389 186.449 62.5991 185.801 62.5991C184.597 62.5991 183.522 63.2165 183.26 64.4957C183.207 64.7799 182.998 65.0598 182.714 65.0731L179.649 64.7444C179.391 64.6867 179.107 64.4779 179.178 64.0826C179.884 60.3693 183.238 59.25 186.24 59.25C187.777 59.25 189.785 59.6586 190.997 60.8224C192.534 62.257 192.388 64.1714 192.388 66.2546V71.176C192.388 72.6551 193.001 73.3036 193.578 74.1031C193.782 74.3874 193.827 74.7294 193.569 74.9426C192.925 75.48 191.779 76.4794 191.148 77.0391L191.14 77.0302Z" fill="white"/>
<path d="M146.555 69.3327V68.6487C144.272 68.6487 141.861 69.1373 141.861 71.8289C141.861 73.1926 142.567 74.1164 143.779 74.1164C144.668 74.1164 145.463 73.5701 145.965 72.6818C146.586 71.5891 146.555 70.5631 146.555 69.3327ZM149.74 77.0302C149.531 77.2168 149.229 77.2301 148.994 77.1057C147.946 76.2351 147.759 75.8309 147.182 75.0003C145.449 76.7681 144.224 77.2967 141.976 77.2967C139.32 77.2967 137.25 75.6577 137.25 72.3753C137.25 69.8124 138.64 68.0668 140.617 67.214C142.331 66.4589 144.725 66.3257 146.555 66.1169V65.7083C146.555 64.9576 146.613 64.0693 146.173 63.4208C145.787 62.8389 145.05 62.5991 144.401 62.5991C143.197 62.5991 142.123 63.2165 141.861 64.4957C141.807 64.7799 141.598 65.0598 141.314 65.0731L138.249 64.7444C137.992 64.6867 137.707 64.4779 137.779 64.0826C138.485 60.3693 141.838 59.25 144.841 59.25C146.378 59.25 148.385 59.6586 149.598 60.8224C151.135 62.257 150.988 64.1714 150.988 66.2546V71.176C150.988 72.6551 151.601 73.3036 152.179 74.1031C152.383 74.3874 152.427 74.7294 152.17 74.9426C151.526 75.48 150.38 76.4794 149.749 77.0391L149.74 77.0302Z" fill="white"/>
<path d="M346.405 55.3748V77.2563H342.606V60.0854H342.555L335.768 77.2563H333.235L326.296 60.0854H326.245V77.2563H322.75V55.3748H328.221L334.502 71.5833H334.603L341.238 55.3748H346.405ZM349.545 57.0463C349.545 56.4384 349.748 55.9319 350.204 55.5267C350.66 55.1215 351.166 54.9189 351.774 54.9189C352.432 54.9189 352.99 55.1215 353.395 55.5267C353.8 55.9319 354.053 56.4384 354.053 57.0463C354.053 57.6541 353.851 58.1606 353.395 58.5658C352.939 58.971 352.432 59.1736 351.774 59.1736C351.115 59.1736 350.609 58.971 350.204 58.5658C349.799 58.11 349.545 57.6034 349.545 57.0463ZM353.648 61.5543V77.2563H349.95V61.5543H353.648ZM364.842 74.5718C365.399 74.5718 366.007 74.4705 366.666 74.1666C367.324 73.9133 367.932 73.5587 368.489 73.1535V76.5978C367.881 76.9524 367.223 77.2057 366.463 77.3576C365.703 77.5096 364.893 77.6109 363.981 77.6109C361.651 77.6109 359.777 76.9017 358.359 75.4328C356.89 73.9639 356.181 72.0898 356.181 69.8612C356.181 67.3286 356.94 65.2519 358.409 63.631C359.878 62.0101 361.955 61.1997 364.69 61.1997C365.399 61.1997 366.108 61.301 366.767 61.453C367.476 61.6049 368.033 61.8582 368.438 62.0608V65.6064C367.881 65.2012 367.273 64.8466 366.716 64.644C366.108 64.4414 365.501 64.2895 364.893 64.2895C363.424 64.2895 362.259 64.7453 361.347 65.7077C360.435 66.6701 360.03 67.9364 360.03 69.5572C360.03 71.1275 360.486 72.3937 361.347 73.2548C362.208 74.1159 363.373 74.5718 364.842 74.5718ZM378.974 61.301C379.278 61.301 379.531 61.301 379.784 61.3517C380.038 61.4023 380.24 61.453 380.392 61.5036V65.2519C380.19 65.0999 379.936 64.9479 379.531 64.8466C379.126 64.7453 378.721 64.644 378.163 64.644C377.252 64.644 376.492 65.0492 375.884 65.809C375.276 66.5688 374.922 67.7338 374.922 69.3546V77.2563H371.224V61.5543H374.922V64.0362H374.972C375.327 63.1751 375.834 62.5167 376.492 62.0101C377.201 61.5543 378.012 61.301 378.974 61.301ZM380.595 69.6586C380.595 67.0753 381.355 64.9986 382.773 63.479C384.242 61.9595 386.268 61.1997 388.851 61.1997C391.282 61.1997 393.207 61.9088 394.575 63.3777C395.942 64.8466 396.651 66.8221 396.651 69.304C396.651 71.8366 395.892 73.8626 394.473 75.3822C393.004 76.9017 391.029 77.6615 388.496 77.6615C386.065 77.6615 384.14 76.9524 382.722 75.5342C381.304 74.0653 380.595 72.0898 380.595 69.6586ZM384.444 69.5066C384.444 71.1275 384.799 72.3937 385.559 73.2548C386.318 74.1159 387.382 74.5718 388.75 74.5718C390.067 74.5718 391.13 74.1666 391.839 73.2548C392.549 72.3937 392.903 71.1275 392.903 69.4053C392.903 67.7338 392.549 66.4675 391.839 65.5558C391.13 64.6947 390.067 64.2388 388.8 64.2388C387.433 64.2388 386.42 64.6947 385.66 65.6064C384.799 66.5688 384.444 67.8351 384.444 69.5066ZM402.172 65.7077C402.172 66.2142 402.324 66.6701 402.679 66.974C403.033 67.2779 403.743 67.6325 404.908 68.0883C406.377 68.6962 407.44 69.3546 407.997 70.0638C408.605 70.8235 408.909 71.6846 408.909 72.7483C408.909 74.2172 408.352 75.3822 407.187 76.2939C406.073 77.2057 404.502 77.6109 402.578 77.6109C401.919 77.6109 401.21 77.5096 400.4 77.3576C399.589 77.2057 398.931 77.0031 398.374 76.7498V73.1029C399.032 73.5587 399.792 73.9639 400.552 74.2172C401.311 74.4705 402.02 74.6224 402.679 74.6224C403.489 74.6224 404.148 74.5211 404.502 74.2679C404.908 74.0146 405.11 73.66 405.11 73.1029C405.11 72.5964 404.908 72.1911 404.502 71.7859C404.097 71.4314 403.287 71.0261 402.172 70.5703C400.805 70.0131 399.842 69.3546 399.285 68.6455C398.728 67.9364 398.424 67.0247 398.424 65.9103C398.424 64.4921 398.981 63.3271 400.096 62.4154C401.21 61.5036 402.679 61.0478 404.452 61.0478C405.009 61.0478 405.617 61.0984 406.275 61.2504C406.934 61.4023 407.541 61.5543 407.997 61.7062V65.3025C407.491 64.9986 406.934 64.6947 406.275 64.4414C405.617 64.1882 404.958 64.0869 404.35 64.0869C403.641 64.0869 403.084 64.2388 402.73 64.4921C402.375 64.8466 402.172 65.2012 402.172 65.7077ZM410.479 69.6586C410.479 67.0753 411.239 64.9986 412.657 63.479C414.126 61.9595 416.152 61.1997 418.736 61.1997C421.167 61.1997 423.092 61.9088 424.459 63.3777C425.827 64.8466 426.536 66.8221 426.536 69.304C426.536 71.8366 425.776 73.8626 424.358 75.3822C422.889 76.9017 420.914 77.6615 418.381 77.6615C415.95 77.6615 414.025 76.9524 412.607 75.5342C411.239 74.0653 410.479 72.0898 410.479 69.6586ZM414.329 69.5066C414.329 71.1275 414.683 72.3937 415.443 73.2548C416.203 74.1159 417.267 74.5718 418.634 74.5718C419.951 74.5718 421.015 74.1666 421.724 73.2548C422.433 72.3937 422.788 71.1275 422.788 69.4053C422.788 67.7338 422.433 66.4675 421.724 65.5558C421.015 64.6947 419.951 64.2388 418.685 64.2388C417.317 64.2388 416.304 64.6947 415.544 65.6064C414.734 66.5688 414.329 67.8351 414.329 69.5066ZM438.844 64.5934H433.323V77.2563H429.575V64.5934H426.941V61.5543H429.575V59.3762C429.575 57.7554 430.132 56.3878 431.196 55.3241C432.26 54.2604 433.627 53.7539 435.299 53.7539C435.755 53.7539 436.16 53.8046 436.514 53.8046C436.869 53.8046 437.173 53.9059 437.426 54.0072V57.1982C437.325 57.1476 437.071 57.0463 436.768 56.945C436.464 56.8437 436.109 56.793 435.704 56.793C434.944 56.793 434.336 57.0463 433.931 57.5021C433.526 57.958 433.323 58.7178 433.323 59.6295V61.5036H438.844V57.958L442.542 56.8437V61.5036H446.29V64.5427H442.542V71.8872C442.542 72.8496 442.744 73.5081 443.048 73.9133C443.403 74.3185 443.96 74.5211 444.72 74.5211C444.922 74.5211 445.176 74.4705 445.48 74.3692C445.784 74.2679 446.037 74.1666 446.239 74.0146V77.0537C445.986 77.2057 445.632 77.307 445.074 77.4083C444.517 77.5096 444.011 77.5602 443.454 77.5602C441.883 77.5602 440.718 77.155 439.959 76.3446C439.199 75.5342 438.794 74.2679 438.794 72.5964L438.844 64.5934Z" fill="white"/>
<path d="M292.612 48.0806H275.29V65.4035H292.612V48.0806Z" fill="white"/>
<path d="M311.758 48.0806H294.435V65.4035H311.758V48.0806Z" fill="white"/>
<path d="M292.612 67.2275H275.29V84.5504H292.612V67.2275Z" fill="white"/>
<path d="M311.758 67.2275H294.435V84.5504H311.758V67.2275Z" fill="white"/>
</g>
<g opacity="0.44">
<path d="M7.056 21.216C5.82 21.216 4.734 20.946 3.798 20.406C2.874 19.854 2.148 19.086 1.62 18.102C1.104 17.118 0.846 15.984 0.846 14.7C0.846 13.416 1.104 12.288 1.62 11.316C2.148 10.332 2.874 9.564 3.798 9.012C4.734 8.46 5.82 8.184 7.056 8.184C8.304 8.184 9.39 8.46 10.314 9.012C11.25 9.564 11.976 10.332 12.492 11.316C13.008 12.288 13.266 13.416 13.266 14.7C13.266 15.984 13.008 17.118 12.492 18.102C11.976 19.086 11.25 19.854 10.314 20.406C9.39 20.946 8.304 21.216 7.056 21.216ZM7.056 19.884C7.98 19.884 8.79 19.68 9.486 19.272C10.194 18.852 10.74 18.258 11.124 17.49C11.52 16.71 11.718 15.78 11.718 14.7C11.718 13.62 11.52 12.696 11.124 11.928C10.74 11.16 10.194 10.572 9.486 10.164C8.79 9.744 7.98 9.534 7.056 9.534C6.132 9.534 5.316 9.744 4.608 10.164C3.912 10.572 3.366 11.16 2.97 11.928C2.586 12.696 2.394 13.62 2.394 14.7C2.394 15.78 2.586 16.71 2.97 17.49C3.366 18.258 3.912 18.852 4.608 19.272C5.316 19.68 6.132 19.884 7.056 19.884ZM18.0752 21.216C17.0192 21.216 16.1792 20.898 15.5552 20.262C14.9312 19.614 14.6192 18.624 14.6192 17.292V12.072H16.1312V17.13C16.1312 18.99 16.8932 19.92 18.4172 19.92C19.1972 19.92 19.8392 19.644 20.3432 19.092C20.8592 18.528 21.1172 17.73 21.1172 16.698V12.072H22.6292V21H21.2612L21.1532 19.398C20.8772 19.962 20.4632 20.406 19.9112 20.73C19.3712 21.054 18.7592 21.216 18.0752 21.216ZM24.578 21V12.072H25.946L26.072 13.782C26.348 13.194 26.768 12.726 27.332 12.378C27.896 12.03 28.592 11.856 29.42 11.856V13.44H29.006C28.478 13.44 27.992 13.536 27.548 13.728C27.104 13.908 26.75 14.22 26.486 14.664C26.222 15.108 26.09 15.72 26.09 16.5V21H24.578ZM37.7708 21.216C37.0268 21.216 36.4088 21.09 35.9168 20.838C35.4248 20.586 35.0588 20.25 34.8188 19.83C34.5788 19.41 34.4588 18.954 34.4588 18.462C34.4588 17.55 34.8068 16.848 35.5028 16.356C36.1988 15.864 37.1468 15.618 38.3468 15.618H40.7588V15.51C40.7588 14.73 40.5548 14.142 40.1468 13.746C39.7388 13.338 39.1928 13.134 38.5088 13.134C37.9208 13.134 37.4108 13.284 36.9788 13.584C36.5588 13.872 36.2948 14.298 36.1868 14.862H34.6388C34.6988 14.214 34.9148 13.668 35.2868 13.224C35.6708 12.78 36.1448 12.444 36.7088 12.216C37.2728 11.976 37.8728 11.856 38.5088 11.856C39.7568 11.856 40.6928 12.192 41.3168 12.864C41.9528 13.524 42.2708 14.406 42.2708 15.51V21H40.9208L40.8308 19.398C40.5788 19.902 40.2068 20.334 39.7148 20.694C39.2348 21.042 38.5868 21.216 37.7708 21.216ZM38.0048 19.938C38.5808 19.938 39.0728 19.788 39.4808 19.488C39.9008 19.188 40.2188 18.798 40.4348 18.318C40.6508 17.838 40.7588 17.334 40.7588 16.806V16.788H38.4728C37.5848 16.788 36.9548 16.944 36.5828 17.256C36.2228 17.556 36.0428 17.934 36.0428 18.39C36.0428 18.858 36.2108 19.236 36.5468 19.524C36.8948 19.8 37.3808 19.938 38.0048 19.938ZM43.999 21V8.04H45.511V21H43.999ZM50.7073 21.216C49.6513 21.216 48.8113 20.898 48.1873 20.262C47.5633 19.614 47.2513 18.624 47.2513 17.292V12.072H48.7633V17.13C48.7633 18.99 49.5253 19.92 51.0493 19.92C51.8293 19.92 52.4713 19.644 52.9753 19.092C53.4913 18.528 53.7493 17.73 53.7493 16.698V12.072H55.2613V21H53.8933L53.7853 19.398C53.5093 19.962 53.0953 20.406 52.5433 20.73C52.0033 21.054 51.3913 21.216 50.7073 21.216ZM57.21 21V12.072H58.578L58.686 13.368C58.974 12.888 59.358 12.516 59.838 12.252C60.318 11.988 60.858 11.856 61.458 11.856C62.166 11.856 62.772 12 63.276 12.288C63.792 12.576 64.188 13.014 64.464 13.602C64.776 13.062 65.202 12.636 65.742 12.324C66.294 12.012 66.888 11.856 67.524 11.856C68.592 11.856 69.444 12.18 70.08 12.828C70.716 13.464 71.034 14.448 71.034 15.78V21H69.54V15.942C69.54 15.018 69.354 14.322 68.982 13.854C68.61 13.386 68.076 13.152 67.38 13.152C66.66 13.152 66.06 13.434 65.58 13.998C65.112 14.55 64.878 15.342 64.878 16.374V21H63.366V15.942C63.366 15.018 63.18 14.322 62.808 13.854C62.436 13.386 61.902 13.152 61.206 13.152C60.498 13.152 59.904 13.434 59.424 13.998C58.956 14.55 58.722 15.342 58.722 16.374V21H57.21ZM72.7716 21V12.072H74.1396L74.2296 13.674C74.5176 13.11 74.9316 12.666 75.4716 12.342C76.0116 12.018 76.6236 11.856 77.3076 11.856C78.3636 11.856 79.2036 12.18 79.8276 12.828C80.4636 13.464 80.7816 14.448 80.7816 15.78V21H79.2696V15.942C79.2696 14.082 78.5016 13.152 76.9656 13.152C76.1976 13.152 75.5556 13.434 75.0396 13.998C74.5356 14.55 74.2836 15.342 74.2836 16.374V21H72.7716ZM83.4504 10.092C83.1504 10.092 82.8984 9.996 82.6944 9.804C82.5024 9.6 82.4064 9.348 82.4064 9.048C82.4064 8.76 82.5024 8.52 82.6944 8.328C82.8984 8.136 83.1504 8.04 83.4504 8.04C83.7384 8.04 83.9844 8.136 84.1884 8.328C84.3924 8.52 84.4944 8.76 84.4944 9.048C84.4944 9.348 84.3924 9.6 84.1884 9.804C83.9844 9.996 83.7384 10.092 83.4504 10.092ZM82.6944 21V12.072H84.2064V21H82.6944ZM93.4927 21.216C92.7487 21.216 92.1307 21.09 91.6387 20.838C91.1467 20.586 90.7807 20.25 90.5407 19.83C90.3007 19.41 90.1807 18.954 90.1807 18.462C90.1807 17.55 90.5287 16.848 91.2247 16.356C91.9207 15.864 92.8687 15.618 94.0687 15.618H96.4807V15.51C96.4807 14.73 96.2767 14.142 95.8687 13.746C95.4607 13.338 94.9147 13.134 94.2307 13.134C93.6427 13.134 93.1327 13.284 92.7007 13.584C92.2807 13.872 92.0167 14.298 91.9087 14.862H90.3607C90.4207 14.214 90.6367 13.668 91.0087 13.224C91.3927 12.78 91.8667 12.444 92.4307 12.216C92.9947 11.976 93.5947 11.856 94.2307 11.856C95.4787 11.856 96.4147 12.192 97.0387 12.864C97.6747 13.524 97.9927 14.406 97.9927 15.51V21H96.6427L96.5527 19.398C96.3007 19.902 95.9287 20.334 95.4367 20.694C94.9567 21.042 94.3087 21.216 93.4927 21.216ZM93.7267 19.938C94.3027 19.938 94.7947 19.788 95.2027 19.488C95.6227 19.188 95.9407 18.798 96.1567 18.318C96.3727 17.838 96.4807 17.334 96.4807 16.806V16.788H94.1947C93.3067 16.788 92.6767 16.944 92.3047 17.256C91.9447 17.556 91.7647 17.934 91.7647 18.39C91.7647 18.858 91.9327 19.236 92.2687 19.524C92.6167 19.8 93.1027 19.938 93.7267 19.938ZM99.721 21V12.072H101.089L101.215 13.782C101.491 13.194 101.911 12.726 102.475 12.378C103.039 12.03 103.735 11.856 104.563 11.856V13.44H104.149C103.621 13.44 103.135 13.536 102.691 13.728C102.247 13.908 101.893 14.22 101.629 14.664C101.365 15.108 101.233 15.72 101.233 16.5V21H99.721ZM109.4 21.216C108.548 21.216 107.792 21.024 107.132 20.64C106.472 20.244 105.95 19.698 105.566 19.002C105.194 18.306 105.008 17.484 105.008 16.536C105.008 15.6 105.194 14.784 105.566 14.088C105.938 13.38 106.454 12.834 107.114 12.45C107.786 12.054 108.56 11.856 109.436 11.856C110.3 11.856 111.044 12.054 111.668 12.45C112.304 12.834 112.79 13.344 113.126 13.98C113.462 14.616 113.63 15.3 113.63 16.032C113.63 16.164 113.624 16.296 113.612 16.428C113.612 16.56 113.612 16.71 113.612 16.878H106.502C106.538 17.562 106.694 18.132 106.97 18.588C107.258 19.032 107.612 19.368 108.032 19.596C108.464 19.824 108.92 19.938 109.4 19.938C110.024 19.938 110.546 19.794 110.966 19.506C111.386 19.218 111.692 18.828 111.884 18.336H113.378C113.138 19.164 112.676 19.854 111.992 20.406C111.32 20.946 110.456 21.216 109.4 21.216ZM109.4 13.134C108.68 13.134 108.038 13.356 107.474 13.8C106.922 14.232 106.604 14.868 106.52 15.708H112.136C112.1 14.904 111.824 14.274 111.308 13.818C110.792 13.362 110.156 13.134 109.4 13.134ZM119.318 24.96V12.072H120.686L120.83 13.548C121.118 13.116 121.526 12.726 122.054 12.378C122.594 12.03 123.278 11.856 124.106 11.856C124.994 11.856 125.768 12.06 126.428 12.468C127.088 12.876 127.598 13.434 127.958 14.142C128.33 14.85 128.516 15.654 128.516 16.554C128.516 17.454 128.33 18.258 127.958 18.966C127.598 19.662 127.082 20.214 126.41 20.622C125.75 21.018 124.976 21.216 124.088 21.216C123.356 21.216 122.702 21.066 122.126 20.766C121.562 20.466 121.13 20.046 120.83 19.506V24.96H119.318ZM123.926 19.902C124.526 19.902 125.054 19.764 125.51 19.488C125.966 19.2 126.326 18.804 126.59 18.3C126.854 17.796 126.986 17.208 126.986 16.536C126.986 15.864 126.854 15.276 126.59 14.772C126.326 14.268 125.966 13.878 125.51 13.602C125.054 13.314 124.526 13.17 123.926 13.17C123.326 13.17 122.798 13.314 122.342 13.602C121.886 13.878 121.526 14.268 121.262 14.772C120.998 15.276 120.866 15.864 120.866 16.536C120.866 17.208 120.998 17.796 121.262 18.3C121.526 18.804 121.886 19.2 122.342 19.488C122.798 19.764 123.326 19.902 123.926 19.902ZM130.081 21V8.04H131.593V21H130.081ZM136.501 21.216C135.757 21.216 135.139 21.09 134.647 20.838C134.155 20.586 133.789 20.25 133.549 19.83C133.309 19.41 133.189 18.954 133.189 18.462C133.189 17.55 133.537 16.848 134.233 16.356C134.929 15.864 135.877 15.618 137.077 15.618H139.489V15.51C139.489 14.73 139.285 14.142 138.877 13.746C138.469 13.338 137.923 13.134 137.239 13.134C136.651 13.134 136.141 13.284 135.709 13.584C135.289 13.872 135.025 14.298 134.917 14.862H133.369C133.429 14.214 133.645 13.668 134.017 13.224C134.401 12.78 134.875 12.444 135.439 12.216C136.003 11.976 136.603 11.856 137.239 11.856C138.487 11.856 139.423 12.192 140.047 12.864C140.683 13.524 141.001 14.406 141.001 15.51V21H139.651L139.561 19.398C139.309 19.902 138.937 20.334 138.445 20.694C137.965 21.042 137.317 21.216 136.501 21.216ZM136.735 19.938C137.311 19.938 137.803 19.788 138.211 19.488C138.631 19.188 138.949 18.798 139.165 18.318C139.381 17.838 139.489 17.334 139.489 16.806V16.788H137.203C136.315 16.788 135.685 16.944 135.313 17.256C134.953 17.556 134.773 17.934 134.773 18.39C134.773 18.858 134.941 19.236 135.277 19.524C135.625 19.8 136.111 19.938 136.735 19.938ZM146.833 21.216C145.981 21.216 145.213 21.024 144.529 20.64C143.857 20.244 143.323 19.698 142.927 19.002C142.543 18.294 142.351 17.472 142.351 16.536C142.351 15.6 142.543 14.784 142.927 14.088C143.323 13.38 143.857 12.834 144.529 12.45C145.213 12.054 145.981 11.856 146.833 11.856C147.889 11.856 148.777 12.132 149.497 12.684C150.229 13.236 150.691 13.974 150.883 14.898H149.335C149.215 14.346 148.921 13.92 148.453 13.62C147.985 13.308 147.439 13.152 146.815 13.152C146.311 13.152 145.837 13.278 145.393 13.53C144.949 13.782 144.589 14.16 144.313 14.664C144.037 15.168 143.899 15.792 143.899 16.536C143.899 17.28 144.037 17.904 144.313 18.408C144.589 18.912 144.949 19.296 145.393 19.56C145.837 19.812 146.311 19.938 146.815 19.938C147.439 19.938 147.985 19.788 148.453 19.488C148.921 19.176 149.215 18.738 149.335 18.174H150.883C150.703 19.074 150.247 19.806 149.515 20.37C148.783 20.934 147.889 21.216 146.833 21.216ZM156.469 21.216C155.617 21.216 154.861 21.024 154.201 20.64C153.541 20.244 153.019 19.698 152.635 19.002C152.263 18.306 152.077 17.484 152.077 16.536C152.077 15.6 152.263 14.784 152.635 14.088C153.007 13.38 153.523 12.834 154.183 12.45C154.855 12.054 155.629 11.856 156.505 11.856C157.369 11.856 158.113 12.054 158.737 12.45C159.373 12.834 159.859 13.344 160.195 13.98C160.531 14.616 160.699 15.3 160.699 16.032C160.699 16.164 160.693 16.296 160.681 16.428C160.681 16.56 160.681 16.71 160.681 16.878H153.571C153.607 17.562 153.763 18.132 154.039 18.588C154.327 19.032 154.681 19.368 155.101 19.596C155.533 19.824 155.989 19.938 156.469 19.938C157.093 19.938 157.615 19.794 158.035 19.506C158.455 19.218 158.761 18.828 158.953 18.336H160.447C160.207 19.164 159.745 19.854 159.061 20.406C158.389 20.946 157.525 21.216 156.469 21.216ZM156.469 13.134C155.749 13.134 155.107 13.356 154.543 13.8C153.991 14.232 153.673 14.868 153.589 15.708H159.205C159.169 14.904 158.893 14.274 158.377 13.818C157.861 13.362 157.225 13.134 156.469 13.134ZM166.213 21.216C165.325 21.216 164.545 21.012 163.873 20.604C163.213 20.196 162.697 19.638 162.325 18.93C161.965 18.222 161.785 17.418 161.785 16.518C161.785 15.618 161.971 14.82 162.343 14.124C162.715 13.416 163.231 12.864 163.891 12.468C164.551 12.06 165.331 11.856 166.231 11.856C166.963 11.856 167.611 12.006 168.175 12.306C168.739 12.606 169.177 13.026 169.489 13.566V8.04H171.001V21H169.633L169.489 19.524C169.201 19.956 168.787 20.346 168.247 20.694C167.707 21.042 167.029 21.216 166.213 21.216ZM166.375 19.902C166.975 19.902 167.503 19.764 167.959 19.488C168.427 19.2 168.787 18.804 169.039 18.3C169.303 17.796 169.435 17.208 169.435 16.536C169.435 15.864 169.303 15.276 169.039 14.772C168.787 14.268 168.427 13.878 167.959 13.602C167.503 13.314 166.975 13.17 166.375 13.17C165.787 13.17 165.259 13.314 164.791 13.602C164.335 13.878 163.975 14.268 163.711 14.772C163.459 15.276 163.333 15.864 163.333 16.536C163.333 17.208 163.459 17.796 163.711 18.3C163.975 18.804 164.335 19.2 164.791 19.488C165.259 19.764 165.787 19.902 166.375 19.902ZM180.119 21.216C179.375 21.216 178.757 21.09 178.265 20.838C177.773 20.586 177.407 20.25 177.167 19.83C176.927 19.41 176.807 18.954 176.807 18.462C176.807 17.55 177.155 16.848 177.851 16.356C178.547 15.864 179.495 15.618 180.695 15.618H183.107V15.51C183.107 14.73 182.903 14.142 182.495 13.746C182.087 13.338 181.541 13.134 180.857 13.134C180.269 13.134 179.759 13.284 179.327 13.584C178.907 13.872 178.643 14.298 178.535 14.862H176.987C177.047 14.214 177.263 13.668 177.635 13.224C178.019 12.78 178.493 12.444 179.057 12.216C179.621 11.976 180.221 11.856 180.857 11.856C182.105 11.856 183.041 12.192 183.665 12.864C184.301 13.524 184.619 14.406 184.619 15.51V21H183.269L183.179 19.398C182.927 19.902 182.555 20.334 182.063 20.694C181.583 21.042 180.935 21.216 180.119 21.216ZM180.353 19.938C180.929 19.938 181.421 19.788 181.829 19.488C182.249 19.188 182.567 18.798 182.783 18.318C182.999 17.838 183.107 17.334 183.107 16.806V16.788H180.821C179.933 16.788 179.303 16.944 178.931 17.256C178.571 17.556 178.391 17.934 178.391 18.39C178.391 18.858 178.559 19.236 178.895 19.524C179.243 19.8 179.729 19.938 180.353 19.938ZM189.629 21C188.813 21 188.171 20.802 187.703 20.406C187.235 20.01 187.001 19.296 187.001 18.264V13.35H185.453V12.072H187.001L187.199 9.93H188.513V12.072H191.141V13.35H188.513V18.264C188.513 18.828 188.627 19.212 188.855 19.416C189.083 19.608 189.485 19.704 190.061 19.704H190.997V21H189.629ZM200.274 21C199.458 21 198.816 20.802 198.348 20.406C197.88 20.01 197.646 19.296 197.646 18.264V13.35H196.098V12.072H197.646L197.844 9.93H199.158V12.072H201.786V13.35H199.158V18.264C199.158 18.828 199.272 19.212 199.5 19.416C199.728 19.608 200.13 19.704 200.706 19.704H201.642V21H200.274ZM203.167 21V8.04H204.679V13.602C204.979 13.05 205.405 12.624 205.957 12.324C206.509 12.012 207.109 11.856 207.757 11.856C208.789 11.856 209.617 12.18 210.241 12.828C210.865 13.464 211.177 14.448 211.177 15.78V21H209.683V15.942C209.683 14.082 208.933 13.152 207.433 13.152C206.653 13.152 205.999 13.434 205.471 13.998C204.943 14.55 204.679 15.342 204.679 16.374V21H203.167ZM216.942 21.216C216.09 21.216 215.334 21.024 214.674 20.64C214.014 20.244 213.492 19.698 213.108 19.002C212.736 18.306 212.55 17.484 212.55 16.536C212.55 15.6 212.736 14.784 213.108 14.088C213.48 13.38 213.996 12.834 214.656 12.45C215.328 12.054 216.102 11.856 216.978 11.856C217.842 11.856 218.586 12.054 219.21 12.45C219.846 12.834 220.332 13.344 220.668 13.98C221.004 14.616 221.172 15.3 221.172 16.032C221.172 16.164 221.166 16.296 221.154 16.428C221.154 16.56 221.154 16.71 221.154 16.878H214.044C214.08 17.562 214.236 18.132 214.512 18.588C214.8 19.032 215.154 19.368 215.574 19.596C216.006 19.824 216.462 19.938 216.942 19.938C217.566 19.938 218.088 19.794 218.508 19.506C218.928 19.218 219.234 18.828 219.426 18.336H220.92C220.68 19.164 220.218 19.854 219.534 20.406C218.862 20.946 217.998 21.216 216.942 21.216ZM216.942 13.134C216.222 13.134 215.58 13.356 215.016 13.8C214.464 14.232 214.146 14.868 214.062 15.708H219.678C219.642 14.904 219.366 14.274 218.85 13.818C218.334 13.362 217.698 13.134 216.942 13.134ZM230.387 21C229.571 21 228.929 20.802 228.461 20.406C227.993 20.01 227.759 19.296 227.759 18.264V13.35H226.211V12.072H227.759L227.957 9.93H229.271V12.072H231.899V13.35H229.271V18.264C229.271 18.828 229.385 19.212 229.613 19.416C229.841 19.608 230.243 19.704 230.819 19.704H231.755V21H230.387ZM237.102 21.216C236.262 21.216 235.506 21.024 234.834 20.64C234.162 20.256 233.628 19.716 233.232 19.02C232.848 18.312 232.656 17.484 232.656 16.536C232.656 15.588 232.854 14.766 233.25 14.07C233.646 13.362 234.18 12.816 234.852 12.432C235.536 12.048 236.298 11.856 237.138 11.856C237.978 11.856 238.734 12.048 239.406 12.432C240.078 12.816 240.606 13.362 240.99 14.07C241.386 14.766 241.584 15.588 241.584 16.536C241.584 17.484 241.386 18.312 240.99 19.02C240.594 19.716 240.054 20.256 239.37 20.64C238.698 21.024 237.942 21.216 237.102 21.216ZM237.102 19.92C237.618 19.92 238.098 19.794 238.542 19.542C238.986 19.29 239.346 18.912 239.622 18.408C239.898 17.904 240.036 17.28 240.036 16.536C240.036 15.792 239.898 15.168 239.622 14.664C239.358 14.16 239.004 13.782 238.56 13.53C238.116 13.278 237.642 13.152 237.138 13.152C236.622 13.152 236.142 13.278 235.698 13.53C235.254 13.782 234.894 14.16 234.618 14.664C234.342 15.168 234.204 15.792 234.204 16.536C234.204 17.28 234.342 17.904 234.618 18.408C234.894 18.912 235.248 19.29 235.68 19.542C236.124 19.794 236.598 19.92 237.102 19.92ZM243.147 24.96V12.072H244.515L244.659 13.548C244.947 13.116 245.355 12.726 245.883 12.378C246.423 12.03 247.107 11.856 247.935 11.856C248.823 11.856 249.597 12.06 250.257 12.468C250.917 12.876 251.427 13.434 251.787 14.142C252.159 14.85 252.345 15.654 252.345 16.554C252.345 17.454 252.159 18.258 251.787 18.966C251.427 19.662 250.911 20.214 250.239 20.622C249.579 21.018 248.805 21.216 247.917 21.216C247.185 21.216 246.531 21.066 245.955 20.766C245.391 20.466 244.959 20.046 244.659 19.506V24.96H243.147ZM247.755 19.902C248.355 19.902 248.883 19.764 249.339 19.488C249.795 19.2 250.155 18.804 250.419 18.3C250.683 17.796 250.815 17.208 250.815 16.536C250.815 15.864 250.683 15.276 250.419 14.772C250.155 14.268 249.795 13.878 249.339 13.602C248.883 13.314 248.355 13.17 247.755 13.17C247.155 13.17 246.627 13.314 246.171 13.602C245.715 13.878 245.355 14.268 245.091 14.772C244.827 15.276 244.695 15.864 244.695 16.536C244.695 17.208 244.827 17.796 245.091 18.3C245.355 18.804 245.715 19.2 246.171 19.488C246.627 19.764 247.155 19.902 247.755 19.902ZM262.237 21.216C261.385 21.216 260.617 21.024 259.933 20.64C259.261 20.244 258.727 19.698 258.331 19.002C257.947 18.294 257.755 17.472 257.755 16.536C257.755 15.6 257.947 14.784 258.331 14.088C258.727 13.38 259.261 12.834 259.933 12.45C260.617 12.054 261.385 11.856 262.237 11.856C263.293 11.856 264.181 12.132 264.901 12.684C265.633 13.236 266.095 13.974 266.287 14.898H264.739C264.619 14.346 264.325 13.92 263.857 13.62C263.389 13.308 262.843 13.152 262.219 13.152C261.715 13.152 261.241 13.278 260.797 13.53C260.353 13.782 259.993 14.16 259.717 14.664C259.441 15.168 259.303 15.792 259.303 16.536C259.303 17.28 259.441 17.904 259.717 18.408C259.993 18.912 260.353 19.296 260.797 19.56C261.241 19.812 261.715 19.938 262.219 19.938C262.843 19.938 263.389 19.788 263.857 19.488C264.325 19.176 264.619 18.738 264.739 18.174H266.287C266.107 19.074 265.651 19.806 264.919 20.37C264.187 20.934 263.293 21.216 262.237 21.216ZM271.927 21.216C271.087 21.216 270.331 21.024 269.659 20.64C268.987 20.256 268.453 19.716 268.057 19.02C267.673 18.312 267.481 17.484 267.481 16.536C267.481 15.588 267.679 14.766 268.075 14.07C268.471 13.362 269.005 12.816 269.677 12.432C270.361 12.048 271.123 11.856 271.963 11.856C272.803 11.856 273.559 12.048 274.231 12.432C274.903 12.816 275.431 13.362 275.815 14.07C276.211 14.766 276.409 15.588 276.409 16.536C276.409 17.484 276.211 18.312 275.815 19.02C275.419 19.716 274.879 20.256 274.195 20.64C273.523 21.024 272.767 21.216 271.927 21.216ZM271.927 19.92C272.443 19.92 272.923 19.794 273.367 19.542C273.811 19.29 274.171 18.912 274.447 18.408C274.723 17.904 274.861 17.28 274.861 16.536C274.861 15.792 274.723 15.168 274.447 14.664C274.183 14.16 273.829 13.782 273.385 13.53C272.941 13.278 272.467 13.152 271.963 13.152C271.447 13.152 270.967 13.278 270.523 13.53C270.079 13.782 269.719 14.16 269.443 14.664C269.167 15.168 269.029 15.792 269.029 16.536C269.029 17.28 269.167 17.904 269.443 18.408C269.719 18.912 270.073 19.29 270.505 19.542C270.949 19.794 271.423 19.92 271.927 19.92ZM277.971 21V12.072H279.339L279.447 13.368C279.735 12.888 280.119 12.516 280.599 12.252C281.079 11.988 281.619 11.856 282.219 11.856C282.927 11.856 283.533 12 284.037 12.288C284.553 12.576 284.949 13.014 285.225 13.602C285.537 13.062 285.963 12.636 286.503 12.324C287.055 12.012 287.649 11.856 288.285 11.856C289.353 11.856 290.205 12.18 290.841 12.828C291.477 13.464 291.795 14.448 291.795 15.78V21H290.301V15.942C290.301 15.018 290.115 14.322 289.743 13.854C289.371 13.386 288.837 13.152 288.141 13.152C287.421 13.152 286.821 13.434 286.341 13.998C285.873 14.55 285.639 15.342 285.639 16.374V21H284.127V15.942C284.127 15.018 283.941 14.322 283.569 13.854C283.197 13.386 282.663 13.152 281.967 13.152C281.259 13.152 280.665 13.434 280.185 13.998C279.717 14.55 279.483 15.342 279.483 16.374V21H277.971ZM293.532 24.96V12.072H294.9L295.044 13.548C295.332 13.116 295.74 12.726 296.268 12.378C296.808 12.03 297.492 11.856 298.32 11.856C299.208 11.856 299.982 12.06 300.642 12.468C301.302 12.876 301.812 13.434 302.172 14.142C302.544 14.85 302.73 15.654 302.73 16.554C302.73 17.454 302.544 18.258 302.172 18.966C301.812 19.662 301.296 20.214 300.624 20.622C299.964 21.018 299.19 21.216 298.302 21.216C297.57 21.216 296.916 21.066 296.34 20.766C295.776 20.466 295.344 20.046 295.044 19.506V24.96H293.532ZM298.14 19.902C298.74 19.902 299.268 19.764 299.724 19.488C300.18 19.2 300.54 18.804 300.804 18.3C301.068 17.796 301.2 17.208 301.2 16.536C301.2 15.864 301.068 15.276 300.804 14.772C300.54 14.268 300.18 13.878 299.724 13.602C299.268 13.314 298.74 13.17 298.14 13.17C297.54 13.17 297.012 13.314 296.556 13.602C296.1 13.878 295.74 14.268 295.476 14.772C295.212 15.276 295.08 15.864 295.08 16.536C295.08 17.208 295.212 17.796 295.476 18.3C295.74 18.804 296.1 19.2 296.556 19.488C297.012 19.764 297.54 19.902 298.14 19.902ZM307.265 21.216C306.521 21.216 305.903 21.09 305.411 20.838C304.919 20.586 304.553 20.25 304.313 19.83C304.073 19.41 303.953 18.954 303.953 18.462C303.953 17.55 304.301 16.848 304.997 16.356C305.693 15.864 306.641 15.618 307.841 15.618H310.253V15.51C310.253 14.73 310.049 14.142 309.641 13.746C309.233 13.338 308.687 13.134 308.003 13.134C307.415 13.134 306.905 13.284 306.473 13.584C306.053 13.872 305.789 14.298 305.681 14.862H304.133C304.193 14.214 304.409 13.668 304.781 13.224C305.165 12.78 305.639 12.444 306.203 12.216C306.767 11.976 307.367 11.856 308.003 11.856C309.251 11.856 310.187 12.192 310.811 12.864C311.447 13.524 311.765 14.406 311.765 15.51V21H310.415L310.325 19.398C310.073 19.902 309.701 20.334 309.209 20.694C308.729 21.042 308.081 21.216 307.265 21.216ZM307.499 19.938C308.075 19.938 308.567 19.788 308.975 19.488C309.395 19.188 309.713 18.798 309.929 18.318C310.145 17.838 310.253 17.334 310.253 16.806V16.788H307.967C307.079 16.788 306.449 16.944 306.077 17.256C305.717 17.556 305.537 17.934 305.537 18.39C305.537 18.858 305.705 19.236 306.041 19.524C306.389 19.8 306.875 19.938 307.499 19.938ZM313.493 21V12.072H314.861L314.951 13.674C315.239 13.11 315.653 12.666 316.193 12.342C316.733 12.018 317.345 11.856 318.029 11.856C319.085 11.856 319.925 12.18 320.549 12.828C321.185 13.464 321.503 14.448 321.503 15.78V21H319.991V15.942C319.991 14.082 319.223 13.152 317.687 13.152C316.919 13.152 316.277 13.434 315.761 13.998C315.257 14.55 315.005 15.342 315.005 16.374V21H313.493ZM324.172 10.092C323.872 10.092 323.62 9.996 323.416 9.804C323.224 9.6 323.128 9.348 323.128 9.048C323.128 8.76 323.224 8.52 323.416 8.328C323.62 8.136 323.872 8.04 324.172 8.04C324.46 8.04 324.706 8.136 324.91 8.328C325.114 8.52 325.216 8.76 325.216 9.048C325.216 9.348 325.114 9.6 324.91 9.804C324.706 9.996 324.46 10.092 324.172 10.092ZM323.416 21V12.072H324.928V21H323.416ZM331.035 21.216C330.183 21.216 329.427 21.024 328.767 20.64C328.107 20.244 327.585 19.698 327.201 19.002C326.829 18.306 326.643 17.484 326.643 16.536C326.643 15.6 326.829 14.784 327.201 14.088C327.573 13.38 328.089 12.834 328.749 12.45C329.421 12.054 330.195 11.856 331.071 11.856C331.935 11.856 332.679 12.054 333.303 12.45C333.939 12.834 334.425 13.344 334.761 13.98C335.097 14.616 335.265 15.3 335.265 16.032C335.265 16.164 335.259 16.296 335.247 16.428C335.247 16.56 335.247 16.71 335.247 16.878H328.137C328.173 17.562 328.329 18.132 328.605 18.588C328.893 19.032 329.247 19.368 329.667 19.596C330.099 19.824 330.555 19.938 331.035 19.938C331.659 19.938 332.181 19.794 332.601 19.506C333.021 19.218 333.327 18.828 333.519 18.336H335.013C334.773 19.164 334.311 19.854 333.627 20.406C332.955 20.946 332.091 21.216 331.035 21.216ZM331.035 13.134C330.315 13.134 329.673 13.356 329.109 13.8C328.557 14.232 328.239 14.868 328.155 15.708H333.771C333.735 14.904 333.459 14.274 332.943 13.818C332.427 13.362 331.791 13.134 331.035 13.134ZM340.149 21.216C339.081 21.216 338.193 20.946 337.485 20.406C336.777 19.866 336.363 19.134 336.243 18.21H337.791C337.887 18.678 338.133 19.086 338.529 19.434C338.937 19.77 339.483 19.938 340.167 19.938C340.803 19.938 341.271 19.806 341.571 19.542C341.871 19.266 342.021 18.942 342.021 18.57C342.021 18.03 341.823 17.67 341.427 17.49C341.043 17.31 340.497 17.148 339.789 17.004C339.309 16.908 338.829 16.77 338.349 16.59C337.869 16.41 337.467 16.158 337.143 15.834C336.819 15.498 336.657 15.06 336.657 14.52C336.657 13.74 336.945 13.104 337.521 12.612C338.109 12.108 338.901 11.856 339.897 11.856C340.845 11.856 341.619 12.096 342.219 12.576C342.831 13.044 343.185 13.716 343.281 14.592H341.787C341.727 14.136 341.529 13.782 341.193 13.53C340.869 13.266 340.431 13.134 339.879 13.134C339.339 13.134 338.919 13.248 338.619 13.476C338.331 13.704 338.187 14.004 338.187 14.376C338.187 14.736 338.373 15.018 338.745 15.222C339.129 15.426 339.645 15.6 340.293 15.744C340.845 15.864 341.367 16.014 341.859 16.194C342.363 16.362 342.771 16.62 343.083 16.968C343.407 17.304 343.569 17.796 343.569 18.444C343.581 19.248 343.275 19.914 342.651 20.442C342.039 20.958 341.205 21.216 340.149 21.216Z" fill="white"/>
<path d="M353.75 15.9998L354.641 15.0974L358.355 18.8123L358.355 9.19116L359.645 9.19116L359.645 18.8123L363.348 15.0974L364.25 15.9998L359 21.2498L353.75 15.9998Z" fill="white"/>
</g>
</svg>
