<svg width="223" height="46" viewBox="0 0 223 46" fill="none" xmlns="http://www.w3.org/2000/svg">
<g clip-path="url(#clip0_4_470)">
<path d="M73.3141 27.6049H66.0649L64.9636 30.9234H58.9907L66.4429 10.619H72.9885L80.4112 30.9234H74.4072L73.3141 27.6049ZM69.6895 16.7217L67.5164 23.2825H71.8938L69.6895 16.7217Z" fill="#29539B"/>
<path d="M82.2703 9.61914H87.9519V30.9306H82.2703V9.61914Z" fill="#29539B"/>
<path d="M97.1992 14.5787C98.1448 14.5225 99.0881 14.72 99.9303 15.1504C100.772 15.5809 101.482 16.2283 101.986 17.025V14.7704H107.667V30.7426C107.667 35.0585 105.291 38.8644 99.4329 38.8644C94.36 38.8644 91.2279 36.332 90.8221 32.3329H96.4219C96.6542 33.3676 97.6394 33.9718 99.0892 33.9718C100.683 33.9718 101.989 33.2539 101.989 30.7491V28.6764C101.486 29.4727 100.776 30.1199 99.9342 30.5503C99.0923 30.9807 98.1494 31.1784 97.2041 31.1227C93.3487 31.1227 90.2756 27.9861 90.2756 22.8385C90.2756 17.691 93.3422 14.5787 97.1992 14.5787ZM99.0254 19.4989C98.6017 19.4996 98.1831 19.5899 97.7973 19.7636C97.4115 19.9373 97.0673 20.1904 96.7876 20.5063C96.5079 20.8222 96.2993 21.1935 96.1753 21.5956C96.0513 21.9977 96.0148 22.4214 96.0684 22.8385C96.1433 23.4029 96.3805 23.9338 96.7515 24.3678C97.1225 24.8018 97.6116 25.1205 98.1603 25.2857C98.7091 25.4509 99.2941 25.4556 99.8455 25.2992C100.397 25.1429 100.891 24.8321 101.269 24.4041C101.647 23.9761 101.893 23.449 101.977 22.886C102.061 22.323 101.98 21.7478 101.743 21.2294C101.506 20.7109 101.124 20.2712 100.642 19.9629C100.16 19.6545 99.5988 19.4906 99.0254 19.4907V19.4989Z" fill="#29539B"/>
<path d="M118.478 31.1155C116.839 31.0734 115.249 30.5526 113.907 29.6183C112.564 28.684 111.53 27.3777 110.931 25.8627C110.333 24.3477 110.198 22.6912 110.543 21.1004C110.888 19.5096 111.698 18.0551 112.871 16.9187C114.044 15.7822 115.529 15.0144 117.14 14.7111C118.75 14.4079 120.415 14.5827 121.926 15.2137C123.438 15.8446 124.728 16.9038 125.636 18.2587C126.544 19.6136 127.029 21.2041 127.031 22.8313C127.084 23.9508 126.897 25.0686 126.483 26.1112C126.068 27.1538 125.437 28.0974 124.628 28.8801C123.82 29.6627 122.854 30.2666 121.794 30.6519C120.734 31.0372 119.604 31.1952 118.478 31.1155ZM118.478 26.223C119.927 26.223 121.259 25.159 121.259 22.8281C121.259 20.5248 119.95 19.4608 118.515 19.4608C117.08 19.4608 115.789 20.5248 115.789 22.8281C115.781 25.159 116.998 26.223 118.478 26.223Z" fill="#29539B"/>
<path d="M144.044 14.9199L135.552 26.344H144.044V30.9328H129.173V26.6348L137.577 15.1831H129.173V10.6349H144.044V14.9199Z" fill="#29539B"/>
<path d="M154.449 31.1157C152.259 31.0853 150.169 30.2002 148.631 28.6519C147.093 27.1036 146.23 25.0165 146.23 22.8421C146.23 20.6677 147.093 18.5806 148.631 17.0323C150.169 15.484 152.259 14.5989 154.449 14.5685C155.541 14.4938 156.636 14.6514 157.662 15.0305C158.688 15.4097 159.62 16.0017 160.396 16.7671C161.173 17.5325 161.776 18.4536 162.166 19.4688C162.555 20.4841 162.722 21.5702 162.654 22.6545C162.654 23.0966 162.625 23.5383 162.568 23.9767H151.811C151.928 25.8496 152.942 26.5952 154.214 26.5952C154.641 26.6109 155.063 26.4984 155.425 26.2724C155.787 26.0464 156.072 25.7173 156.243 25.3282H162.298C161.865 27.0448 160.847 28.5597 159.416 29.6149C157.985 30.6701 156.23 31.2005 154.449 31.1157ZM151.841 21.2397H156.852C156.853 20.9308 156.79 20.625 156.665 20.342C156.54 20.059 156.357 19.8051 156.128 19.5965C155.898 19.3879 155.627 19.2294 155.332 19.1311C155.037 19.0328 154.725 18.9969 154.415 19.0257C153.78 18.9929 153.157 19.2059 152.678 19.6198C152.198 20.0336 151.898 20.616 151.843 21.2445L151.841 21.2397Z" fill="#29539B"/>
<path d="M176.051 22.2535C176.083 21.8823 176.037 21.5086 175.916 21.156C175.794 20.8035 175.601 20.4797 175.347 20.2053C175.093 19.9309 174.785 19.7119 174.441 19.562C174.097 19.4122 173.726 19.3348 173.351 19.3348C172.976 19.3348 172.604 19.4122 172.261 19.562C171.917 19.7119 171.609 19.9309 171.355 20.2053C171.101 20.4797 170.907 20.8035 170.786 21.156C170.665 21.5086 170.619 21.8823 170.651 22.2535V30.9243H164.976V14.7701H170.657V17.0799C171.217 16.2993 171.963 15.6677 172.827 15.2413C173.692 14.8149 174.649 14.6067 175.614 14.6353C179.388 14.6353 181.731 17.283 181.731 21.5128V30.934H176.049L176.051 22.2535Z" fill="#29539B"/>
<path d="M184.398 10.3959C184.492 9.58747 184.883 8.84163 185.495 8.30025C186.107 7.75886 186.898 7.45972 187.718 7.45972C188.538 7.45972 189.329 7.75886 189.941 8.30025C190.553 8.84163 190.943 9.58747 191.037 10.3959C190.929 11.1932 190.532 11.9243 189.922 12.4537C189.311 12.9831 188.528 13.2749 187.718 13.2749C186.907 13.2749 186.124 12.9831 185.514 12.4537C184.903 11.9243 184.507 11.1932 184.398 10.3959ZM184.862 14.7702H190.545V30.9244H184.862V14.7702Z" fill="#29539B"/>
<path d="M194.688 19.4606H192.688V14.7695H194.688V10.8531H200.401V14.7695H203.356V19.4606H200.401V24.8713C200.401 25.7338 200.775 26.1074 201.733 26.1074H203.384V30.922H200.921C197.321 30.922 194.688 29.426 194.688 24.7917V19.4606Z" fill="#29539B"/>
<path d="M205.995 9.61914H211.678V17.0717C212.245 16.2842 212.999 15.6486 213.874 15.2219C214.75 14.7953 215.718 14.5908 216.692 14.627C220.403 14.627 222.747 17.2747 222.747 21.5045V30.9306H217.065V22.2599C217.103 21.8856 217.062 21.5075 216.944 21.15C216.826 20.7925 216.634 20.4635 216.38 20.1844C216.126 19.9052 215.815 19.6821 215.469 19.5294C215.123 19.3766 214.748 19.2977 214.369 19.2977C213.99 19.2977 213.615 19.3766 213.269 19.5294C212.922 19.6821 212.612 19.9052 212.358 20.1844C212.104 20.4635 211.912 20.7925 211.794 21.15C211.676 21.5075 211.635 21.8856 211.673 22.2599V30.9306H205.99L205.995 9.61914Z" fill="#29539B"/>
<path d="M13.825 45.8394H3.29481C2.72003 45.8387 2.15543 45.6887 1.65712 45.4044C1.1588 45.12 0.74411 44.7112 0.454248 44.2185C0.164385 43.7259 0.00944004 43.1665 0.00480676 42.5959C0.000173476 42.0254 0.146013 41.4636 0.427836 40.9663L22.3834 2.14756C22.5316 1.88063 22.716 1.63521 22.9316 1.41823C23.1385 1.21383 23.3724 1.03841 23.6271 0.896808C24.1226 0.62344 24.6802 0.47998 25.2471 0.47998C25.814 0.47998 26.3716 0.62344 26.8671 0.896808C27.1213 1.03845 27.3547 1.21388 27.561 1.41823C27.7844 1.63354 27.9761 1.87907 28.1304 2.14756L50.0893 40.9615C50.3713 41.4591 50.5172 42.0213 50.5123 42.5923C50.5075 43.1632 50.3521 43.7229 50.0616 44.2158C49.7712 44.7086 49.3558 45.1173 48.8568 45.4013C48.3578 45.6853 47.7926 45.8347 47.2174 45.8345H36.6954C35.6014 43.7731 33.9542 42.0524 31.9359 40.8629C29.9177 39.6735 27.6071 39.0616 25.2602 39.0951C22.9136 39.0615 20.6034 39.6729 18.5852 40.8618C16.5671 42.0507 14.9196 43.7706 13.825 45.8313V45.8394Z" fill="url(#paint0_linear_4_470)"/>
<path opacity="0.27" d="M22.4807 30.3931L25.4458 26.688H26.9857L24.248 30.3915L22.4807 30.3931Z" fill="url(#paint1_linear_4_470)"/>
<path opacity="0.22" d="M24.8282 21.1857H29.4609L28.1518 22.81L23.6418 22.6996L24.8282 21.1857Z" fill="url(#paint2_linear_4_470)"/>
<path d="M24.8383 21.1967L19.7164 27.6437C19.4677 27.9056 19.3292 28.2519 19.3292 28.6118C19.3292 28.9717 19.4677 29.318 19.7164 29.5799C20.0107 29.9077 20.381 30.1593 20.7953 30.313C21.2096 30.4667 21.6554 30.5178 22.0941 30.4619L25.7989 25.9267L29.4775 21.1967H24.8383Z" fill="white"/>
<path d="M25.4515 26.7148H29.6669C29.6669 26.7148 30.9023 27.0137 31.2231 27.7496C31.4073 28.2399 31.4073 28.7797 31.2231 29.2699C31.2231 29.2699 30.8025 30.3972 29.8158 30.3972H22.506L25.4515 26.7148Z" fill="white"/>
<path d="M21.3853 17.4868H28.6951C29.1452 17.4868 29.5768 17.6643 29.895 17.9802C30.2133 18.2961 30.392 18.7245 30.392 19.1713C30.392 19.3925 30.3482 19.6115 30.2629 19.8159C30.1776 20.0203 30.0526 20.2059 29.895 20.3624C29.7375 20.5188 29.5504 20.6429 29.3445 20.7275C29.1386 20.8122 28.9179 20.8557 28.6951 20.8557H21.3853C21.1625 20.8557 20.9418 20.8122 20.7359 20.7275C20.53 20.6429 20.3429 20.5188 20.1854 20.3624C20.0278 20.2059 19.9028 20.0203 19.8175 19.8159C19.7322 19.6115 19.6884 19.3925 19.6884 19.1713C19.6884 18.7245 19.8671 18.2961 20.1854 17.9802C20.5036 17.6643 20.9352 17.4868 21.3853 17.4868Z" fill="white"/>
</g>
<defs>
<linearGradient id="paint0_linear_4_470" x1="-74.8983" y1="99.6356" x2="-74.8983" y2="99.4996" gradientUnits="userSpaceOnUse">
<stop stop-color="#0E2041"/>
<stop offset="1" stop-color="#29539B"/>
</linearGradient>
<linearGradient id="paint1_linear_4_470" x1="-72.8816" y1="97.6561" x2="-72.9028" y2="97.6861" gradientUnits="userSpaceOnUse">
<stop stop-color="white"/>
<stop offset="1" stop-color="#A7ACAD"/>
</linearGradient>
<linearGradient id="paint2_linear_4_470" x1="-73.4255" y1="95.1733" x2="-73.4255" y2="95.0368" gradientUnits="userSpaceOnUse">
<stop stop-color="#A7ACAD"/>
<stop offset="1" stop-color="white"/>
</linearGradient>
<clipPath id="clip0_4_470">
<rect width="222.75" height="45.36" fill="white" transform="translate(0 0.47998)"/>
</clipPath>
</defs>
</svg>
