<svg width="181" height="260" viewBox="0 0 181 260" fill="none" xmlns="http://www.w3.org/2000/svg">
<path d="M2.27854 68.36V54.752H7.06078C8.01982 54.752 8.81038 54.9075 9.43246 55.2185C10.0675 55.5166 10.5405 55.9313 10.8516 56.4627C11.1626 56.9811 11.3181 57.5643 11.3181 58.2123C11.3181 59.0936 11.0784 59.7869 10.5989 60.2924C10.1323 60.7978 9.56854 61.1477 8.90758 61.3421C9.41302 61.4329 9.8731 61.6337 10.2878 61.9448C10.7025 62.2558 11.0265 62.6446 11.2598 63.1112C11.5061 63.5777 11.6292 64.0897 11.6292 64.6469C11.6292 65.3338 11.4607 65.9624 11.1237 66.5326C10.7868 67.0899 10.2878 67.537 9.62686 67.874C8.9659 68.198 8.16238 68.36 7.2163 68.36H2.27854ZM3.9115 60.7006H6.94414C7.81246 60.7006 8.4799 60.4997 8.94646 60.098C9.41302 59.6833 9.6463 59.113 9.6463 58.3873C9.6463 57.7004 9.41302 57.1496 8.94646 56.7349C8.49286 56.3201 7.80598 56.1128 6.88582 56.1128H3.9115V60.7006ZM3.9115 66.9992H7.04134C7.97446 66.9992 8.69374 66.7853 9.19918 66.3577C9.70462 65.917 9.95734 65.3079 9.95734 64.5303C9.95734 63.7657 9.69166 63.1565 9.1603 62.7029C8.62894 62.2364 7.90966 62.0031 7.00246 62.0031H3.9115V66.9992ZM13.2925 68.36V54.3632H14.9255V68.36H13.2925ZM21.4122 68.5933C20.505 68.5933 19.6885 68.3859 18.9628 67.9712C18.237 67.5565 17.6603 66.9733 17.2326 66.2216C16.8179 65.4569 16.6105 64.5627 16.6105 63.5389C16.6105 62.515 16.8244 61.6273 17.2521 60.8756C17.6797 60.1109 18.2565 59.5213 18.9822 59.1065C19.7209 58.6918 20.5439 58.4845 21.4511 58.4845C22.3583 58.4845 23.1748 58.6918 23.9005 59.1065C24.6263 59.5213 25.1965 60.1109 25.6113 60.8756C26.0389 61.6273 26.2528 62.515 26.2528 63.5389C26.2528 64.5627 26.0389 65.4569 25.6113 66.2216C25.1836 66.9733 24.6004 67.5565 23.8617 67.9712C23.1359 68.3859 22.3194 68.5933 21.4122 68.5933ZM21.4122 67.1936C21.9695 67.1936 22.4879 67.0575 22.9674 66.7853C23.4469 66.5132 23.8357 66.1049 24.1338 65.5606C24.4319 65.0163 24.5809 64.3424 24.5809 63.5389C24.5809 62.7353 24.4319 62.0614 24.1338 61.5171C23.8487 60.9728 23.4664 60.5645 22.9869 60.2924C22.5073 60.0202 21.9954 59.8841 21.4511 59.8841C20.8938 59.8841 20.3754 60.0202 19.8959 60.2924C19.4164 60.5645 19.0276 60.9728 18.7295 61.5171C18.4314 62.0614 18.2824 62.7353 18.2824 63.5389C18.2824 64.3424 18.4314 65.0163 18.7295 65.5606C19.0276 66.1049 19.4099 66.5132 19.8765 66.7853C20.356 67.0575 20.8679 67.1936 21.4122 67.1936ZM31.3327 65.3273C30.7884 65.3273 30.2894 65.2561 29.8358 65.1135L28.8638 66.0272C29.0064 66.1309 29.1813 66.2216 29.3887 66.2993C29.609 66.3641 29.9201 66.4289 30.3218 66.4937C30.7236 66.5456 31.2873 66.6039 32.0131 66.6687C33.3091 66.7594 34.2357 67.0575 34.793 67.5629C35.3503 68.0684 35.6289 68.7293 35.6289 69.5458C35.6289 70.1031 35.4734 70.6345 35.1624 71.1399C34.8643 71.6453 34.3977 72.0601 33.7627 72.3841C33.1406 72.7081 32.3371 72.8701 31.3521 72.8701C30.4838 72.8701 29.7127 72.7534 29.0388 72.5201C28.3648 72.2998 27.84 71.9564 27.4641 71.4898C27.0883 71.0362 26.9004 70.4595 26.9004 69.7597C26.9004 69.3968 26.9976 69.0015 27.192 68.5738C27.3864 68.1591 27.7492 67.7638 28.2806 67.388C27.9955 67.2713 27.7492 67.1482 27.5419 67.0186C27.3475 66.8761 27.166 66.7205 26.9976 66.5521V66.1049L28.65 64.472C27.8853 63.824 27.503 62.9686 27.503 61.9059C27.503 61.2709 27.652 60.6941 27.9501 60.1757C28.2482 59.6573 28.6824 59.2491 29.2526 58.951C29.8229 58.64 30.5162 58.4845 31.3327 58.4845C31.89 58.4845 32.3954 58.5622 32.849 58.7177H36.4065V59.9425L34.5986 60.0202C34.9745 60.5645 35.1624 61.1931 35.1624 61.9059C35.1624 62.5409 35.0069 63.1177 34.6958 63.6361C34.3977 64.1545 33.9636 64.5692 33.3933 64.8802C32.8361 65.1783 32.1492 65.3273 31.3327 65.3273ZM31.3327 63.986C32.0196 63.986 32.5639 63.811 32.9657 63.4611C33.3804 63.0982 33.5877 62.5798 33.5877 61.9059C33.5877 61.2449 33.3804 60.7395 32.9657 60.3896C32.5639 60.0267 32.0196 59.8453 31.3327 59.8453C30.6329 59.8453 30.0756 60.0267 29.6609 60.3896C29.2591 60.7395 29.0582 61.2449 29.0582 61.9059C29.0582 62.5798 29.2591 63.0982 29.6609 63.4611C30.0756 63.811 30.6329 63.986 31.3327 63.986ZM28.4944 69.6041C28.4944 70.2521 28.7666 70.7317 29.3109 71.0427C29.8553 71.3667 30.5357 71.5287 31.3521 71.5287C32.1557 71.5287 32.7972 71.3537 33.2767 71.0038C33.7692 70.6539 34.0154 70.1873 34.0154 69.6041C34.0154 69.1894 33.8469 68.8265 33.51 68.5155C33.173 68.2174 32.5509 68.0425 31.6437 67.9906C30.9309 67.9388 30.3153 67.874 29.7969 67.7962C29.2656 68.0813 28.9157 68.3859 28.7472 68.7099C28.5787 69.0469 28.4944 69.3449 28.4944 69.6041ZM41.359 68.5933C40.2056 68.5933 39.2465 68.3017 38.4819 67.7185C37.7173 67.1353 37.2701 66.3447 37.1405 65.3468H38.8124C38.9161 65.8522 39.1817 66.2929 39.6094 66.6687C40.0501 67.0316 40.6397 67.213 41.3785 67.213C42.0653 67.213 42.5708 67.0705 42.8948 66.7853C43.2188 66.4873 43.3808 66.1373 43.3808 65.7356C43.3808 65.1524 43.1669 64.7636 42.7393 64.5692C42.3245 64.3748 41.7349 64.1998 40.9702 64.0443C40.4518 63.9406 39.9334 63.7916 39.415 63.5972C38.8966 63.4028 38.4625 63.1306 38.1125 62.7807C37.7626 62.4178 37.5877 61.9448 37.5877 61.3616C37.5877 60.5192 37.8987 59.8323 38.5208 59.3009C39.1558 58.7566 40.0112 58.4845 41.0869 58.4845C42.1107 58.4845 42.9466 58.7437 43.5946 59.2621C44.2556 59.7675 44.6379 60.4933 44.7416 61.4393H43.1281C43.0633 60.9469 42.8494 60.5645 42.4865 60.2924C42.1366 60.0073 41.6636 59.8647 41.0674 59.8647C40.4842 59.8647 40.0306 59.9878 39.7066 60.2341C39.3956 60.4803 39.2401 60.8043 39.2401 61.2061C39.2401 61.5949 39.4409 61.8994 39.8427 62.1197C40.2574 62.3401 40.8147 62.528 41.5145 62.6835C42.1107 62.8131 42.6745 62.9751 43.2058 63.1695C43.7501 63.3509 44.1908 63.6296 44.5277 64.0054C44.8777 64.3683 45.0526 64.8997 45.0526 65.5995C45.0656 66.4678 44.7351 67.1871 44.0612 67.7573C43.4002 68.3146 42.4995 68.5933 41.359 68.5933Z" fill="black"/>
<path d="M2.27854 113.72V100.112H6.74974C7.81246 100.112 8.68726 100.287 9.37414 100.637C10.061 100.987 10.5665 101.46 10.8905 102.056C11.2274 102.652 11.3959 103.326 11.3959 104.078C11.3959 104.817 11.2339 105.484 10.9099 106.08C10.5859 106.676 10.0805 107.156 9.39358 107.519C8.7067 107.869 7.82542 108.044 6.74974 108.044H3.9115V113.72H2.27854ZM3.9115 106.663H6.71086C7.7995 106.663 8.57062 106.437 9.02422 105.983C9.49078 105.516 9.72406 104.881 9.72406 104.078C9.72406 103.261 9.49078 102.626 9.02422 102.173C8.57062 101.706 7.7995 101.473 6.71086 101.473H3.9115V106.663ZM12.8559 113.72V104.078H14.3333L14.4694 105.925C14.7675 105.29 15.2211 104.784 15.8302 104.408C16.4393 104.032 17.191 103.845 18.0852 103.845V105.555H17.6381C17.0679 105.555 16.543 105.659 16.0635 105.866C15.584 106.061 15.2016 106.398 14.9165 106.877C14.6314 107.357 14.4888 108.018 14.4888 108.86V113.72H12.8559ZM20.3263 101.939C20.0023 101.939 19.7301 101.836 19.5098 101.628C19.3025 101.408 19.1988 101.136 19.1988 100.812C19.1988 100.501 19.3025 100.242 19.5098 100.034C19.7301 99.827 20.0023 99.7233 20.3263 99.7233C20.6373 99.7233 20.903 99.827 21.1233 100.034C21.3437 100.242 21.4538 100.501 21.4538 100.812C21.4538 101.136 21.3437 101.408 21.1233 101.628C20.903 101.836 20.6373 101.939 20.3263 101.939ZM19.5098 113.72V104.078H21.1428V113.72H19.5098ZM26.1828 113.72L22.528 104.078H24.2388L27.1353 112.145L30.0513 104.078H31.7232L28.0684 113.72H26.1828ZM35.6713 113.953C34.8678 113.953 34.2003 113.817 33.669 113.545C33.1376 113.273 32.7423 112.91 32.4831 112.456C32.2239 112.003 32.0943 111.51 32.0943 110.979C32.0943 109.994 32.4702 109.236 33.2219 108.705C33.9735 108.173 34.9974 107.908 36.2934 107.908H38.8983V107.791C38.8983 106.948 38.678 106.313 38.2374 105.886C37.7967 105.445 37.2071 105.225 36.4683 105.225C35.8333 105.225 35.2825 105.387 34.8159 105.711C34.3623 106.022 34.0772 106.482 33.9606 107.091H32.2887C32.3535 106.391 32.5868 105.802 32.9886 105.322C33.4033 104.842 33.9152 104.48 34.5243 104.233C35.1335 103.974 35.7815 103.845 36.4683 103.845C37.8162 103.845 38.8271 104.207 39.501 104.933C40.1879 105.646 40.5313 106.599 40.5313 107.791V113.72H39.0733L38.9761 111.99C38.7039 112.534 38.3022 113.001 37.7708 113.39C37.2524 113.765 36.5526 113.953 35.6713 113.953ZM35.924 112.573C36.5461 112.573 37.0775 112.411 37.5181 112.087C37.9717 111.763 38.3151 111.342 38.5484 110.824C38.7817 110.305 38.8983 109.761 38.8983 109.191V109.171H36.4295C35.4704 109.171 34.79 109.34 34.3883 109.677C33.9995 110.001 33.8051 110.409 33.8051 110.901C33.8051 111.407 33.9865 111.815 34.3494 112.126C34.7252 112.424 35.2501 112.573 35.924 112.573ZM46.8302 113.953C45.91 113.953 45.0806 113.746 44.3419 113.331C43.6161 112.904 43.0394 112.314 42.6117 111.562C42.197 110.798 41.9896 109.91 41.9896 108.899C41.9896 107.888 42.197 107.007 42.6117 106.255C43.0394 105.49 43.6161 104.901 44.3419 104.486C45.0806 104.058 45.91 103.845 46.8302 103.845C47.9707 103.845 48.9297 104.143 49.7073 104.739C50.4979 105.335 50.9968 106.132 51.2042 107.13H49.5323C49.4027 106.534 49.0852 106.074 48.5798 105.75C48.0743 105.413 47.4847 105.244 46.8107 105.244C46.2664 105.244 45.7545 105.38 45.275 105.652C44.7955 105.925 44.4067 106.333 44.1086 106.877C43.8105 107.422 43.6615 108.095 43.6615 108.899C43.6615 109.702 43.8105 110.376 44.1086 110.921C44.4067 111.465 44.7955 111.88 45.275 112.165C45.7545 112.437 46.2664 112.573 46.8107 112.573C47.4847 112.573 48.0743 112.411 48.5798 112.087C49.0852 111.75 49.4027 111.277 49.5323 110.668H51.2042C51.0098 111.64 50.5173 112.431 49.7267 113.04C48.9362 113.649 47.9707 113.953 46.8302 113.953ZM53.9513 117.997L56.3424 112.787H55.7787L51.949 104.078H53.718L56.9062 111.582L60.2887 104.078H61.98L55.662 117.997H53.9513ZM67.7792 113.72V100.112H72.2504C73.3131 100.112 74.1879 100.287 74.8748 100.637C75.5617 100.987 76.0671 101.46 76.3911 102.056C76.7281 102.652 76.8966 103.326 76.8966 104.078C76.8966 104.817 76.7346 105.484 76.4106 106.08C76.0866 106.676 75.5811 107.156 74.8942 107.519C74.2074 107.869 73.3261 108.044 72.2504 108.044H69.4122V113.72H67.7792ZM69.4122 106.663H72.2115C73.3002 106.663 74.0713 106.437 74.5249 105.983C74.9914 105.516 75.2247 104.881 75.2247 104.078C75.2247 103.261 74.9914 102.626 74.5249 102.173C74.0713 101.706 73.3002 101.473 72.2115 101.473H69.4122V106.663ZM82.1805 113.953C81.2733 113.953 80.4568 113.746 79.731 113.331C79.0053 112.917 78.4285 112.333 78.0009 111.582C77.5861 110.817 77.3788 109.923 77.3788 108.899C77.3788 107.875 77.5926 106.987 78.0203 106.236C78.448 105.471 79.0247 104.881 79.7505 104.467C80.4892 104.052 81.3121 103.845 82.2193 103.845C83.1265 103.845 83.943 104.052 84.6688 104.467C85.3945 104.881 85.9648 105.471 86.3795 106.236C86.8072 106.987 87.021 107.875 87.021 108.899C87.021 109.923 86.8072 110.817 86.3795 111.582C85.9518 112.333 85.3686 112.917 84.6299 113.331C83.9041 113.746 83.0877 113.953 82.1805 113.953ZM82.1805 112.554C82.7377 112.554 83.2561 112.418 83.7357 112.145C84.2152 111.873 84.604 111.465 84.9021 110.921C85.2001 110.376 85.3492 109.702 85.3492 108.899C85.3492 108.095 85.2001 107.422 84.9021 106.877C84.6169 106.333 84.2346 105.925 83.7551 105.652C83.2756 105.38 82.7637 105.244 82.2193 105.244C81.6621 105.244 81.1437 105.38 80.6641 105.652C80.1846 105.925 79.7958 106.333 79.4977 106.877C79.1997 107.422 79.0506 108.095 79.0506 108.899C79.0506 109.702 79.1997 110.376 79.4977 110.921C79.7958 111.465 80.1781 111.873 80.6447 112.145C81.1242 112.418 81.6361 112.554 82.1805 112.554ZM88.7083 113.72V99.7233H90.3413V113.72H88.7083ZM93.426 101.939C93.102 101.939 92.8299 101.836 92.6096 101.628C92.4022 101.408 92.2985 101.136 92.2985 100.812C92.2985 100.501 92.4022 100.242 92.6096 100.034C92.8299 99.827 93.102 99.7233 93.426 99.7233C93.7371 99.7233 94.0028 99.827 94.2231 100.034C94.4434 100.242 94.5536 100.501 94.5536 100.812C94.5536 101.136 94.4434 101.408 94.2231 101.628C94.0028 101.836 93.7371 101.939 93.426 101.939ZM92.6096 113.72V104.078H94.2425V113.72H92.6096ZM100.935 113.953C100.015 113.953 99.1853 113.746 98.4466 113.331C97.7208 112.904 97.1441 112.314 96.7164 111.562C96.3017 110.798 96.0943 109.91 96.0943 108.899C96.0943 107.888 96.3017 107.007 96.7164 106.255C97.1441 105.49 97.7208 104.901 98.4466 104.486C99.1853 104.058 100.015 103.845 100.935 103.845C102.075 103.845 103.034 104.143 103.812 104.739C104.603 105.335 105.102 106.132 105.309 107.13H103.637C103.507 106.534 103.19 106.074 102.684 105.75C102.179 105.413 101.589 105.244 100.915 105.244C100.371 105.244 99.8592 105.38 99.3797 105.652C98.9002 105.925 98.5114 106.333 98.2133 106.877C97.9152 107.422 97.7662 108.095 97.7662 108.899C97.7662 109.702 97.9152 110.376 98.2133 110.921C98.5114 111.465 98.9002 111.88 99.3797 112.165C99.8592 112.437 100.371 112.573 100.915 112.573C101.589 112.573 102.179 112.411 102.684 112.087C103.19 111.75 103.507 111.277 103.637 110.668H105.309C105.114 111.64 104.622 112.431 103.831 113.04C103.041 113.649 102.075 113.953 100.935 113.953ZM108.056 117.997L110.447 112.787H109.883L106.054 104.078H107.823L111.011 111.582L114.393 104.078H116.085L109.767 117.997H108.056Z" fill="black"/>
<path d="M5.4667 159.08V146.813H1.40374V145.472H11.1626V146.813H7.09966V159.08H5.4667ZM15.0647 159.313C14.1446 159.313 13.3281 159.106 12.6153 158.691C11.9025 158.264 11.3387 157.674 10.924 156.922C10.5223 156.171 10.3214 155.283 10.3214 154.259C10.3214 153.248 10.5223 152.367 10.924 151.615C11.3258 150.85 11.8831 150.261 12.5959 149.846C13.3216 149.418 14.1575 149.205 15.1036 149.205C16.0367 149.205 16.8403 149.418 17.5142 149.846C18.2011 150.261 18.7259 150.812 19.0888 151.498C19.4517 152.185 19.6332 152.924 19.6332 153.715C19.6332 153.857 19.6267 154 19.6137 154.142C19.6137 154.285 19.6137 154.447 19.6137 154.628H11.9349C11.9738 155.367 12.1423 155.983 12.4403 156.475C12.7514 156.955 13.1337 157.318 13.5873 157.564C14.0539 157.81 14.5463 157.933 15.0647 157.933C15.7387 157.933 16.3024 157.778 16.756 157.467C17.2096 157.156 17.5401 156.734 17.7475 156.203H19.361C19.1018 157.097 18.6028 157.842 17.8641 158.439C17.1383 159.022 16.2052 159.313 15.0647 159.313ZM15.0647 150.585C14.2871 150.585 13.5938 150.825 12.9847 151.304C12.3885 151.771 12.0451 152.458 11.9543 153.365H18.0196C17.9807 152.496 17.6827 151.816 17.1254 151.324C16.5681 150.831 15.8812 150.585 15.0647 150.585ZM21.2143 159.08V149.438H22.6918L22.8278 151.285C23.1259 150.65 23.5795 150.144 24.1886 149.768C24.7978 149.392 25.5494 149.205 26.4437 149.205V150.915H25.9966C25.4263 150.915 24.9014 151.019 24.4219 151.226C23.9424 151.421 23.5601 151.758 23.275 152.237C22.9898 152.717 22.8473 153.378 22.8473 154.22V159.08H21.2143ZM27.6933 159.08V149.438H29.1708L29.2874 150.838C29.5984 150.319 30.0132 149.917 30.5316 149.632C31.05 149.347 31.6332 149.205 32.2812 149.205C33.0458 149.205 33.7003 149.36 34.2446 149.671C34.8019 149.982 35.2296 150.455 35.5276 151.09C35.8646 150.507 36.3247 150.047 36.9079 149.71C37.504 149.373 38.1456 149.205 38.8324 149.205C39.9859 149.205 40.906 149.554 41.5929 150.254C42.2798 150.941 42.6232 152.004 42.6232 153.442V159.08H41.0097V153.617C41.0097 152.62 40.8088 151.868 40.4071 151.362C40.0053 150.857 39.4286 150.604 38.6769 150.604C37.8993 150.604 37.2513 150.909 36.7329 151.518C36.2275 152.114 35.9748 152.969 35.9748 154.084V159.08H34.3418V153.617C34.3418 152.62 34.1409 151.868 33.7392 151.362C33.3374 150.857 32.7607 150.604 32.009 150.604C31.2444 150.604 30.6028 150.909 30.0844 151.518C29.579 152.114 29.3263 152.969 29.3263 154.084V159.08H27.6933ZM48.1934 159.313C47.04 159.313 46.0809 159.022 45.3163 158.439C44.5516 157.855 44.1045 157.065 43.9749 156.067H45.6468C45.7504 156.572 46.0161 157.013 46.4438 157.389C46.8844 157.752 47.4741 157.933 48.2128 157.933C48.8997 157.933 49.4052 157.791 49.7292 157.505C50.0532 157.207 50.2152 156.857 50.2152 156.456C50.2152 155.872 50.0013 155.484 49.5736 155.289C49.1589 155.095 48.5692 154.92 47.8046 154.764C47.2862 154.661 46.7678 154.512 46.2494 154.317C45.731 154.123 45.2968 153.851 44.9469 153.501C44.597 153.138 44.422 152.665 44.422 152.082C44.422 151.239 44.7331 150.552 45.3552 150.021C45.9902 149.477 46.8456 149.205 47.9212 149.205C48.9451 149.205 49.781 149.464 50.429 149.982C51.09 150.488 51.4723 151.213 51.576 152.159H49.9624C49.8976 151.667 49.6838 151.285 49.3209 151.012C48.971 150.727 48.498 150.585 47.9018 150.585C47.3186 150.585 46.865 150.708 46.541 150.954C46.23 151.2 46.0744 151.524 46.0744 151.926C46.0744 152.315 46.2753 152.62 46.6771 152.84C47.0918 153.06 47.6491 153.248 48.3489 153.404C48.9451 153.533 49.5088 153.695 50.0402 153.89C50.5845 154.071 51.0252 154.35 51.3621 154.726C51.712 155.088 51.887 155.62 51.887 156.32C51.9 157.188 51.5695 157.907 50.8956 158.477C50.2346 159.035 49.3339 159.313 48.1934 159.313ZM62.3195 159.313C61.3863 159.313 60.5634 159.145 59.8506 158.808C59.1507 158.458 58.5999 157.978 58.1982 157.369C57.8094 156.747 57.615 156.015 57.615 155.173C57.615 154.252 57.8807 153.436 58.412 152.723C58.9563 151.997 59.7404 151.427 60.7643 151.012C60.3236 150.533 60.0061 150.079 59.8117 149.652C59.6173 149.211 59.5201 148.738 59.5201 148.233C59.5201 147.364 59.8247 146.651 60.4338 146.094C61.0559 145.524 61.9047 145.239 62.9804 145.239C63.6803 145.239 64.2894 145.375 64.8078 145.647C65.3262 145.906 65.7279 146.269 66.0131 146.736C66.2982 147.202 66.4278 147.734 66.4019 148.33H64.7883C64.8013 147.747 64.6199 147.306 64.244 147.008C63.8811 146.71 63.4599 146.561 62.9804 146.561C62.3972 146.561 61.9436 146.716 61.6196 147.027C61.2956 147.338 61.1336 147.734 61.1336 148.213C61.1336 148.628 61.2438 149.03 61.4641 149.418C61.6974 149.807 62.0408 150.241 62.4944 150.721L66.7907 155.056C67.1665 154.512 67.5747 153.857 68.0154 153.093L68.618 152.043H70.3482L69.4928 153.559C68.9226 154.583 68.3783 155.438 67.8599 156.125L70.7953 159.08H68.7347L66.9267 157.253C66.2399 157.991 65.5271 158.523 64.7883 158.847C64.0496 159.158 63.2267 159.313 62.3195 159.313ZM59.2479 155.114C59.2479 155.918 59.5331 156.585 60.1033 157.117C60.6735 157.648 61.4187 157.914 62.3389 157.914C63.0258 157.914 63.6479 157.784 64.2051 157.525C64.7754 157.253 65.3327 156.812 65.877 156.203L61.7557 152.023C60.9003 152.36 60.2653 152.788 59.8506 153.306C59.4488 153.825 59.2479 154.427 59.2479 155.114ZM82.4801 159.313C81.1452 159.313 79.9918 159.022 79.0198 158.439C78.0607 157.842 77.3155 157.019 76.7842 155.97C76.2528 154.907 75.9871 153.676 75.9871 152.276C75.9871 150.889 76.2528 149.671 76.7842 148.621C77.3155 147.559 78.0607 146.729 79.0198 146.133C79.9918 145.537 81.1452 145.239 82.4801 145.239C84.0353 145.239 85.2989 145.615 86.2709 146.366C87.2559 147.105 87.8844 148.142 88.1566 149.477H86.3487C86.1413 148.634 85.7136 147.96 85.0656 147.455C84.4306 146.937 83.5687 146.677 82.4801 146.677C81.5081 146.677 80.6592 146.904 79.9335 147.358C79.2077 147.798 78.6439 148.44 78.2422 149.282C77.8534 150.112 77.659 151.11 77.659 152.276C77.659 153.442 77.8534 154.447 78.2422 155.289C78.6439 156.119 79.2077 156.76 79.9335 157.214C80.6592 157.654 81.5081 157.875 82.4801 157.875C83.5687 157.875 84.4306 157.629 85.0656 157.136C85.7136 156.631 86.1413 155.963 86.3487 155.134H88.1566C87.8844 156.443 87.2559 157.467 86.2709 158.205C85.2989 158.944 84.0353 159.313 82.4801 159.313ZM94.2166 159.313C93.3094 159.313 92.4929 159.106 91.7671 158.691C91.0414 158.277 90.4646 157.693 90.037 156.942C89.6222 156.177 89.4149 155.283 89.4149 154.259C89.4149 153.235 89.6287 152.347 90.0564 151.596C90.4841 150.831 91.0608 150.241 91.7866 149.827C92.5253 149.412 93.3482 149.205 94.2554 149.205C95.1626 149.205 95.9791 149.412 96.7049 149.827C97.4306 150.241 98.0009 150.831 98.4156 151.596C98.8433 152.347 99.0571 153.235 99.0571 154.259C99.0571 155.283 98.8433 156.177 98.4156 156.942C97.9879 157.693 97.4047 158.277 96.666 158.691C95.9402 159.106 95.1238 159.313 94.2166 159.313ZM94.2166 157.914C94.7738 157.914 95.2922 157.778 95.7718 157.505C96.2513 157.233 96.6401 156.825 96.9382 156.281C97.2362 155.736 97.3853 155.062 97.3853 154.259C97.3853 153.455 97.2362 152.782 96.9382 152.237C96.653 151.693 96.2707 151.285 95.7912 151.012C95.3117 150.74 94.7998 150.604 94.2554 150.604C93.6982 150.604 93.1798 150.74 92.7002 151.012C92.2207 151.285 91.8319 151.693 91.5338 152.237C91.2358 152.782 91.0867 153.455 91.0867 154.259C91.0867 155.062 91.2358 155.736 91.5338 156.281C91.8319 156.825 92.2142 157.233 92.6808 157.505C93.1603 157.778 93.6722 157.914 94.2166 157.914ZM100.744 159.08V149.438H102.222L102.319 151.168C102.63 150.559 103.077 150.079 103.66 149.729C104.244 149.38 104.905 149.205 105.643 149.205C106.784 149.205 107.691 149.554 108.365 150.254C109.052 150.941 109.395 152.004 109.395 153.442V159.08H107.762V153.617C107.762 151.609 106.933 150.604 105.274 150.604C104.445 150.604 103.751 150.909 103.194 151.518C102.65 152.114 102.377 152.969 102.377 154.084V159.08H100.744ZM115.66 159.313C114.701 159.313 113.859 159.093 113.133 158.652C112.42 158.212 111.863 157.609 111.461 156.844C111.072 156.08 110.878 155.212 110.878 154.24C110.878 153.268 111.079 152.406 111.48 151.654C111.882 150.889 112.44 150.293 113.152 149.866C113.865 149.425 114.708 149.205 115.68 149.205C116.47 149.205 117.17 149.367 117.779 149.691C118.388 150.015 118.861 150.468 119.198 151.051V145.083H120.831V159.08H119.354L119.198 157.486C118.887 157.953 118.44 158.374 117.857 158.75C117.274 159.125 116.541 159.313 115.66 159.313ZM115.835 157.894C116.483 157.894 117.053 157.745 117.546 157.447C118.051 157.136 118.44 156.708 118.712 156.164C118.997 155.62 119.14 154.985 119.14 154.259C119.14 153.533 118.997 152.898 118.712 152.354C118.44 151.81 118.051 151.388 117.546 151.09C117.053 150.779 116.483 150.624 115.835 150.624C115.2 150.624 114.63 150.779 114.124 151.09C113.632 151.388 113.243 151.81 112.958 152.354C112.686 152.898 112.55 153.533 112.55 154.259C112.55 154.985 112.686 155.62 112.958 156.164C113.243 156.708 113.632 157.136 114.124 157.447C114.63 157.745 115.2 157.894 115.835 157.894ZM123.901 147.299C123.577 147.299 123.305 147.196 123.085 146.988C122.877 146.768 122.774 146.496 122.774 146.172C122.774 145.861 122.877 145.602 123.085 145.394C123.305 145.187 123.577 145.083 123.901 145.083C124.212 145.083 124.478 145.187 124.698 145.394C124.919 145.602 125.029 145.861 125.029 146.172C125.029 146.496 124.919 146.768 124.698 146.988C124.478 147.196 124.212 147.299 123.901 147.299ZM123.085 159.08V149.438H124.718V159.08H123.085ZM130.788 159.08C129.907 159.08 129.213 158.866 128.708 158.439C128.203 158.011 127.95 157.24 127.95 156.125V150.818H126.278V149.438H127.95L128.164 147.124H129.583V149.438H132.421V150.818H129.583V156.125C129.583 156.734 129.706 157.149 129.952 157.369C130.198 157.577 130.633 157.68 131.255 157.68H132.266V159.08H130.788ZM134.904 147.299C134.58 147.299 134.308 147.196 134.087 146.988C133.88 146.768 133.776 146.496 133.776 146.172C133.776 145.861 133.88 145.602 134.087 145.394C134.308 145.187 134.58 145.083 134.904 145.083C135.215 145.083 135.481 145.187 135.701 145.394C135.921 145.602 136.031 145.861 136.031 146.172C136.031 146.496 135.921 146.768 135.701 146.988C135.481 147.196 135.215 147.299 134.904 147.299ZM134.087 159.08V149.438H135.72V159.08H134.087ZM142.374 159.313C141.467 159.313 140.65 159.106 139.924 158.691C139.199 158.277 138.622 157.693 138.194 156.942C137.78 156.177 137.572 155.283 137.572 154.259C137.572 153.235 137.786 152.347 138.214 151.596C138.641 150.831 139.218 150.241 139.944 149.827C140.683 149.412 141.506 149.205 142.413 149.205C143.32 149.205 144.136 149.412 144.862 149.827C145.588 150.241 146.158 150.831 146.573 151.596C147.001 152.347 147.214 153.235 147.214 154.259C147.214 155.283 147.001 156.177 146.573 156.942C146.145 157.693 145.562 158.277 144.823 158.691C144.098 159.106 143.281 159.313 142.374 159.313ZM142.374 157.914C142.931 157.914 143.45 157.778 143.929 157.505C144.409 157.233 144.797 156.825 145.095 156.281C145.394 155.736 145.543 155.062 145.543 154.259C145.543 153.455 145.394 152.782 145.095 152.237C144.81 151.693 144.428 151.285 143.948 151.012C143.469 150.74 142.957 150.604 142.413 150.604C141.855 150.604 141.337 150.74 140.858 151.012C140.378 151.285 139.989 151.693 139.691 152.237C139.393 152.782 139.244 153.455 139.244 154.259C139.244 155.062 139.393 155.736 139.691 156.281C139.989 156.825 140.372 157.233 140.838 157.505C141.318 157.778 141.83 157.914 142.374 157.914ZM148.902 159.08V149.438H150.379L150.476 151.168C150.787 150.559 151.235 150.079 151.818 149.729C152.401 149.38 153.062 149.205 153.801 149.205C154.941 149.205 155.848 149.554 156.522 150.254C157.209 150.941 157.553 152.004 157.553 153.442V159.08H155.92V153.617C155.92 151.609 155.09 150.604 153.431 150.604C152.602 150.604 151.908 150.909 151.351 151.518C150.807 152.114 150.535 152.969 150.535 154.084V159.08H148.902ZM163.137 159.313C161.984 159.313 161.025 159.022 160.26 158.439C159.495 157.855 159.048 157.065 158.919 156.067H160.59C160.694 156.572 160.96 157.013 161.387 157.389C161.828 157.752 162.418 157.933 163.156 157.933C163.843 157.933 164.349 157.791 164.673 157.505C164.997 157.207 165.159 156.857 165.159 156.456C165.159 155.872 164.945 155.484 164.517 155.289C164.103 155.095 163.513 154.92 162.748 154.764C162.23 154.661 161.711 154.512 161.193 154.317C160.675 154.123 160.24 153.851 159.891 153.501C159.541 153.138 159.366 152.665 159.366 152.082C159.366 151.239 159.677 150.552 160.299 150.021C160.934 149.477 161.789 149.205 162.865 149.205C163.889 149.205 164.725 149.464 165.373 149.982C166.034 150.488 166.416 151.213 166.52 152.159H164.906C164.841 151.667 164.627 151.285 164.265 151.012C163.915 150.727 163.442 150.585 162.845 150.585C162.262 150.585 161.809 150.708 161.485 150.954C161.174 151.2 161.018 151.524 161.018 151.926C161.018 152.315 161.219 152.62 161.621 152.84C162.035 153.06 162.593 153.248 163.293 153.404C163.889 153.533 164.452 153.695 164.984 153.89C165.528 154.071 165.969 154.35 166.306 154.726C166.656 155.088 166.831 155.62 166.831 156.32C166.844 157.188 166.513 157.907 165.839 158.477C165.178 159.035 164.277 159.313 163.137 159.313Z" fill="black"/>
<path d="M2.27854 204.44V190.832H6.74974C7.81246 190.832 8.68726 191.007 9.37414 191.357C10.061 191.707 10.5665 192.18 10.8905 192.776C11.2274 193.372 11.3959 194.046 11.3959 194.798C11.3959 195.537 11.2339 196.204 10.9099 196.8C10.5859 197.396 10.0805 197.876 9.39358 198.239C8.7067 198.589 7.82542 198.764 6.74974 198.764H3.9115V204.44H2.27854ZM3.9115 197.383H6.71086C7.7995 197.383 8.57062 197.157 9.02422 196.703C9.49078 196.237 9.72406 195.601 9.72406 194.798C9.72406 193.981 9.49078 193.346 9.02422 192.893C8.57062 192.426 7.7995 192.193 6.71086 192.193H3.9115V197.383ZM12.8559 204.44V194.798H14.3333L14.4694 196.645C14.7675 196.01 15.2211 195.504 15.8302 195.128C16.4393 194.753 17.191 194.565 18.0852 194.565V196.275H17.6381C17.0679 196.275 16.543 196.379 16.0635 196.586C15.584 196.781 15.2016 197.118 14.9165 197.597C14.6314 198.077 14.4888 198.738 14.4888 199.58V204.44H12.8559ZM20.3263 192.66C20.0023 192.66 19.7301 192.556 19.5098 192.349C19.3025 192.128 19.1988 191.856 19.1988 191.532C19.1988 191.221 19.3025 190.962 19.5098 190.754C19.7301 190.547 20.0023 190.443 20.3263 190.443C20.6373 190.443 20.903 190.547 21.1233 190.754C21.3437 190.962 21.4538 191.221 21.4538 191.532C21.4538 191.856 21.3437 192.128 21.1233 192.349C20.903 192.556 20.6373 192.66 20.3263 192.66ZM19.5098 204.44V194.798H21.1428V204.44H19.5098ZM27.8352 204.673C26.915 204.673 26.0856 204.466 25.3468 204.051C24.6211 203.624 24.0444 203.034 23.6167 202.282C23.202 201.518 22.9946 200.63 22.9946 199.619C22.9946 198.608 23.202 197.727 23.6167 196.975C24.0444 196.211 24.6211 195.621 25.3468 195.206C26.0856 194.779 26.915 194.565 27.8352 194.565C28.9756 194.565 29.9347 194.863 30.7123 195.459C31.5028 196.055 32.0018 196.852 32.2092 197.85H30.5373C30.4077 197.254 30.0902 196.794 29.5848 196.47C29.0793 196.133 28.4896 195.964 27.8157 195.964C27.2714 195.964 26.7595 196.1 26.28 196.373C25.8004 196.645 25.4116 197.053 25.1136 197.597C24.8155 198.142 24.6664 198.816 24.6664 199.619C24.6664 200.423 24.8155 201.097 25.1136 201.641C25.4116 202.185 25.8004 202.6 26.28 202.885C26.7595 203.157 27.2714 203.293 27.8157 203.293C28.4896 203.293 29.0793 203.131 29.5848 202.807C30.0902 202.47 30.4077 201.997 30.5373 201.388H32.2092C32.0148 202.36 31.5223 203.151 30.7317 203.76C29.9412 204.369 28.9756 204.673 27.8352 204.673ZM38.2416 204.673C37.3215 204.673 36.505 204.466 35.7922 204.051C35.0794 203.624 34.5156 203.034 34.1009 202.282C33.6992 201.531 33.4983 200.643 33.4983 199.619C33.4983 198.608 33.6992 197.727 34.1009 196.975C34.5027 196.211 35.06 195.621 35.7728 195.206C36.4985 194.779 37.3344 194.565 38.2805 194.565C39.2136 194.565 40.0172 194.779 40.6911 195.206C41.378 195.621 41.9028 196.172 42.2657 196.859C42.6286 197.545 42.81 198.284 42.81 199.075C42.81 199.217 42.8036 199.36 42.7906 199.502C42.7906 199.645 42.7906 199.807 42.7906 199.988H35.1118C35.1507 200.727 35.3192 201.343 35.6172 201.835C35.9283 202.315 36.3106 202.678 36.7642 202.924C37.2308 203.17 37.7232 203.293 38.2416 203.293C38.9156 203.293 39.4793 203.138 39.9329 202.827C40.3865 202.516 40.717 202.094 40.9244 201.563H42.5379C42.2787 202.457 41.7797 203.203 41.041 203.799C40.3152 204.382 39.3821 204.673 38.2416 204.673ZM38.2416 195.945C37.464 195.945 36.7707 196.185 36.1616 196.664C35.5654 197.131 35.222 197.818 35.1312 198.725H41.1965C41.1576 197.857 40.8596 197.176 40.3023 196.684C39.745 196.191 39.0581 195.945 38.2416 195.945ZM53.0741 204.673C52.1409 204.673 51.318 204.505 50.6052 204.168C49.9053 203.818 49.3545 203.339 48.9528 202.729C48.564 202.107 48.3696 201.375 48.3696 200.533C48.3696 199.613 48.6353 198.796 49.1666 198.083C49.7109 197.358 50.495 196.787 51.5189 196.373C51.0782 195.893 50.7607 195.439 50.5663 195.012C50.3719 194.571 50.2747 194.098 50.2747 193.593C50.2747 192.724 50.5793 192.012 51.1884 191.454C51.8105 190.884 52.6593 190.599 53.735 190.599C54.4349 190.599 55.044 190.735 55.5624 191.007C56.0808 191.266 56.4825 191.629 56.7677 192.096C57.0528 192.562 57.1824 193.094 57.1565 193.69H55.5429C55.5559 193.107 55.3745 192.666 54.9986 192.368C54.6357 192.07 54.2145 191.921 53.735 191.921C53.1518 191.921 52.6982 192.076 52.3742 192.387C52.0502 192.698 51.8882 193.094 51.8882 193.573C51.8882 193.988 51.9984 194.39 52.2187 194.779C52.452 195.167 52.7954 195.601 53.249 196.081L57.5453 200.416C57.9211 199.872 58.3293 199.217 58.77 198.453L59.3726 197.403H61.1028L60.2474 198.919C59.6772 199.943 59.1329 200.798 58.6145 201.485L61.5499 204.44H59.4893L57.6813 202.613C56.9945 203.352 56.2817 203.883 55.5429 204.207C54.8042 204.518 53.9813 204.673 53.0741 204.673ZM50.0025 200.474C50.0025 201.278 50.2877 201.945 50.8579 202.477C51.4281 203.008 52.1733 203.274 53.0935 203.274C53.7804 203.274 54.4025 203.144 54.9597 202.885C55.53 202.613 56.0873 202.172 56.6316 201.563L52.5103 197.383C51.6549 197.72 51.0199 198.148 50.6052 198.667C50.2034 199.185 50.0025 199.788 50.0025 200.474ZM67.2666 204.44V190.832H71.6601C72.7228 190.832 73.5911 191.007 74.265 191.357C74.9389 191.707 75.4379 192.187 75.7619 192.796C76.0859 193.405 76.2479 194.079 76.2479 194.817C76.2479 195.673 76.0146 196.444 75.5481 197.131C75.0945 197.818 74.3817 198.304 73.4097 198.589L76.384 204.44H74.4594L71.6989 198.822H71.5823H68.8996V204.44H67.2666ZM68.8996 197.539H71.5434C72.5932 197.539 73.3578 197.286 73.8373 196.781C74.3169 196.275 74.5566 195.627 74.5566 194.837C74.5566 194.033 74.3169 193.398 73.8373 192.932C73.3708 192.452 72.5997 192.212 71.524 192.212H68.8996V197.539ZM81.8564 204.673C80.9362 204.673 80.1197 204.466 79.4069 204.051C78.6941 203.624 78.1304 203.034 77.7156 202.282C77.3139 201.531 77.113 200.643 77.113 199.619C77.113 198.608 77.3139 197.727 77.7156 196.975C78.1174 196.211 78.6747 195.621 79.3875 195.206C80.1132 194.779 80.9492 194.565 81.8952 194.565C82.8284 194.565 83.6319 194.779 84.3058 195.206C84.9927 195.621 85.5176 196.172 85.8804 196.859C86.2433 197.545 86.4248 198.284 86.4248 199.075C86.4248 199.217 86.4183 199.36 86.4053 199.502C86.4053 199.645 86.4053 199.807 86.4053 199.988H78.7265C78.7654 200.727 78.9339 201.343 79.232 201.835C79.543 202.315 79.9253 202.678 80.3789 202.924C80.8455 203.17 81.338 203.293 81.8564 203.293C82.5303 203.293 83.094 203.138 83.5476 202.827C84.0012 202.516 84.3317 202.094 84.5391 201.563H86.1526C85.8934 202.457 85.3944 203.203 84.6557 203.799C83.93 204.382 82.9968 204.673 81.8564 204.673ZM81.8564 195.945C81.0788 195.945 80.3854 196.185 79.7763 196.664C79.1801 197.131 78.8367 197.818 78.746 198.725H84.8112C84.7724 197.857 84.4743 197.176 83.917 196.684C83.3597 196.191 82.6728 195.945 81.8564 195.945ZM88.5308 204.44V196.178H87.0728V194.798H88.5308V193.126C88.5308 192.193 88.7641 191.513 89.2306 191.085C89.6972 190.657 90.3776 190.443 91.2718 190.443H92.2438V191.843H91.5246C91.0321 191.843 90.6822 191.947 90.4748 192.154C90.2674 192.349 90.1638 192.685 90.1638 193.165V194.798H92.5354V196.178H90.1638V204.44H88.5308ZM97.415 204.673C96.2746 204.673 95.3674 204.33 94.6934 203.643C94.0195 202.943 93.6826 201.874 93.6826 200.436V194.798H95.3155V200.261C95.3155 202.269 96.1385 203.274 97.7844 203.274C98.6268 203.274 99.3202 202.976 99.8645 202.38C100.422 201.77 100.7 200.909 100.7 199.794V194.798H102.333V204.44H100.856L100.739 202.71C100.441 203.319 99.9941 203.799 99.3979 204.149C98.8147 204.499 98.1538 204.673 97.415 204.673ZM104.438 204.44V194.798H105.915L106.013 196.528C106.324 195.919 106.771 195.439 107.354 195.09C107.937 194.74 108.598 194.565 109.337 194.565C110.477 194.565 111.385 194.915 112.059 195.614C112.745 196.301 113.089 197.364 113.089 198.803V204.44H111.456V198.978C111.456 196.969 110.626 195.964 108.968 195.964C108.138 195.964 107.445 196.269 106.887 196.878C106.343 197.474 106.071 198.33 106.071 199.444V204.44H104.438ZM119.354 204.673C118.395 204.673 117.552 204.453 116.826 204.013C116.114 203.572 115.556 202.969 115.155 202.205C114.766 201.44 114.571 200.572 114.571 199.6C114.571 198.628 114.772 197.766 115.174 197.014C115.576 196.249 116.133 195.653 116.846 195.226C117.559 194.785 118.401 194.565 119.373 194.565C120.164 194.565 120.864 194.727 121.473 195.051C122.082 195.375 122.555 195.828 122.892 196.411V190.443H124.525V204.44H123.047L122.892 202.846C122.581 203.313 122.134 203.734 121.55 204.11C120.967 204.486 120.235 204.673 119.354 204.673ZM119.529 203.254C120.177 203.254 120.747 203.105 121.239 202.807C121.745 202.496 122.134 202.069 122.406 201.524C122.691 200.98 122.833 200.345 122.833 199.619C122.833 198.893 122.691 198.258 122.406 197.714C122.134 197.17 121.745 196.748 121.239 196.45C120.747 196.139 120.177 195.984 119.529 195.984C118.894 195.984 118.323 196.139 117.818 196.45C117.325 196.748 116.937 197.17 116.652 197.714C116.379 198.258 116.243 198.893 116.243 199.619C116.243 200.345 116.379 200.98 116.652 201.524C116.937 202.069 117.325 202.496 117.818 202.807C118.323 203.105 118.894 203.254 119.529 203.254ZM131.262 204.44V190.832H135.733C136.796 190.832 137.671 191.007 138.358 191.357C139.045 191.707 139.55 192.18 139.874 192.776C140.211 193.372 140.38 194.046 140.38 194.798C140.38 195.537 140.218 196.204 139.894 196.8C139.57 197.396 139.064 197.876 138.377 198.239C137.69 198.589 136.809 198.764 135.733 198.764H132.895V204.44H131.262ZM132.895 197.383H135.695C136.783 197.383 137.554 197.157 138.008 196.703C138.474 196.237 138.708 195.601 138.708 194.798C138.708 193.981 138.474 193.346 138.008 192.893C137.554 192.426 136.783 192.193 135.695 192.193H132.895V197.383ZM145.663 204.673C144.756 204.673 143.94 204.466 143.214 204.051C142.488 203.637 141.912 203.053 141.484 202.302C141.069 201.537 140.862 200.643 140.862 199.619C140.862 198.595 141.076 197.707 141.503 196.956C141.931 196.191 142.508 195.601 143.233 195.187C143.972 194.772 144.795 194.565 145.702 194.565C146.61 194.565 147.426 194.772 148.152 195.187C148.878 195.601 149.448 196.191 149.862 196.956C150.29 197.707 150.504 198.595 150.504 199.619C150.504 200.643 150.29 201.537 149.862 202.302C149.435 203.053 148.852 203.637 148.113 204.051C147.387 204.466 146.571 204.673 145.663 204.673ZM145.663 203.274C146.221 203.274 146.739 203.138 147.219 202.866C147.698 202.593 148.087 202.185 148.385 201.641C148.683 201.097 148.832 200.423 148.832 199.619C148.832 198.816 148.683 198.142 148.385 197.597C148.1 197.053 147.718 196.645 147.238 196.373C146.759 196.1 146.247 195.964 145.702 195.964C145.145 195.964 144.627 196.1 144.147 196.373C143.668 196.645 143.279 197.053 142.981 197.597C142.683 198.142 142.534 198.816 142.534 199.619C142.534 200.423 142.683 201.097 142.981 201.641C143.279 202.185 143.661 202.593 144.128 202.866C144.607 203.138 145.119 203.274 145.663 203.274ZM152.191 204.44V190.443H153.824V204.44H152.191ZM156.909 192.66C156.585 192.66 156.313 192.556 156.093 192.349C155.885 192.128 155.782 191.856 155.782 191.532C155.782 191.221 155.885 190.962 156.093 190.754C156.313 190.547 156.585 190.443 156.909 190.443C157.22 190.443 157.486 190.547 157.706 190.754C157.926 190.962 158.037 191.221 158.037 191.532C158.037 191.856 157.926 192.128 157.706 192.349C157.486 192.556 157.22 192.66 156.909 192.66ZM156.093 204.44V194.798H157.726V204.44H156.093ZM164.418 204.673C163.498 204.673 162.668 204.466 161.93 204.051C161.204 203.624 160.627 203.034 160.199 202.282C159.785 201.518 159.577 200.63 159.577 199.619C159.577 198.608 159.785 197.727 160.199 196.975C160.627 196.211 161.204 195.621 161.93 195.206C162.668 194.779 163.498 194.565 164.418 194.565C165.558 194.565 166.517 194.863 167.295 195.459C168.086 196.055 168.585 196.852 168.792 197.85H167.12C166.99 197.254 166.673 196.794 166.167 196.47C165.662 196.133 165.072 195.964 164.398 195.964C163.854 195.964 163.342 196.1 162.863 196.373C162.383 196.645 161.994 197.053 161.696 197.597C161.398 198.142 161.249 198.816 161.249 199.619C161.249 200.423 161.398 201.097 161.696 201.641C161.994 202.185 162.383 202.6 162.863 202.885C163.342 203.157 163.854 203.293 164.398 203.293C165.072 203.293 165.662 203.131 166.167 202.807C166.673 202.47 166.99 201.997 167.12 201.388H168.792C168.597 202.36 168.105 203.151 167.314 203.76C166.524 204.369 165.558 204.673 164.418 204.673ZM171.539 208.717L173.93 203.507H173.366L169.537 194.798H171.306L174.494 202.302L177.876 194.798H179.568L173.25 208.717H171.539Z" fill="black"/>
<path d="M2.27854 249.8V236.192H3.9115V249.8H2.27854ZM9.92666 249.8C9.04538 249.8 8.35202 249.586 7.84658 249.159C7.34114 248.731 7.08842 247.96 7.08842 246.845V241.538H5.41658V240.158H7.08842L7.30226 237.845H8.72138V240.158H11.5596V241.538H8.72138V246.845C8.72138 247.454 8.8445 247.869 9.09074 248.089C9.33698 248.297 9.77114 248.4 10.3932 248.4H11.4041V249.8H9.92666ZM17.1204 250.033C16.2002 250.033 15.3837 249.826 14.6709 249.411C13.9581 248.984 13.3944 248.394 12.9797 247.642C12.5779 246.891 12.377 246.003 12.377 244.979C12.377 243.968 12.5779 243.087 12.9797 242.335C13.3814 241.571 13.9387 240.981 14.6515 240.566C15.3773 240.138 16.2132 239.925 17.1593 239.925C18.0924 239.925 18.8959 240.138 19.5698 240.566C20.2567 240.981 20.7816 241.532 21.1445 242.219C21.5073 242.905 21.6888 243.644 21.6888 244.435C21.6888 244.577 21.6823 244.72 21.6693 244.862C21.6693 245.005 21.6693 245.167 21.6693 245.348H13.9905C14.0294 246.087 14.1979 246.703 14.496 247.195C14.807 247.675 15.1893 248.038 15.6429 248.284C16.1095 248.53 16.602 248.653 17.1204 248.653C17.7943 248.653 18.3581 248.498 18.8117 248.187C19.2653 247.876 19.5957 247.454 19.8031 246.923H21.4166C21.1574 247.817 20.6585 248.562 19.9197 249.159C19.194 249.742 18.2609 250.033 17.1204 250.033ZM17.1204 241.305C16.3428 241.305 15.6494 241.545 15.0403 242.024C14.4441 242.491 14.1007 243.178 14.01 244.085H20.0753C20.0364 243.216 19.7383 242.536 19.181 242.044C18.6237 241.551 17.9369 241.305 17.1204 241.305ZM23.2699 249.8V240.158H24.7474L24.864 241.558C25.1751 241.039 25.5898 240.637 26.1082 240.352C26.6266 240.067 27.2098 239.925 27.8578 239.925C28.6224 239.925 29.2769 240.08 29.8212 240.391C30.3785 240.702 30.8062 241.175 31.1043 241.81C31.4412 241.227 31.9013 240.767 32.4845 240.43C33.0807 240.093 33.7222 239.925 34.4091 239.925C35.5625 239.925 36.4827 240.275 37.1696 240.974C37.8564 241.661 38.1999 242.724 38.1999 244.163V249.8H36.5864V244.338C36.5864 243.34 36.3855 242.588 35.9837 242.082C35.582 241.577 35.0052 241.324 34.2536 241.324C33.476 241.324 32.828 241.629 32.3096 242.238C31.8041 242.834 31.5514 243.69 31.5514 244.804V249.8H29.9184V244.338C29.9184 243.34 29.7176 242.588 29.3158 242.082C28.914 241.577 28.3373 241.324 27.5856 241.324C26.821 241.324 26.1795 241.629 25.6611 242.238C25.1556 242.834 24.9029 243.69 24.9029 244.804V249.8H23.2699ZM49.3619 250.033C48.4288 250.033 47.6188 249.865 46.9319 249.528C46.245 249.191 45.6942 248.731 45.2795 248.148C44.8778 247.552 44.6315 246.878 44.5408 246.126H46.1349C46.2904 246.878 46.6533 247.487 47.2235 247.953C47.7938 248.407 48.513 248.634 49.3814 248.634C50.0294 248.634 50.5866 248.485 51.0532 248.187C51.5198 247.876 51.8762 247.461 52.1224 246.942C52.3816 246.424 52.5112 245.847 52.5112 245.212C52.5112 244.201 52.2261 243.385 51.6558 242.763C51.0856 242.141 50.3469 241.83 49.4397 241.83C48.688 241.83 48.0465 241.998 47.5151 242.335C46.9838 242.672 46.595 243.113 46.3487 243.657H44.7935L45.9599 236.192H53.0944V237.611H47.2235L46.4265 241.752C46.7375 241.376 47.1652 241.065 47.7095 240.819C48.2668 240.573 48.9018 240.45 49.6146 240.45C50.5089 240.45 51.2865 240.657 51.9474 241.072C52.6214 241.486 53.1462 242.05 53.5221 242.763C53.8979 243.476 54.0858 244.286 54.0858 245.193C54.0858 246.061 53.8979 246.865 53.5221 247.603C53.1592 248.342 52.6214 248.932 51.9086 249.372C51.2087 249.813 50.3598 250.033 49.3619 250.033Z" fill="black"/>
<path d="M6.31557 22.1944C5.48397 22.1944 4.73337 22.0324 4.06377 21.7084C3.39417 21.3736 2.85957 20.8714 2.45997 20.2018C2.07117 19.5322 1.87677 18.6844 1.87677 17.6584V10.66H3.95037V17.6746C3.95037 18.5602 4.16097 19.219 4.58217 19.651C5.01417 20.083 5.60817 20.299 6.36417 20.299C7.10937 20.299 7.69797 20.083 8.12997 19.651C8.56197 19.219 8.77797 18.5602 8.77797 17.6746V10.66H10.8516V17.6584C10.8516 18.6844 10.6464 19.5322 10.236 20.2018C9.82557 20.8714 9.27477 21.3736 8.58357 21.7084C7.90317 22.0324 7.14717 22.1944 6.31557 22.1944ZM15.7547 22.1944C15.0419 22.1944 14.4155 22.081 13.8755 21.8542C13.3355 21.6166 12.9035 21.2926 12.5795 20.8822C12.2555 20.4718 12.0611 19.9966 11.9963 19.4566H14.0861C14.1509 19.7698 14.3237 20.0398 14.6045 20.2666C14.8961 20.4826 15.2687 20.5906 15.7223 20.5906C16.1759 20.5906 16.5053 20.4988 16.7105 20.3152C16.9265 20.1316 17.0345 19.921 17.0345 19.6834C17.0345 19.3378 16.8833 19.1056 16.5809 18.9868C16.2785 18.8572 15.8573 18.733 15.3173 18.6142C14.9717 18.5386 14.6207 18.4468 14.2643 18.3388C13.9079 18.2308 13.5785 18.0958 13.2761 17.9338C12.9845 17.761 12.7469 17.545 12.5633 17.2858C12.3797 17.0158 12.2879 16.6864 12.2879 16.2976C12.2879 15.5848 12.5687 14.9854 13.1303 14.4994C13.7027 14.0134 14.5019 13.7704 15.5279 13.7704C16.4783 13.7704 17.2343 13.9918 17.7959 14.4346C18.3683 14.8774 18.7085 15.4876 18.8165 16.2652H16.8563C16.7375 15.6712 16.2893 15.3742 15.5117 15.3742C15.1229 15.3742 14.8205 15.4498 14.6045 15.601C14.3993 15.7522 14.2967 15.9412 14.2967 16.168C14.2967 16.4056 14.4533 16.5946 14.7665 16.735C15.0797 16.8754 15.4955 17.005 16.0139 17.1238C16.5755 17.2534 17.0885 17.3992 17.5529 17.5612C18.0281 17.7124 18.4061 17.9446 18.6869 18.2578C18.9677 18.5602 19.1081 18.9976 19.1081 19.57C19.1189 20.0668 18.9893 20.515 18.7193 20.9146C18.4493 21.3142 18.0605 21.6274 17.5529 21.8542C17.0453 22.081 16.4459 22.1944 15.7547 22.1944ZM24.3633 22.1944C23.5533 22.1944 22.8351 22.0216 22.2087 21.676C21.5823 21.3304 21.0909 20.8444 20.7345 20.218C20.3781 19.5916 20.1999 18.868 20.1999 18.0472C20.1999 17.2156 20.3727 16.4758 20.7183 15.8278C21.0747 15.1798 21.5607 14.6776 22.1763 14.3212C22.8027 13.954 23.5371 13.7704 24.3795 13.7704C25.1679 13.7704 25.8645 13.9432 26.4693 14.2888C27.0741 14.6344 27.5439 15.1096 27.8787 15.7144C28.2243 16.3084 28.3971 16.9726 28.3971 17.707C28.3971 17.8258 28.3917 17.95 28.3809 18.0796C28.3809 18.2092 28.3755 18.3442 28.3647 18.4846H22.2573C22.3005 19.111 22.5165 19.6024 22.9053 19.9588C23.3049 20.3152 23.7855 20.4934 24.3471 20.4934C24.7683 20.4934 25.1193 20.4016 25.4001 20.218C25.6917 20.0236 25.9077 19.7752 26.0481 19.4728H28.1541C28.0029 19.9804 27.7491 20.4448 27.3927 20.866C27.0471 21.2764 26.6151 21.6004 26.0967 21.838C25.5891 22.0756 25.0113 22.1944 24.3633 22.1944ZM24.3795 15.4552C23.8719 15.4552 23.4237 15.601 23.0349 15.8926C22.6461 16.1734 22.3977 16.6054 22.2897 17.1886H26.2911C26.2587 16.6594 26.0643 16.2382 25.7079 15.925C25.3515 15.6118 24.9087 15.4552 24.3795 15.4552ZM30.0277 22V15.6982H28.9261V13.9648H30.0277V13.0252C30.0277 12.0532 30.2707 11.362 30.7567 10.9516C31.2535 10.5412 31.9231 10.336 32.7655 10.336H33.6565V12.1018H33.0895C32.7331 12.1018 32.4793 12.172 32.3281 12.3124C32.1769 12.4528 32.1013 12.6904 32.1013 13.0252V13.9648H33.8347V15.6982H32.1013V22H30.0277ZM38.0042 22.1944C36.9998 22.1944 36.2222 21.8812 35.6714 21.2548C35.1314 20.6284 34.8614 19.7104 34.8614 18.5008V13.9648H36.9188V18.3064C36.9188 18.9976 37.0592 19.5268 37.34 19.894C37.6208 20.2612 38.0636 20.4448 38.6684 20.4448C39.2408 20.4448 39.7106 20.2396 40.0778 19.8292C40.4558 19.4188 40.6448 18.8464 40.6448 18.112V13.9648H42.7184V22H40.8878L40.7258 20.6392C40.4774 21.1144 40.1156 21.4924 39.6404 21.7732C39.176 22.054 38.6306 22.1944 38.0042 22.1944ZM44.361 22V10.336H46.4346V22H44.361ZM51.4416 22V10.336H53.5152V22H51.4416ZM56.2657 12.7174C55.8877 12.7174 55.5745 12.604 55.3261 12.3772C55.0885 12.1504 54.9697 11.8642 54.9697 11.5186C54.9697 11.173 55.0885 10.8922 55.3261 10.6762C55.5745 10.4494 55.8877 10.336 56.2657 10.336C56.6437 10.336 56.9515 10.4494 57.1891 10.6762C57.4375 10.8922 57.5617 11.173 57.5617 11.5186C57.5617 11.8642 57.4375 12.1504 57.1891 12.3772C56.9515 12.604 56.6437 12.7174 56.2657 12.7174ZM55.2289 22V13.9648H57.3025V22H55.2289ZM58.9809 22V13.9648H60.8115L60.9735 15.3256C61.2219 14.8504 61.5783 14.4724 62.0427 14.1916C62.5179 13.9108 63.0741 13.7704 63.7113 13.7704C64.7049 13.7704 65.4771 14.0836 66.0279 14.71C66.5787 15.3364 66.8541 16.2544 66.8541 17.464V22H64.7805V17.6584C64.7805 16.9672 64.6401 16.438 64.3593 16.0708C64.0785 15.7036 63.6411 15.52 63.0471 15.52C62.4639 15.52 61.9833 15.7252 61.6053 16.1356C61.2381 16.546 61.0545 17.1184 61.0545 17.8528V22H58.9809ZM68.351 22V10.336H70.4246V17.221L73.2758 13.9648H75.7382L72.4496 17.626L76.2728 22H73.6808L70.4246 17.9662V22H68.351ZM79.9979 22.1944C79.2851 22.1944 78.6587 22.081 78.1187 21.8542C77.5787 21.6166 77.1467 21.2926 76.8227 20.8822C76.4987 20.4718 76.3043 19.9966 76.2395 19.4566H78.3293C78.3941 19.7698 78.5669 20.0398 78.8477 20.2666C79.1393 20.4826 79.5119 20.5906 79.9655 20.5906C80.4191 20.5906 80.7485 20.4988 80.9537 20.3152C81.1697 20.1316 81.2777 19.921 81.2777 19.6834C81.2777 19.3378 81.1265 19.1056 80.8241 18.9868C80.5217 18.8572 80.1005 18.733 79.5605 18.6142C79.2149 18.5386 78.8639 18.4468 78.5075 18.3388C78.1511 18.2308 77.8217 18.0958 77.5193 17.9338C77.2277 17.761 76.9901 17.545 76.8065 17.2858C76.6229 17.0158 76.5311 16.6864 76.5311 16.2976C76.5311 15.5848 76.8119 14.9854 77.3735 14.4994C77.9459 14.0134 78.7451 13.7704 79.7711 13.7704C80.7215 13.7704 81.4775 13.9918 82.0391 14.4346C82.6115 14.8774 82.9517 15.4876 83.0597 16.2652H81.0995C80.9807 15.6712 80.5325 15.3742 79.7549 15.3742C79.3661 15.3742 79.0637 15.4498 78.8477 15.601C78.6425 15.7522 78.5399 15.9412 78.5399 16.168C78.5399 16.4056 78.6965 16.5946 79.0097 16.735C79.3229 16.8754 79.7387 17.005 80.2571 17.1238C80.8187 17.2534 81.3317 17.3992 81.7961 17.5612C82.2713 17.7124 82.6493 17.9446 82.9301 18.2578C83.2109 18.5602 83.3513 18.9976 83.3513 19.57C83.3621 20.0668 83.2325 20.515 82.9625 20.9146C82.6925 21.3142 82.3037 21.6274 81.7961 21.8542C81.2885 22.081 80.6891 22.1944 79.9979 22.1944Z" fill="#29539B"/>
</svg>
