<svg width="499" height="232" viewBox="0 0 499 232" fill="none" xmlns="http://www.w3.org/2000/svg">
<path d="M6.11064 81.8V70.1944H2.14488V68.192H12.5842V70.1944H8.59896V81.8H6.11064ZM13.7859 81.8V67.8032H16.2743V73.6352C16.5983 73.1039 17.0324 72.6892 17.5767 72.3911C18.134 72.08 18.7691 71.9245 19.4819 71.9245C20.6742 71.9245 21.5943 72.3004 22.2423 73.052C22.9033 73.8037 23.2338 74.9053 23.2338 76.3568V81.8H20.7649V76.5901C20.7649 75.7607 20.5964 75.1256 20.2595 74.685C19.9355 74.2444 19.4171 74.024 18.7043 74.024C18.0044 74.024 17.4212 74.2703 16.9547 74.7628C16.5011 75.2552 16.2743 75.9421 16.2743 76.8234V81.8H13.7859ZM29.7151 82.0333C28.7431 82.0333 27.8812 81.826 27.1295 81.4112C26.3779 80.9965 25.7882 80.4133 25.3605 79.6616C24.9328 78.91 24.719 78.0416 24.719 77.0567C24.719 76.0588 24.9263 75.171 25.3411 74.3934C25.7687 73.6158 26.3519 73.0132 27.0907 72.5855C27.8423 72.1448 28.7236 71.9245 29.7345 71.9245C30.6806 71.9245 31.5165 72.1319 32.2423 72.5466C32.968 72.9613 33.5318 73.5316 33.9335 74.2573C34.3483 74.9701 34.5556 75.7672 34.5556 76.6484C34.5556 76.791 34.5491 76.94 34.5362 77.0956C34.5362 77.2511 34.5297 77.4131 34.5167 77.5816H27.1879C27.2397 78.3332 27.4989 78.9229 27.9655 79.3506C28.445 79.7783 29.0217 79.9921 29.6956 79.9921C30.2011 79.9921 30.6223 79.882 30.9592 79.6616C31.3091 79.4284 31.5683 79.1303 31.7368 78.7674H34.264C34.0826 79.3765 33.778 79.9338 33.3503 80.4392C32.9356 80.9317 32.4172 81.3205 31.7951 81.6056C31.186 81.8908 30.4927 82.0333 29.7151 82.0333ZM29.7345 73.9463C29.1254 73.9463 28.5875 74.1212 28.121 74.4712C27.6544 74.8081 27.3563 75.3265 27.2267 76.0264H32.0284C31.9895 75.3913 31.7563 74.8859 31.3286 74.51C30.9009 74.1342 30.3695 73.9463 29.7345 73.9463ZM39.2978 81.8L44.2744 68.192H47.0738L52.0504 81.8H49.4066L48.3179 78.6508H43.0108L41.9027 81.8H39.2978ZM43.6912 76.7068H47.6375L45.6546 71.0497L43.6912 76.7068ZM53.1618 81.8V67.8032H55.6501V81.8H53.1618ZM61.6919 78.9229C61.2253 78.9229 60.7912 78.8711 60.3894 78.7674L59.6701 79.4867C59.8904 79.6033 60.1885 79.7005 60.5644 79.7783C60.9402 79.856 61.5493 79.9338 62.3917 80.0116C63.6748 80.1282 64.6079 80.4328 65.1911 80.9252C65.7743 81.4177 66.0659 82.0981 66.0659 82.9664C66.0659 83.5367 65.9104 84.0745 65.5993 84.58C65.2883 85.0984 64.8088 85.5131 64.1608 85.8241C63.5128 86.1481 62.6833 86.3101 61.6724 86.3101C60.2987 86.3101 59.1906 86.0509 58.3482 85.5325C57.5058 85.0271 57.0846 84.2624 57.0846 83.2386C57.0846 82.3703 57.5058 81.6186 58.3482 80.9836C58.089 80.8669 57.8622 80.7438 57.6678 80.6142C57.4864 80.4846 57.3244 80.3485 57.1818 80.206V79.7588L58.8731 77.9704C58.1214 77.3094 57.7456 76.4605 57.7456 75.4237C57.7456 74.7757 57.9011 74.186 58.2121 73.6547C58.5361 73.1233 58.9897 72.7021 59.5729 72.3911C60.1561 72.08 60.8624 71.9245 61.6919 71.9245C62.2362 71.9245 62.7416 72.0023 63.2082 72.1578H66.8629V73.6741L65.2105 73.7908C65.4697 74.2832 65.5993 74.8276 65.5993 75.4237C65.5993 76.0717 65.4438 76.6614 65.1328 77.1928C64.8217 77.7241 64.3681 78.1453 63.772 78.4564C63.1888 78.7674 62.4954 78.9229 61.6919 78.9229ZM61.6919 77.0178C62.1973 77.0178 62.612 76.8817 62.936 76.6096C63.273 76.3374 63.4415 75.9486 63.4415 75.4432C63.4415 74.9377 63.273 74.5489 62.936 74.2768C62.612 74.0046 62.1973 73.8685 61.6919 73.8685C61.1605 73.8685 60.7328 74.0046 60.4088 74.2768C60.0848 74.5489 59.9228 74.9377 59.9228 75.4432C59.9228 75.9486 60.0848 76.3374 60.4088 76.6096C60.7328 76.8817 61.1605 77.0178 61.6919 77.0178ZM59.3591 82.9859C59.3591 83.4654 59.5794 83.8218 60.02 84.0551C60.4736 84.3013 61.0244 84.4244 61.6724 84.4244C62.2945 84.4244 62.8 84.2948 63.1888 84.0356C63.5776 83.7894 63.772 83.4524 63.772 83.0248C63.772 82.6748 63.6424 82.3832 63.3832 82.15C63.1369 81.9167 62.638 81.7741 61.8863 81.7223C61.3549 81.6834 60.8624 81.6251 60.4088 81.5473C60.033 81.7547 59.7608 81.9815 59.5924 82.2277C59.4368 82.474 59.3591 82.7267 59.3591 82.9859ZM72.3412 82.0333C71.4081 82.0333 70.5657 81.8195 69.814 81.3918C69.0753 80.9641 68.4856 80.3744 68.045 79.6228C67.6173 78.8581 67.4034 77.9768 67.4034 76.9789C67.4034 75.981 67.6238 75.1062 68.0644 74.3545C68.5051 73.5899 69.0947 72.9937 69.8335 72.566C70.5851 72.1384 71.4275 71.9245 72.3607 71.9245C73.2808 71.9245 74.1103 72.1384 74.849 72.566C75.6007 72.9937 76.1903 73.5899 76.618 74.3545C77.0587 75.1062 77.279 75.981 77.279 76.9789C77.279 77.9768 77.0587 78.8581 76.618 79.6228C76.1903 80.3744 75.6007 80.9641 74.849 81.3918C74.0973 81.8195 73.2614 82.0333 72.3412 82.0333ZM72.3412 79.8755C72.9892 79.8755 73.553 79.6357 74.0325 79.1562C74.512 78.6637 74.7518 77.938 74.7518 76.9789C74.7518 76.0199 74.512 75.3006 74.0325 74.8211C73.553 74.3286 72.9957 74.0824 72.3607 74.0824C71.6997 74.0824 71.1295 74.3286 70.6499 74.8211C70.1834 75.3006 69.9501 76.0199 69.9501 76.9789C69.9501 77.938 70.1834 78.6637 70.6499 79.1562C71.1295 79.6357 71.6932 79.8755 72.3412 79.8755ZM78.9206 81.8V72.1578H81.1368L81.37 73.9657C81.72 73.3436 82.193 72.8512 82.7892 72.4883C83.3983 72.1124 84.1111 71.9245 84.9276 71.9245V74.5489H84.2277C83.6834 74.5489 83.1974 74.6332 82.7697 74.8016C82.342 74.9701 82.0051 75.2617 81.7588 75.6764C81.5256 76.0912 81.4089 76.6679 81.4089 77.4066V81.8H78.9206ZM87.3864 70.6609C86.9328 70.6609 86.557 70.5248 86.2589 70.2527C85.9738 69.9805 85.8312 69.6371 85.8312 69.2224C85.8312 68.8076 85.9738 68.4707 86.2589 68.2115C86.557 67.9393 86.9328 67.8032 87.3864 67.8032C87.84 67.8032 88.2094 67.9393 88.4945 68.2115C88.7926 68.4707 88.9416 68.8076 88.9416 69.2224C88.9416 69.6371 88.7926 69.9805 88.4945 70.2527C88.2094 70.5248 87.84 70.6609 87.3864 70.6609ZM86.1422 81.8V72.1578H88.6306V81.8H86.1422ZM94.9408 81.8C93.9299 81.8 93.1199 81.5538 92.5108 81.0613C91.9017 80.5688 91.5971 79.694 91.5971 78.4369V74.2379H89.9447V72.1578H91.5971L91.8887 69.5723H94.0855V72.1578H96.6904V74.2379H94.0855V78.4564C94.0855 78.9229 94.1827 79.2469 94.3771 79.4284C94.5844 79.5968 94.9343 79.6811 95.4268 79.6811H96.6321V81.8H94.9408ZM98.2436 81.8V67.8032H100.732V73.6352C101.056 73.1039 101.49 72.6892 102.034 72.3911C102.592 72.08 103.227 71.9245 103.94 71.9245C105.132 71.9245 106.052 72.3004 106.7 73.052C107.361 73.8037 107.691 74.9053 107.691 76.3568V81.8H105.223V76.5901C105.223 75.7607 105.054 75.1256 104.717 74.685C104.393 74.2444 103.875 74.024 103.162 74.024C102.462 74.024 101.879 74.2703 101.412 74.7628C100.959 75.2552 100.732 75.9421 100.732 76.8234V81.8H98.2436ZM109.488 81.8V72.1578H111.684L111.898 73.4603C112.209 72.9937 112.618 72.6244 113.123 72.3522C113.641 72.0671 114.238 71.9245 114.911 71.9245C116.402 71.9245 117.458 72.5012 118.08 73.6547C118.43 73.1233 118.897 72.7021 119.48 72.3911C120.076 72.08 120.724 71.9245 121.424 71.9245C122.681 71.9245 123.647 72.3004 124.32 73.052C124.994 73.8037 125.331 74.9053 125.331 76.3568V81.8H122.843V76.5901C122.843 75.7607 122.681 75.1256 122.357 74.685C122.046 74.2444 121.56 74.024 120.899 74.024C120.225 74.024 119.681 74.2703 119.266 74.7628C118.864 75.2552 118.663 75.9421 118.663 76.8234V81.8H116.175V76.5901C116.175 75.7607 116.013 75.1256 115.689 74.685C115.365 74.2444 114.866 74.024 114.192 74.024C113.531 74.024 112.993 74.2703 112.579 74.7628C112.177 75.2552 111.976 75.9421 111.976 76.8234V81.8H109.488ZM135.456 81.8C134.445 81.8 133.635 81.5538 133.026 81.0613C132.417 80.5688 132.112 79.694 132.112 78.4369V74.2379H130.46V72.1578H132.112L132.404 69.5723H134.6V72.1578H137.205V74.2379H134.6V78.4564C134.6 78.9229 134.698 79.2469 134.892 79.4284C135.099 79.5968 135.449 79.6811 135.942 79.6811H137.147V81.8H135.456ZM143.139 82.0333C142.205 82.0333 141.363 81.8195 140.611 81.3918C139.873 80.9641 139.283 80.3744 138.842 79.6228C138.415 78.8581 138.201 77.9768 138.201 76.9789C138.201 75.981 138.421 75.1062 138.862 74.3545C139.302 73.5899 139.892 72.9937 140.631 72.566C141.382 72.1384 142.225 71.9245 143.158 71.9245C144.078 71.9245 144.908 72.1384 145.646 72.566C146.398 72.9937 146.988 73.5899 147.415 74.3545C147.856 75.1062 148.076 75.981 148.076 76.9789C148.076 77.9768 147.856 78.8581 147.415 79.6228C146.988 80.3744 146.398 80.9641 145.646 81.3918C144.895 81.8195 144.059 82.0333 143.139 82.0333ZM143.139 79.8755C143.787 79.8755 144.35 79.6357 144.83 79.1562C145.309 78.6637 145.549 77.938 145.549 76.9789C145.549 76.0199 145.309 75.3006 144.83 74.8211C144.35 74.3286 143.793 74.0824 143.158 74.0824C142.497 74.0824 141.927 74.3286 141.447 74.8211C140.981 75.3006 140.747 76.0199 140.747 76.9789C140.747 77.938 140.981 78.6637 141.447 79.1562C141.927 79.6357 142.491 79.8755 143.139 79.8755ZM159.482 82.0333C158.756 82.0333 158.121 81.8972 157.577 81.6251C157.033 81.3529 156.592 80.9706 156.255 80.4781L155.983 81.8H153.767V67.8032H156.255V73.538C156.566 73.1104 156.974 72.7345 157.48 72.4105C157.998 72.0865 158.666 71.9245 159.482 71.9245C160.389 71.9245 161.199 72.1448 161.912 72.5855C162.625 73.0261 163.189 73.6288 163.604 74.3934C164.018 75.158 164.226 76.0264 164.226 76.9984C164.226 77.9704 164.018 78.8387 163.604 79.6033C163.189 80.355 162.625 80.9512 161.912 81.3918C161.199 81.8195 160.389 82.0333 159.482 82.0333ZM158.957 79.856C159.748 79.856 160.402 79.5904 160.921 79.059C161.439 78.5276 161.698 77.8408 161.698 76.9984C161.698 76.156 161.439 75.4626 160.921 74.9183C160.402 74.374 159.748 74.1018 158.957 74.1018C158.154 74.1018 157.493 74.374 156.974 74.9183C156.469 75.4496 156.216 76.1365 156.216 76.9789C156.216 77.8213 156.469 78.5147 156.974 79.059C157.493 79.5904 158.154 79.856 158.957 79.856ZM170.55 82.0333C169.578 82.0333 168.716 81.826 167.965 81.4112C167.213 80.9965 166.623 80.4133 166.196 79.6616C165.768 78.91 165.554 78.0416 165.554 77.0567C165.554 76.0588 165.762 75.171 166.176 74.3934C166.604 73.6158 167.187 73.0132 167.926 72.5855C168.678 72.1448 169.559 71.9245 170.57 71.9245C171.516 71.9245 172.352 72.1319 173.077 72.5466C173.803 72.9613 174.367 73.5316 174.769 74.2573C175.183 74.9701 175.391 75.7672 175.391 76.6484C175.391 76.791 175.384 76.94 175.371 77.0956C175.371 77.2511 175.365 77.4131 175.352 77.5816H168.023C168.075 78.3332 168.334 78.9229 168.801 79.3506C169.28 79.7783 169.857 79.9921 170.531 79.9921C171.036 79.9921 171.457 79.882 171.794 79.6616C172.144 79.4284 172.404 79.1303 172.572 78.7674H175.099C174.918 79.3765 174.613 79.9338 174.186 80.4392C173.771 80.9317 173.252 81.3205 172.63 81.6056C172.021 81.8908 171.328 82.0333 170.55 82.0333ZM170.57 73.9463C169.961 73.9463 169.423 74.1212 168.956 74.4712C168.49 74.8081 168.192 75.3265 168.062 76.0264H172.864C172.825 75.3913 172.591 74.8859 172.164 74.51C171.736 74.1342 171.205 73.9463 170.57 73.9463ZM181.624 82.0333C180.639 82.0333 179.771 81.8195 179.019 81.3918C178.268 80.9641 177.672 80.368 177.231 79.6033C176.803 78.8387 176.589 77.9639 176.589 76.9789C176.589 75.994 176.803 75.1192 177.231 74.3545C177.672 73.5899 178.268 72.9937 179.019 72.566C179.771 72.1384 180.639 71.9245 181.624 71.9245C182.856 71.9245 183.892 72.2485 184.735 72.8965C185.577 73.5316 186.115 74.4128 186.348 75.5404H183.724C183.594 75.0738 183.335 74.7109 182.946 74.4517C182.57 74.1796 182.123 74.0435 181.605 74.0435C180.918 74.0435 180.335 74.3027 179.855 74.8211C179.376 75.3395 179.136 76.0588 179.136 76.9789C179.136 77.8991 179.376 78.6184 179.855 79.1368C180.335 79.6552 180.918 79.9144 181.605 79.9144C182.123 79.9144 182.57 79.7848 182.946 79.5256C183.335 79.2664 183.594 78.897 183.724 78.4175H186.348C186.115 79.5061 185.577 80.3809 184.735 81.0419C183.892 81.7028 182.856 82.0333 181.624 82.0333ZM192.6 82.0333C191.667 82.0333 190.825 81.8195 190.073 81.3918C189.334 80.9641 188.745 80.3744 188.304 79.6228C187.876 78.8581 187.663 77.9768 187.663 76.9789C187.663 75.981 187.883 75.1062 188.324 74.3545C188.764 73.5899 189.354 72.9937 190.093 72.566C190.844 72.1384 191.687 71.9245 192.62 71.9245C193.54 71.9245 194.369 72.1384 195.108 72.566C195.86 72.9937 196.45 73.5899 196.877 74.3545C197.318 75.1062 197.538 75.981 197.538 76.9789C197.538 77.9768 197.318 78.8581 196.877 79.6228C196.45 80.3744 195.86 80.9641 195.108 81.3918C194.357 81.8195 193.521 82.0333 192.6 82.0333ZM192.6 79.8755C193.248 79.8755 193.812 79.6357 194.292 79.1562C194.771 78.6637 195.011 77.938 195.011 76.9789C195.011 76.0199 194.771 75.3006 194.292 74.8211C193.812 74.3286 193.255 74.0824 192.62 74.0824C191.959 74.0824 191.389 74.3286 190.909 74.8211C190.443 75.3006 190.209 76.0199 190.209 76.9789C190.209 77.938 190.443 78.6637 190.909 79.1562C191.389 79.6357 191.952 79.8755 192.6 79.8755ZM199.18 81.8V72.1578H201.377L201.59 73.4603C201.901 72.9937 202.31 72.6244 202.815 72.3522C203.333 72.0671 203.93 71.9245 204.604 71.9245C206.094 71.9245 207.15 72.5012 207.772 73.6547C208.122 73.1233 208.589 72.7021 209.172 72.3911C209.768 72.08 210.416 71.9245 211.116 71.9245C212.373 71.9245 213.339 72.3004 214.013 73.052C214.686 73.8037 215.023 74.9053 215.023 76.3568V81.8H212.535V76.5901C212.535 75.7607 212.373 75.1256 212.049 74.685C211.738 74.2444 211.252 74.024 210.591 74.024C209.917 74.024 209.373 74.2703 208.958 74.7628C208.556 75.2552 208.355 75.9421 208.355 76.8234V81.8H205.867V76.5901C205.867 75.7607 205.705 75.1256 205.381 74.685C205.057 74.2444 204.558 74.024 203.884 74.024C203.223 74.024 202.685 74.2703 202.271 74.7628C201.869 75.2552 201.668 75.9421 201.668 76.8234V81.8H199.18ZM221.488 82.0333C220.516 82.0333 219.654 81.826 218.902 81.4112C218.15 80.9965 217.561 80.4133 217.133 79.6616C216.705 78.91 216.492 78.0416 216.492 77.0567C216.492 76.0588 216.699 75.171 217.114 74.3934C217.541 73.6158 218.125 73.0132 218.863 72.5855C219.615 72.1448 220.496 71.9245 221.507 71.9245C222.453 71.9245 223.289 72.1319 224.015 72.5466C224.741 72.9613 225.304 73.5316 225.706 74.2573C226.121 74.9701 226.328 75.7672 226.328 76.6484C226.328 76.791 226.322 76.94 226.309 77.0956C226.309 77.2511 226.302 77.4131 226.289 77.5816H218.96C219.012 78.3332 219.271 78.9229 219.738 79.3506C220.218 79.7783 220.794 79.9921 221.468 79.9921C221.974 79.9921 222.395 79.882 222.732 79.6616C223.082 79.4284 223.341 79.1303 223.509 78.7674H226.037C225.855 79.3765 225.551 79.9338 225.123 80.4392C224.708 80.9317 224.19 81.3205 223.568 81.6056C222.959 81.8908 222.265 82.0333 221.488 82.0333ZM221.507 73.9463C220.898 73.9463 220.36 74.1212 219.894 74.4712C219.427 74.8081 219.129 75.3265 218.999 76.0264H223.801C223.762 75.3913 223.529 74.8859 223.101 74.51C222.673 74.1342 222.142 73.9463 221.507 73.9463ZM235.211 82.0333C234.382 82.0333 233.701 81.9037 233.17 81.6445C232.639 81.3724 232.243 81.016 231.984 80.5753C231.725 80.1347 231.595 79.6487 231.595 79.1173C231.595 78.2231 231.945 77.4973 232.645 76.94C233.345 76.3828 234.395 76.1041 235.794 76.1041H238.244V75.8708C238.244 75.2099 238.056 74.7239 237.68 74.4128C237.304 74.1018 236.838 73.9463 236.28 73.9463C235.775 73.9463 235.334 74.0694 234.958 74.3156C234.583 74.5489 234.349 74.8988 234.259 75.3654H231.829C231.893 74.6656 232.127 74.0564 232.528 73.538C232.943 73.0196 233.474 72.6244 234.122 72.3522C234.77 72.0671 235.496 71.9245 236.3 71.9245C237.673 71.9245 238.756 72.268 239.546 72.9548C240.337 73.6417 240.732 74.6137 240.732 75.8708V81.8H238.613L238.38 80.2448C238.095 80.7632 237.693 81.1909 237.175 81.5279C236.669 81.8648 236.015 82.0333 235.211 82.0333ZM235.775 80.0893C236.488 80.0893 237.038 79.856 237.427 79.3895C237.829 78.9229 238.082 78.3462 238.185 77.6593H236.066C235.405 77.6593 234.932 77.7824 234.647 78.0287C234.362 78.262 234.22 78.5536 234.22 78.9035C234.22 79.2793 234.362 79.5709 234.647 79.7783C234.932 79.9856 235.308 80.0893 235.775 80.0893ZM244.314 81.8L241.495 72.1578H243.964L245.636 79.0979L247.58 72.1578H250.341L252.285 79.0979L253.976 72.1578H256.445L253.606 81.8H251.021L248.96 74.5878L246.9 81.8H244.314ZM261.775 82.0333C260.803 82.0333 259.941 81.826 259.189 81.4112C258.438 80.9965 257.848 80.4133 257.42 79.6616C256.993 78.91 256.779 78.0416 256.779 77.0567C256.779 76.0588 256.986 75.171 257.401 74.3934C257.828 73.6158 258.412 73.0132 259.15 72.5855C259.902 72.1448 260.783 71.9245 261.794 71.9245C262.74 71.9245 263.576 72.1319 264.302 72.5466C265.028 72.9613 265.592 73.5316 265.993 74.2573C266.408 74.9701 266.615 75.7672 266.615 76.6484C266.615 76.791 266.609 76.94 266.596 77.0956C266.596 77.2511 266.589 77.4131 266.576 77.5816H259.248C259.299 78.3332 259.559 78.9229 260.025 79.3506C260.505 79.7783 261.081 79.9921 261.755 79.9921C262.261 79.9921 262.682 79.882 263.019 79.6616C263.369 79.4284 263.628 79.1303 263.797 78.7674H266.324C266.142 79.3765 265.838 79.9338 265.41 80.4392C264.995 80.9317 264.477 81.3205 263.855 81.6056C263.246 81.8908 262.552 82.0333 261.775 82.0333ZM261.794 73.9463C261.185 73.9463 260.647 74.1212 260.181 74.4712C259.714 74.8081 259.416 75.3265 259.286 76.0264H264.088C264.049 75.3913 263.816 74.8859 263.388 74.51C262.961 74.1342 262.429 73.9463 261.794 73.9463ZM272.11 82.0333C271.255 82.0333 270.503 81.8972 269.855 81.6251C269.207 81.34 268.689 80.9512 268.3 80.4587C267.911 79.9662 267.678 79.396 267.6 78.748H270.108C270.186 79.1238 270.393 79.4478 270.73 79.72C271.08 79.9792 271.527 80.1088 272.071 80.1088C272.616 80.1088 273.011 79.9986 273.257 79.7783C273.516 79.558 273.646 79.3052 273.646 79.0201C273.646 78.6054 273.465 78.3268 273.102 78.1842C272.739 78.0287 272.233 77.8796 271.585 77.7371C271.171 77.6464 270.749 77.5362 270.322 77.4066C269.894 77.277 269.499 77.115 269.136 76.9206C268.786 76.7132 268.501 76.454 268.281 76.143C268.06 75.819 267.95 75.4237 267.95 74.9572C267.95 74.1018 268.287 73.3825 268.961 72.7993C269.648 72.2161 270.607 71.9245 271.838 71.9245C272.979 71.9245 273.886 72.1902 274.56 72.7216C275.247 73.2529 275.655 73.9852 275.784 74.9183H273.432C273.29 74.2055 272.752 73.8491 271.819 73.8491C271.352 73.8491 270.989 73.9398 270.73 74.1212C270.484 74.3027 270.361 74.5295 270.361 74.8016C270.361 75.0868 270.549 75.3136 270.924 75.482C271.3 75.6505 271.799 75.806 272.421 75.9486C273.095 76.1041 273.711 76.2791 274.268 76.4735C274.838 76.6549 275.292 76.9336 275.629 77.3094C275.966 77.6723 276.134 78.1972 276.134 78.884C276.147 79.4802 275.992 80.018 275.668 80.4976C275.344 80.9771 274.877 81.3529 274.268 81.6251C273.659 81.8972 272.94 82.0333 272.11 82.0333ZM282.382 82.0333C281.449 82.0333 280.607 81.8195 279.855 81.3918C279.116 80.9641 278.527 80.3744 278.086 79.6228C277.658 78.8581 277.444 77.9768 277.444 76.9789C277.444 75.981 277.665 75.1062 278.105 74.3545C278.546 73.5899 279.136 72.9937 279.874 72.566C280.626 72.1384 281.468 71.9245 282.402 71.9245C283.322 71.9245 284.151 72.1384 284.89 72.566C285.642 72.9937 286.231 73.5899 286.659 74.3545C287.1 75.1062 287.32 75.981 287.32 76.9789C287.32 77.9768 287.1 78.8581 286.659 79.6228C286.231 80.3744 285.642 80.9641 284.89 81.3918C284.138 81.8195 283.302 82.0333 282.382 82.0333ZM282.382 79.8755C283.03 79.8755 283.594 79.6357 284.073 79.1562C284.553 78.6637 284.793 77.938 284.793 76.9789C284.793 76.0199 284.553 75.3006 284.073 74.8211C283.594 74.3286 283.037 74.0824 282.402 74.0824C281.741 74.0824 281.17 74.3286 280.691 74.8211C280.224 75.3006 279.991 76.0199 279.991 76.9789C279.991 77.938 280.224 78.6637 280.691 79.1562C281.17 79.6357 281.734 79.8755 282.382 79.8755ZM288.961 81.8V72.1578H291.158L291.372 73.4603C291.683 72.9937 292.091 72.6244 292.597 72.3522C293.115 72.0671 293.711 71.9245 294.385 71.9245C295.876 71.9245 296.932 72.5012 297.554 73.6547C297.904 73.1233 298.37 72.7021 298.954 72.3911C299.55 72.08 300.198 71.9245 300.898 71.9245C302.155 71.9245 303.12 72.3004 303.794 73.052C304.468 73.8037 304.805 74.9053 304.805 76.3568V81.8H302.317V76.5901C302.317 75.7607 302.155 75.1256 301.831 74.685C301.52 74.2444 301.034 74.024 300.373 74.024C299.699 74.024 299.155 74.2703 298.74 74.7628C298.338 75.2552 298.137 75.9421 298.137 76.8234V81.8H295.649V76.5901C295.649 75.7607 295.487 75.1256 295.163 74.685C294.839 74.2444 294.34 74.024 293.666 74.024C293.005 74.024 292.467 74.2703 292.052 74.7628C291.651 75.2552 291.45 75.9421 291.45 76.8234V81.8H288.961ZM311.269 82.0333C310.297 82.0333 309.436 81.826 308.684 81.4112C307.932 80.9965 307.342 80.4133 306.915 79.6616C306.487 78.91 306.273 78.0416 306.273 77.0567C306.273 76.0588 306.481 75.171 306.895 74.3934C307.323 73.6158 307.906 73.0132 308.645 72.5855C309.397 72.1448 310.278 71.9245 311.289 71.9245C312.235 71.9245 313.071 72.1319 313.797 72.5466C314.522 72.9613 315.086 73.5316 315.488 74.2573C315.903 74.9701 316.11 75.7672 316.11 76.6484C316.11 76.791 316.103 76.94 316.09 77.0956C316.09 77.2511 316.084 77.4131 316.071 77.5816H308.742C308.794 78.3332 309.053 78.9229 309.52 79.3506C309.999 79.7783 310.576 79.9921 311.25 79.9921C311.755 79.9921 312.177 79.882 312.514 79.6616C312.863 79.4284 313.123 79.1303 313.291 78.7674H315.818C315.637 79.3765 315.332 79.9338 314.905 80.4392C314.49 80.9317 313.972 81.3205 313.349 81.6056C312.74 81.8908 312.047 82.0333 311.269 82.0333ZM311.289 73.9463C310.68 73.9463 310.142 74.1212 309.675 74.4712C309.209 74.8081 308.911 75.3265 308.781 76.0264H313.583C313.544 75.3913 313.311 74.8859 312.883 74.51C312.455 74.1342 311.924 73.9463 311.289 73.9463ZM324.993 82.0333C324.163 82.0333 323.483 81.9037 322.952 81.6445C322.42 81.3724 322.025 81.016 321.766 80.5753C321.507 80.1347 321.377 79.6487 321.377 79.1173C321.377 78.2231 321.727 77.4973 322.427 76.94C323.127 76.3828 324.176 76.1041 325.576 76.1041H328.025V75.8708C328.025 75.2099 327.837 74.7239 327.462 74.4128C327.086 74.1018 326.619 73.9463 326.062 73.9463C325.557 73.9463 325.116 74.0694 324.74 74.3156C324.364 74.5489 324.131 74.8988 324.04 75.3654H321.61C321.675 74.6656 321.908 74.0564 322.31 73.538C322.725 73.0196 323.256 72.6244 323.904 72.3522C324.552 72.0671 325.278 71.9245 326.081 71.9245C327.455 71.9245 328.537 72.268 329.328 72.9548C330.118 73.6417 330.514 74.6137 330.514 75.8708V81.8H328.395L328.161 80.2448C327.876 80.7632 327.475 81.1909 326.956 81.5279C326.451 81.8648 325.796 82.0333 324.993 82.0333ZM325.557 80.0893C326.269 80.0893 326.82 79.856 327.209 79.3895C327.611 78.9229 327.863 78.3462 327.967 77.6593H325.848C325.187 77.6593 324.714 77.7824 324.429 78.0287C324.144 78.262 324.001 78.5536 324.001 78.9035C324.001 79.2793 324.144 79.5709 324.429 79.7783C324.714 79.9856 325.09 80.0893 325.557 80.0893ZM336.468 81.8C335.458 81.8 334.648 81.5538 334.038 81.0613C333.429 80.5688 333.125 79.694 333.125 78.4369V74.2379H331.472V72.1578H333.125L333.416 69.5723H335.613V72.1578H338.218V74.2379H335.613V78.4564C335.613 78.9229 335.71 79.2469 335.905 79.4284C336.112 79.5968 336.462 79.6811 336.954 79.6811H338.16V81.8H336.468ZM343.879 81.8V68.192H348.525C350.119 68.192 351.428 68.4772 352.452 69.0474C353.488 69.6047 354.253 70.3952 354.746 71.4191C355.251 72.43 355.504 73.6223 355.504 74.996C355.504 76.3698 355.251 77.5686 354.746 78.5924C354.253 79.6033 353.488 80.3939 352.452 80.9641C351.428 81.5214 350.119 81.8 348.525 81.8H343.879ZM346.367 79.6616H348.408C349.549 79.6616 350.449 79.4802 351.11 79.1173C351.771 78.7415 352.244 78.2101 352.529 77.5232C352.815 76.8234 352.957 75.981 352.957 74.996C352.957 74.024 352.815 73.1881 352.529 72.4883C352.244 71.7884 351.771 71.2506 351.11 70.8748C350.449 70.4989 349.549 70.311 348.408 70.311H346.367V79.6616ZM361.762 82.0333C360.764 82.0333 359.883 81.8648 359.118 81.5279C358.354 81.178 357.751 80.6855 357.31 80.0504C356.87 79.4024 356.643 78.6184 356.63 77.6982H359.254C359.28 78.3332 359.507 78.8711 359.935 79.3117C360.375 79.7394 360.978 79.9532 361.743 79.9532C362.404 79.9532 362.929 79.7977 363.317 79.4867C363.706 79.1627 363.901 78.735 363.901 78.2036C363.901 77.6464 363.726 77.2122 363.376 76.9012C363.039 76.5901 362.585 76.3374 362.015 76.143C361.445 75.9486 360.836 75.7412 360.188 75.5209C359.138 75.158 358.334 74.6915 357.777 74.1212C357.233 73.551 356.96 72.7928 356.96 71.8468C356.948 71.0432 357.135 70.3564 357.524 69.7861C357.926 69.2029 358.47 68.7558 359.157 68.4448C359.844 68.1208 360.635 67.9588 361.529 67.9588C362.436 67.9588 363.233 68.1208 363.92 68.4448C364.62 68.7688 365.164 69.2224 365.553 69.8056C365.955 70.3888 366.169 71.0821 366.195 71.8856H363.531C363.518 71.4061 363.33 70.9849 362.967 70.622C362.618 70.2462 362.125 70.0583 361.49 70.0583C360.946 70.0453 360.486 70.1814 360.11 70.4665C359.747 70.7387 359.565 71.1404 359.565 71.6718C359.565 72.1254 359.708 72.4883 359.993 72.7604C360.278 73.0196 360.667 73.24 361.16 73.4214C361.652 73.6028 362.216 73.7972 362.851 74.0046C363.525 74.2379 364.14 74.51 364.698 74.8211C365.255 75.1321 365.702 75.5468 366.039 76.0652C366.376 76.5707 366.544 77.2252 366.544 78.0287C366.544 78.7415 366.363 79.4024 366 80.0116C365.637 80.6207 365.099 81.1132 364.387 81.489C363.674 81.8519 362.799 82.0333 361.762 82.0333ZM367.257 81.8L372.234 68.192H375.033L380.01 81.8H377.366L376.278 78.6508H370.971L369.862 81.8H367.257ZM371.651 76.7068H375.597L373.614 71.0497L371.651 76.7068ZM389.583 82.0139C388.585 82.0139 387.717 81.8454 386.978 81.5084C386.24 81.1585 385.663 80.6725 385.248 80.0504C384.847 79.4284 384.646 78.7026 384.646 77.8732C384.646 76.9919 384.892 76.1948 385.384 75.482C385.877 74.7692 386.609 74.199 387.581 73.7713C387.192 73.3177 386.914 72.89 386.745 72.4883C386.577 72.0865 386.492 71.6588 386.492 71.2052C386.492 70.5832 386.648 70.0324 386.959 69.5528C387.27 69.0604 387.711 68.6716 388.281 68.3864C388.864 68.1013 389.557 67.9588 390.361 67.9588C391.177 67.9588 391.871 68.1078 392.441 68.4059C393.011 68.704 393.439 69.1057 393.724 69.6112C394.022 70.1166 394.158 70.6804 394.132 71.3024H391.761C391.761 70.8229 391.618 70.4665 391.333 70.2332C391.061 69.987 390.73 69.8639 390.342 69.8639C389.901 69.8639 389.545 69.987 389.272 70.2332C389.013 70.4795 388.884 70.797 388.884 71.1858C388.884 71.5098 388.987 71.8403 389.195 72.1772C389.402 72.5142 389.707 72.903 390.108 73.3436L393.919 77.115C394.191 76.6744 394.476 76.1624 394.774 75.5792L395.202 74.7239H397.748L397.068 76.0458C396.549 77.0956 396.031 77.9833 395.513 78.7091L398.642 81.8H395.668L394.152 80.2837C393.491 80.8928 392.785 81.3335 392.033 81.6056C391.294 81.8778 390.478 82.0139 389.583 82.0139ZM387.056 77.7176C387.056 78.3527 387.289 78.8905 387.756 79.3312C388.236 79.7588 388.871 79.9727 389.661 79.9727C390.789 79.9727 391.767 79.5709 392.597 78.7674L389 75.2099C388.339 75.495 387.847 75.8514 387.523 76.2791C387.212 76.7068 387.056 77.1863 387.056 77.7176ZM409.874 82.0333C408.5 82.0333 407.321 81.7417 406.336 81.1585C405.351 80.5624 404.593 79.7394 404.061 78.6896C403.53 77.6269 403.264 76.4022 403.264 75.0155C403.264 73.6288 403.53 72.404 404.061 71.3413C404.593 70.2786 405.351 69.4492 406.336 68.853C407.321 68.2568 408.5 67.9588 409.874 67.9588C411.507 67.9588 412.842 68.367 413.878 69.1835C414.928 69.987 415.583 71.121 415.842 72.5855H413.101C412.932 71.8468 412.569 71.27 412.012 70.8553C411.468 70.4276 410.742 70.2138 409.835 70.2138C408.578 70.2138 407.593 70.6415 406.88 71.4968C406.167 72.3522 405.811 73.5251 405.811 75.0155C405.811 76.5059 406.167 77.6788 406.88 78.5341C407.593 79.3765 408.578 79.7977 409.835 79.7977C410.742 79.7977 411.468 79.6033 412.012 79.2145C412.569 78.8128 412.932 78.262 413.101 77.5621H415.842C415.583 78.9618 414.928 80.0569 413.878 80.8475C412.842 81.638 411.507 82.0333 409.874 82.0333ZM417.461 81.8V68.192H422.496C423.585 68.192 424.486 68.3735 425.198 68.7364C425.911 69.0992 426.443 69.5982 426.792 70.2332C427.142 70.8683 427.317 71.5811 427.317 72.3716C427.317 73.1233 427.149 73.8167 426.812 74.4517C426.475 75.0738 425.95 75.5792 425.237 75.968C424.524 76.3439 423.611 76.5318 422.496 76.5318H419.95V81.8H417.461ZM419.95 74.51H422.341C423.209 74.51 423.831 74.3221 424.207 73.9463C424.596 73.5575 424.79 73.0326 424.79 72.3716C424.79 71.6977 424.596 71.1728 424.207 70.797C423.831 70.4082 423.209 70.2138 422.341 70.2138H419.95V74.51Z" fill="#29539B"/>
<path d="M3.05856 133.64V120.032H7.52976C8.59248 120.032 9.46728 120.207 10.1542 120.557C10.841 120.907 11.3465 121.38 11.6705 121.976C12.0074 122.572 12.1759 123.246 12.1759 123.998C12.1759 124.736 12.0139 125.404 11.6899 126C11.3659 126.596 10.8605 127.076 10.1736 127.438C9.48672 127.788 8.60544 127.963 7.52976 127.963H4.69152V133.64H3.05856ZM4.69152 126.583H7.49088C8.57952 126.583 9.35064 126.356 9.80424 125.903C10.2708 125.436 10.5041 124.801 10.5041 123.998C10.5041 123.181 10.2708 122.546 9.80424 122.092C9.35064 121.626 8.57952 121.393 7.49088 121.393H4.69152V126.583ZM13.6359 133.64V119.643H15.2689V133.64H13.6359ZM21.7556 133.873C20.8484 133.873 20.0319 133.666 19.3061 133.251C18.5804 132.836 18.0037 132.253 17.576 131.501C17.1613 130.737 16.9539 129.842 16.9539 128.819C16.9539 127.795 17.1677 126.907 17.5954 126.155C18.0231 125.391 18.5998 124.801 19.3256 124.386C20.0643 123.972 20.8873 123.764 21.7945 123.764C22.7017 123.764 23.5181 123.972 24.2439 124.386C24.9697 124.801 25.5399 125.391 25.9546 126.155C26.3823 126.907 26.5961 127.795 26.5961 128.819C26.5961 129.842 26.3823 130.737 25.9546 131.501C25.5269 132.253 24.9437 132.836 24.205 133.251C23.4793 133.666 22.6628 133.873 21.7556 133.873ZM21.7556 132.473C22.3129 132.473 22.8313 132.337 23.3108 132.065C23.7903 131.793 24.1791 131.385 24.4772 130.84C24.7753 130.296 24.9243 129.622 24.9243 128.819C24.9243 128.015 24.7753 127.341 24.4772 126.797C24.1921 126.253 23.8097 125.844 23.3302 125.572C22.8507 125.3 22.3388 125.164 21.7945 125.164C21.2372 125.164 20.7188 125.3 20.2393 125.572C19.7597 125.844 19.3709 126.253 19.0729 126.797C18.7748 127.341 18.6257 128.015 18.6257 128.819C18.6257 129.622 18.7748 130.296 19.0729 130.84C19.3709 131.385 19.7533 131.793 20.2198 132.065C20.6993 132.337 21.2113 132.473 21.7556 132.473ZM31.714 133.64C30.8328 133.64 30.1394 133.426 29.634 132.998C29.1285 132.571 28.8758 131.799 28.8758 130.685V125.378H27.204V123.998H28.8758L29.0896 121.684H30.5088V123.998H33.347V125.378H30.5088V130.685C30.5088 131.294 30.6319 131.709 30.8781 131.929C31.1244 132.136 31.5585 132.24 32.1806 132.24H33.1915V133.64H31.714ZM39.4972 133.64V120.032H41.1301L48.3813 130.938V120.032H50.0142V133.64H48.3813L41.1301 122.734V133.64H39.4972ZM56.6132 133.873C55.706 133.873 54.8895 133.666 54.1637 133.251C53.438 132.836 52.8613 132.253 52.4336 131.501C52.0189 130.737 51.8115 129.842 51.8115 128.819C51.8115 127.795 52.0253 126.907 52.453 126.155C52.8807 125.391 53.4574 124.801 54.1832 124.386C54.9219 123.972 55.7449 123.764 56.6521 123.764C57.5593 123.764 58.3757 123.972 59.1015 124.386C59.8273 124.801 60.3975 125.391 60.8122 126.155C61.2399 126.907 61.4537 127.795 61.4537 128.819C61.4537 129.842 61.2399 130.737 60.8122 131.501C60.3845 132.253 59.8013 132.836 59.0626 133.251C58.3369 133.666 57.5204 133.873 56.6132 133.873ZM56.6132 132.473C57.1705 132.473 57.6889 132.337 58.1684 132.065C58.6479 131.793 59.0367 131.385 59.3348 130.84C59.6329 130.296 59.7819 129.622 59.7819 128.819C59.7819 128.015 59.6329 127.341 59.3348 126.797C59.0497 126.253 58.6673 125.844 58.1878 125.572C57.7083 125.3 57.1964 125.164 56.6521 125.164C56.0948 125.164 55.5764 125.3 55.0969 125.572C54.6173 125.844 54.2285 126.253 53.9305 126.797C53.6324 127.341 53.4833 128.015 53.4833 128.819C53.4833 129.622 53.6324 130.296 53.9305 130.84C54.2285 131.385 54.6109 131.793 55.0774 132.065C55.5569 132.337 56.0689 132.473 56.6132 132.473ZM72.0378 133.873C71.1694 133.873 70.3854 133.718 69.6855 133.406C68.9857 133.082 68.4219 132.603 67.9942 131.968C67.5795 131.333 67.3592 130.542 67.3333 129.596H68.9857C68.9986 130.374 69.2708 131.048 69.8022 131.618C70.3335 132.175 71.0787 132.454 72.0378 132.454C72.9968 132.454 73.7161 132.188 74.1956 131.657C74.6881 131.126 74.9343 130.484 74.9343 129.732C74.9343 129.097 74.7788 128.579 74.4678 128.177C74.1697 127.775 73.7614 127.477 73.243 127.283C72.7376 127.088 72.1803 126.991 71.5712 126.991H70.5603V125.611H71.5712C72.4525 125.611 73.1394 125.41 73.6318 125.008C74.1373 124.607 74.39 124.043 74.39 123.317C74.39 122.708 74.1891 122.209 73.7874 121.82C73.3986 121.418 72.8154 121.218 72.0378 121.218C71.2861 121.218 70.6834 121.444 70.2298 121.898C69.7762 122.339 69.5235 122.896 69.4717 123.57H67.8193C67.8582 122.831 68.0526 122.177 68.4025 121.606C68.7654 121.036 69.2578 120.596 69.8799 120.284C70.502 119.96 71.2213 119.798 72.0378 119.798C72.919 119.798 73.6513 119.954 74.2345 120.265C74.8306 120.576 75.2778 120.991 75.5758 121.509C75.8869 122.028 76.0424 122.598 76.0424 123.22C76.0424 123.907 75.8545 124.535 75.4786 125.106C75.1028 125.663 74.539 126.039 73.7874 126.233C74.5909 126.402 75.2583 126.784 75.7897 127.38C76.321 127.976 76.5867 128.76 76.5867 129.732C76.5867 130.484 76.4118 131.177 76.0618 131.812C75.7249 132.434 75.2194 132.933 74.5455 133.309C73.8716 133.685 73.0357 133.873 72.0378 133.873ZM83.5441 133.873C82.5592 133.873 81.7297 133.692 81.0558 133.329C80.3819 132.953 79.8376 132.454 79.4228 131.832C79.0211 131.21 78.723 130.516 78.5286 129.752C78.3472 128.974 78.2564 128.184 78.2564 127.38C78.2564 125.877 78.4638 124.561 78.8785 123.434C79.2932 122.293 79.8894 121.406 80.667 120.77C81.4576 120.122 82.4101 119.798 83.5247 119.798C84.38 119.798 85.1123 119.967 85.7214 120.304C86.3305 120.641 86.81 121.094 87.16 121.665C87.5228 122.222 87.7496 122.844 87.8404 123.531H86.324C86.1815 122.792 85.864 122.222 85.3715 121.82C84.879 121.418 84.2569 121.218 83.5052 121.218C82.4814 121.218 81.6196 121.704 80.9197 122.676C80.2328 123.635 79.8635 125.138 79.8116 127.186C80.1227 126.577 80.6152 126.052 81.2891 125.611C81.976 125.157 82.7989 124.931 83.758 124.931C84.5356 124.931 85.2613 125.112 85.9352 125.475C86.6221 125.838 87.1794 126.35 87.6071 127.011C88.0348 127.659 88.2486 128.423 88.2486 129.305C88.2486 130.069 88.0607 130.802 87.6848 131.501C87.309 132.201 86.7647 132.771 86.0519 133.212C85.352 133.653 84.5161 133.873 83.5441 133.873ZM83.4275 132.434C84.0366 132.434 84.5809 132.305 85.0604 132.046C85.54 131.786 85.9158 131.43 86.188 130.976C86.4601 130.51 86.5962 129.979 86.5962 129.382C86.5962 128.462 86.2916 127.73 85.6825 127.186C85.0864 126.628 84.3347 126.35 83.4275 126.35C82.8184 126.35 82.274 126.492 81.7945 126.777C81.315 127.05 80.9327 127.419 80.6476 127.886C80.3754 128.352 80.2393 128.858 80.2393 129.402C80.2393 129.985 80.3754 130.51 80.6476 130.976C80.9327 131.43 81.315 131.786 81.7945 132.046C82.274 132.305 82.8184 132.434 83.4275 132.434ZM94.554 133.873C93.6209 133.873 92.8109 133.705 92.124 133.368C91.4371 133.031 90.8863 132.571 90.4716 131.987C90.0698 131.391 89.8236 130.717 89.7329 129.966H91.327C91.4825 130.717 91.8454 131.326 92.4156 131.793C92.9858 132.247 93.7051 132.473 94.5734 132.473C95.2214 132.473 95.7787 132.324 96.2453 132.026C96.7118 131.715 97.0682 131.3 97.3145 130.782C97.5737 130.264 97.7033 129.687 97.7033 129.052C97.7033 128.041 97.4182 127.225 96.8479 126.602C96.2777 125.98 95.539 125.669 94.6318 125.669C93.8801 125.669 93.2386 125.838 92.7072 126.175C92.1758 126.512 91.787 126.952 91.5408 127.497H89.9856L91.152 120.032H98.2865V121.451H92.4156L91.6186 125.592C91.9296 125.216 92.3573 124.905 92.9016 124.658C93.4589 124.412 94.0939 124.289 94.8067 124.289C95.701 124.289 96.4786 124.496 97.1395 124.911C97.8134 125.326 98.3383 125.89 98.7142 126.602C99.09 127.315 99.2779 128.125 99.2779 129.032C99.2779 129.901 99.09 130.704 98.7142 131.443C98.3513 132.182 97.8134 132.771 97.1006 133.212C96.4008 133.653 95.5519 133.873 94.554 133.873ZM99.8476 135.953L100.975 131.657H102.666L100.975 135.953H99.8476ZM114.863 133.873C113.528 133.873 112.355 133.581 111.344 132.998C110.346 132.402 109.562 131.573 108.992 130.51C108.435 129.447 108.156 128.222 108.156 126.836C108.156 125.449 108.435 124.231 108.992 123.181C109.562 122.118 110.346 121.289 111.344 120.693C112.355 120.097 113.528 119.798 114.863 119.798C116.211 119.798 117.383 120.097 118.381 120.693C119.392 121.289 120.176 122.118 120.734 123.181C121.291 124.231 121.57 125.449 121.57 126.836C121.57 128.222 121.291 129.447 120.734 130.51C120.176 131.573 119.392 132.402 118.381 132.998C117.383 133.581 116.211 133.873 114.863 133.873ZM114.863 132.434C115.861 132.434 116.735 132.214 117.487 131.774C118.252 131.32 118.841 130.678 119.256 129.849C119.684 129.007 119.898 128.002 119.898 126.836C119.898 125.669 119.684 124.671 119.256 123.842C118.841 123.013 118.252 122.378 117.487 121.937C116.735 121.483 115.861 121.256 114.863 121.256C113.865 121.256 112.984 121.483 112.219 121.937C111.467 122.378 110.878 123.013 110.45 123.842C110.035 124.671 109.828 125.669 109.828 126.836C109.828 128.002 110.035 129.007 110.45 129.849C110.878 130.678 111.467 131.32 112.219 131.774C112.984 132.214 113.865 132.434 114.863 132.434ZM123.245 133.64V123.998H124.722L124.839 125.397C125.15 124.879 125.565 124.477 126.083 124.192C126.602 123.907 127.185 123.764 127.833 123.764C128.597 123.764 129.252 123.92 129.796 124.231C130.353 124.542 130.781 125.015 131.079 125.65C131.416 125.067 131.876 124.607 132.459 124.27C133.056 123.933 133.697 123.764 134.384 123.764C135.537 123.764 136.458 124.114 137.144 124.814C137.831 125.501 138.175 126.564 138.175 128.002V133.64H136.561V128.177C136.561 127.179 136.36 126.428 135.959 125.922C135.557 125.417 134.98 125.164 134.228 125.164C133.451 125.164 132.803 125.468 132.284 126.078C131.779 126.674 131.526 127.529 131.526 128.644V133.64H129.893V128.177C129.893 127.179 129.692 126.428 129.291 125.922C128.889 125.417 128.312 125.164 127.561 125.164C126.796 125.164 126.154 125.468 125.636 126.078C125.131 126.674 124.878 127.529 124.878 128.644V133.64H123.245ZM144.71 133.64V120.032H146.343L153.594 130.938V120.032H155.227V133.64H153.594L146.343 122.734V133.64H144.71ZM160.64 133.873C159.837 133.873 159.169 133.737 158.638 133.465C158.107 133.193 157.711 132.83 157.452 132.376C157.193 131.923 157.063 131.43 157.063 130.899C157.063 129.914 157.439 129.156 158.191 128.624C158.943 128.093 159.966 127.827 161.262 127.827H163.867V127.711C163.867 126.868 163.647 126.233 163.206 125.805C162.766 125.365 162.176 125.144 161.437 125.144C160.802 125.144 160.252 125.306 159.785 125.63C159.331 125.942 159.046 126.402 158.93 127.011H157.258C157.323 126.311 157.556 125.721 157.958 125.242C158.372 124.762 158.884 124.399 159.493 124.153C160.102 123.894 160.75 123.764 161.437 123.764C162.785 123.764 163.796 124.127 164.47 124.853C165.157 125.566 165.5 126.518 165.5 127.711V133.64H164.042L163.945 131.91C163.673 132.454 163.271 132.92 162.74 133.309C162.221 133.685 161.522 133.873 160.64 133.873ZM160.893 132.493C161.515 132.493 162.046 132.331 162.487 132.007C162.941 131.683 163.284 131.262 163.517 130.743C163.751 130.225 163.867 129.68 163.867 129.11V129.091H161.398C160.439 129.091 159.759 129.259 159.357 129.596C158.968 129.92 158.774 130.328 158.774 130.821C158.774 131.326 158.955 131.735 159.318 132.046C159.694 132.344 160.219 132.493 160.893 132.493ZM171.177 130.607C170.633 130.607 170.134 130.536 169.68 130.393L168.708 131.307C168.851 131.411 169.026 131.501 169.233 131.579C169.453 131.644 169.764 131.709 170.166 131.774C170.568 131.825 171.132 131.884 171.857 131.948C173.153 132.039 174.08 132.337 174.637 132.843C175.195 133.348 175.473 134.009 175.473 134.826C175.473 135.383 175.318 135.914 175.007 136.42C174.709 136.925 174.242 137.34 173.607 137.664C172.985 137.988 172.181 138.15 171.197 138.15C170.328 138.15 169.557 138.033 168.883 137.8C168.209 137.58 167.684 137.236 167.309 136.77C166.933 136.316 166.745 135.739 166.745 135.039C166.745 134.677 166.842 134.281 167.036 133.854C167.231 133.439 167.594 133.044 168.125 132.668C167.84 132.551 167.594 132.428 167.386 132.298C167.192 132.156 167.01 132 166.842 131.832V131.385L168.494 129.752C167.73 129.104 167.347 128.248 167.347 127.186C167.347 126.551 167.496 125.974 167.795 125.456C168.093 124.937 168.527 124.529 169.097 124.231C169.667 123.92 170.361 123.764 171.177 123.764C171.734 123.764 172.24 123.842 172.693 123.998H176.251V125.222L174.443 125.3C174.819 125.844 175.007 126.473 175.007 127.186C175.007 127.821 174.851 128.397 174.54 128.916C174.242 129.434 173.808 129.849 173.238 130.16C172.68 130.458 171.994 130.607 171.177 130.607ZM171.177 129.266C171.864 129.266 172.408 129.091 172.81 128.741C173.225 128.378 173.432 127.86 173.432 127.186C173.432 126.525 173.225 126.019 172.81 125.669C172.408 125.306 171.864 125.125 171.177 125.125C170.477 125.125 169.92 125.306 169.505 125.669C169.103 126.019 168.903 126.525 168.903 127.186C168.903 127.86 169.103 128.378 169.505 128.741C169.92 129.091 170.477 129.266 171.177 129.266ZM168.339 134.884C168.339 135.532 168.611 136.011 169.155 136.322C169.7 136.646 170.38 136.808 171.197 136.808C172 136.808 172.642 136.634 173.121 136.284C173.614 135.934 173.86 135.467 173.86 134.884C173.86 134.469 173.691 134.106 173.354 133.795C173.017 133.497 172.395 133.322 171.488 133.27C170.775 133.219 170.16 133.154 169.641 133.076C169.11 133.361 168.76 133.666 168.592 133.99C168.423 134.327 168.339 134.625 168.339 134.884ZM180.717 133.873C179.914 133.873 179.246 133.737 178.715 133.465C178.184 133.193 177.788 132.83 177.529 132.376C177.27 131.923 177.14 131.43 177.14 130.899C177.14 129.914 177.516 129.156 178.268 128.624C179.02 128.093 180.043 127.827 181.339 127.827H183.944V127.711C183.944 126.868 183.724 126.233 183.283 125.805C182.843 125.365 182.253 125.144 181.514 125.144C180.879 125.144 180.329 125.306 179.862 125.63C179.408 125.942 179.123 126.402 179.007 127.011H177.335C177.4 126.311 177.633 125.721 178.035 125.242C178.449 124.762 178.961 124.399 179.57 124.153C180.18 123.894 180.828 123.764 181.514 123.764C182.862 123.764 183.873 124.127 184.547 124.853C185.234 125.566 185.577 126.518 185.577 127.711V133.64H184.119L184.022 131.91C183.75 132.454 183.348 132.92 182.817 133.309C182.299 133.685 181.599 133.873 180.717 133.873ZM180.97 132.493C181.592 132.493 182.124 132.331 182.564 132.007C183.018 131.683 183.361 131.262 183.595 130.743C183.828 130.225 183.944 129.68 183.944 129.11V129.091H181.476C180.517 129.091 179.836 129.259 179.434 129.596C179.046 129.92 178.851 130.328 178.851 130.821C178.851 131.326 179.033 131.735 179.395 132.046C179.771 132.344 180.296 132.493 180.97 132.493ZM187.444 133.64V123.998H188.921L189.057 125.844C189.356 125.209 189.809 124.704 190.418 124.328C191.027 123.952 191.779 123.764 192.673 123.764V125.475H192.226C191.656 125.475 191.131 125.579 190.652 125.786C190.172 125.98 189.79 126.317 189.505 126.797C189.219 127.276 189.077 127.937 189.077 128.78V133.64H187.444ZM192.013 135.953L193.14 131.657H194.832L193.14 135.953H192.013ZM200.846 133.64V120.032H205.628C206.587 120.032 207.378 120.187 208 120.498C208.635 120.796 209.108 121.211 209.419 121.742C209.73 122.261 209.886 122.844 209.886 123.492C209.886 124.373 209.646 125.067 209.166 125.572C208.7 126.078 208.136 126.428 207.475 126.622C207.981 126.713 208.441 126.914 208.855 127.225C209.27 127.536 209.594 127.924 209.827 128.391C210.074 128.858 210.197 129.369 210.197 129.927C210.197 130.614 210.028 131.242 209.691 131.812C209.354 132.37 208.855 132.817 208.194 133.154C207.534 133.478 206.73 133.64 205.784 133.64H200.846ZM202.479 125.98H205.512C206.38 125.98 207.048 125.78 207.514 125.378C207.981 124.963 208.214 124.393 208.214 123.667C208.214 122.98 207.981 122.429 207.514 122.015C207.06 121.6 206.374 121.393 205.453 121.393H202.479V125.98ZM202.479 132.279H205.609C206.542 132.279 207.261 132.065 207.767 131.637C208.272 131.197 208.525 130.588 208.525 129.81C208.525 129.045 208.259 128.436 207.728 127.983C207.197 127.516 206.477 127.283 205.57 127.283H202.479V132.279ZM216.195 133.873C215.275 133.873 214.459 133.666 213.746 133.251C213.033 132.823 212.469 132.234 212.055 131.482C211.653 130.73 211.452 129.842 211.452 128.819C211.452 127.808 211.653 126.926 212.055 126.175C212.456 125.41 213.014 124.82 213.726 124.406C214.452 123.978 215.288 123.764 216.234 123.764C217.167 123.764 217.971 123.978 218.645 124.406C219.332 124.82 219.856 125.371 220.219 126.058C220.582 126.745 220.764 127.484 220.764 128.274C220.764 128.417 220.757 128.559 220.744 128.702C220.744 128.845 220.744 129.007 220.744 129.188H213.065C213.104 129.927 213.273 130.542 213.571 131.035C213.882 131.514 214.264 131.877 214.718 132.123C215.184 132.37 215.677 132.493 216.195 132.493C216.869 132.493 217.433 132.337 217.887 132.026C218.34 131.715 218.671 131.294 218.878 130.763H220.492C220.232 131.657 219.733 132.402 218.995 132.998C218.269 133.581 217.336 133.873 216.195 133.873ZM216.195 125.144C215.418 125.144 214.724 125.384 214.115 125.864C213.519 126.33 213.176 127.017 213.085 127.924H219.15C219.111 127.056 218.813 126.376 218.256 125.883C217.699 125.391 217.012 125.144 216.195 125.144ZM222.345 133.64V119.643H223.978V125.65C224.302 125.054 224.762 124.594 225.358 124.27C225.954 123.933 226.602 123.764 227.302 123.764C228.417 123.764 229.311 124.114 229.985 124.814C230.659 125.501 230.996 126.564 230.996 128.002V133.64H229.382V128.177C229.382 126.168 228.572 125.164 226.952 125.164C226.11 125.164 225.403 125.468 224.833 126.078C224.263 126.674 223.978 127.529 223.978 128.644V133.64H222.345ZM233.878 121.859C233.554 121.859 233.282 121.755 233.061 121.548C232.854 121.328 232.75 121.056 232.75 120.732C232.75 120.421 232.854 120.161 233.061 119.954C233.282 119.747 233.554 119.643 233.878 119.643C234.189 119.643 234.455 119.747 234.675 119.954C234.895 120.161 235.005 120.421 235.005 120.732C235.005 121.056 234.895 121.328 234.675 121.548C234.455 121.755 234.189 121.859 233.878 121.859ZM233.061 133.64V123.998H234.694V133.64H233.061ZM236.954 133.64V123.998H238.432L238.529 125.728C238.84 125.119 239.287 124.639 239.87 124.289C240.454 123.939 241.115 123.764 241.853 123.764C242.994 123.764 243.901 124.114 244.575 124.814C245.262 125.501 245.605 126.564 245.605 128.002V133.64H243.972V128.177C243.972 126.168 243.143 125.164 241.484 125.164C240.655 125.164 239.961 125.468 239.404 126.078C238.86 126.674 238.587 127.529 238.587 128.644V133.64H236.954ZM251.87 133.873C250.911 133.873 250.069 133.653 249.343 133.212C248.63 132.771 248.073 132.169 247.671 131.404C247.282 130.64 247.088 129.771 247.088 128.799C247.088 127.827 247.289 126.965 247.691 126.214C248.092 125.449 248.65 124.853 249.362 124.425C250.075 123.985 250.918 123.764 251.89 123.764C252.68 123.764 253.38 123.926 253.989 124.25C254.598 124.574 255.071 125.028 255.408 125.611V119.643H257.041V133.64H255.564L255.408 132.046C255.097 132.512 254.65 132.933 254.067 133.309C253.484 133.685 252.751 133.873 251.87 133.873ZM252.045 132.454C252.693 132.454 253.263 132.305 253.756 132.007C254.261 131.696 254.65 131.268 254.922 130.724C255.207 130.179 255.35 129.544 255.35 128.819C255.35 128.093 255.207 127.458 254.922 126.914C254.65 126.369 254.261 125.948 253.756 125.65C253.263 125.339 252.693 125.183 252.045 125.183C251.41 125.183 250.84 125.339 250.334 125.65C249.842 125.948 249.453 126.369 249.168 126.914C248.896 127.458 248.76 128.093 248.76 128.819C248.76 129.544 248.896 130.179 249.168 130.724C249.453 131.268 249.842 131.696 250.334 132.007C250.84 132.305 251.41 132.454 252.045 132.454ZM263.779 133.64V120.032H268.25C269.313 120.032 270.187 120.207 270.874 120.557C271.561 120.907 272.067 121.38 272.391 121.976C272.728 122.572 272.896 123.246 272.896 123.998C272.896 124.736 272.734 125.404 272.41 126C272.086 126.596 271.581 127.076 270.894 127.438C270.207 127.788 269.325 127.963 268.25 127.963H265.412V133.64H263.779ZM265.412 126.583H268.211C269.3 126.583 270.071 126.356 270.524 125.903C270.991 125.436 271.224 124.801 271.224 123.998C271.224 123.181 270.991 122.546 270.524 122.092C270.071 121.626 269.3 121.393 268.211 121.393H265.412V126.583ZM278.18 133.873C277.273 133.873 276.456 133.666 275.73 133.251C275.005 132.836 274.428 132.253 274 131.501C273.586 130.737 273.378 129.842 273.378 128.819C273.378 127.795 273.592 126.907 274.02 126.155C274.447 125.391 275.024 124.801 275.75 124.386C276.489 123.972 277.312 123.764 278.219 123.764C279.126 123.764 279.942 123.972 280.668 124.386C281.394 124.801 281.964 125.391 282.379 126.155C282.807 126.907 283.02 127.795 283.02 128.819C283.02 129.842 282.807 130.737 282.379 131.501C281.951 132.253 281.368 132.836 280.629 133.251C279.904 133.666 279.087 133.873 278.18 133.873ZM278.18 132.473C278.737 132.473 279.256 132.337 279.735 132.065C280.215 131.793 280.603 131.385 280.901 130.84C281.2 130.296 281.349 129.622 281.349 128.819C281.349 128.015 281.2 127.341 280.901 126.797C280.616 126.253 280.234 125.844 279.755 125.572C279.275 125.3 278.763 125.164 278.219 125.164C277.661 125.164 277.143 125.3 276.664 125.572C276.184 125.844 275.795 126.253 275.497 126.797C275.199 127.341 275.05 128.015 275.05 128.819C275.05 129.622 275.199 130.296 275.497 130.84C275.795 131.385 276.178 131.793 276.644 132.065C277.124 132.337 277.636 132.473 278.18 132.473ZM286.291 133.64L283.472 123.998H285.105L287.146 131.56L289.401 123.998H291.248L293.523 131.56L295.545 123.998H297.197L294.378 133.64H292.706L290.335 125.689L287.963 133.64H286.291ZM302.394 133.873C301.474 133.873 300.658 133.666 299.945 133.251C299.232 132.823 298.668 132.234 298.254 131.482C297.852 130.73 297.651 129.842 297.651 128.819C297.651 127.808 297.852 126.926 298.254 126.175C298.655 125.41 299.213 124.82 299.925 124.406C300.651 123.978 301.487 123.764 302.433 123.764C303.366 123.764 304.17 123.978 304.844 124.406C305.531 124.82 306.055 125.371 306.418 126.058C306.781 126.745 306.963 127.484 306.963 128.274C306.963 128.417 306.956 128.559 306.943 128.702C306.943 128.845 306.943 129.007 306.943 129.188H299.264C299.303 129.927 299.472 130.542 299.77 131.035C300.081 131.514 300.463 131.877 300.917 132.123C301.383 132.37 301.876 132.493 302.394 132.493C303.068 132.493 303.632 132.337 304.086 132.026C304.539 131.715 304.87 131.294 305.077 130.763H306.69C306.431 131.657 305.932 132.402 305.194 132.998C304.468 133.581 303.535 133.873 302.394 133.873ZM302.394 125.144C301.617 125.144 300.923 125.384 300.314 125.864C299.718 126.33 299.375 127.017 299.284 127.924H305.349C305.31 127.056 305.012 126.376 304.455 125.883C303.898 125.391 303.211 125.144 302.394 125.144ZM308.544 133.64V123.998H310.021L310.157 125.844C310.455 125.209 310.909 124.704 311.518 124.328C312.127 123.952 312.879 123.764 313.773 123.764V125.475H313.326C312.756 125.475 312.231 125.579 311.751 125.786C311.272 125.98 310.89 126.317 310.604 126.797C310.319 127.276 310.177 127.937 310.177 128.78V133.64H308.544ZM319.682 133.64V120.032H321.315V126.039H328.371V120.032H330.004V133.64H328.371V127.38H321.315V133.64H319.682ZM336.589 133.873C335.682 133.873 334.865 133.666 334.139 133.251C333.414 132.836 332.837 132.253 332.409 131.501C331.994 130.737 331.787 129.842 331.787 128.819C331.787 127.795 332.001 126.907 332.429 126.155C332.856 125.391 333.433 124.801 334.159 124.386C334.897 123.972 335.72 123.764 336.628 123.764C337.535 123.764 338.351 123.972 339.077 124.386C339.803 124.801 340.373 125.391 340.788 126.155C341.215 126.907 341.429 127.795 341.429 128.819C341.429 129.842 341.215 130.737 340.788 131.501C340.36 132.253 339.777 132.836 339.038 133.251C338.312 133.666 337.496 133.873 336.589 133.873ZM336.589 132.473C337.146 132.473 337.664 132.337 338.144 132.065C338.623 131.793 339.012 131.385 339.31 130.84C339.608 130.296 339.757 129.622 339.757 128.819C339.757 128.015 339.608 127.341 339.31 126.797C339.025 126.253 338.643 125.844 338.163 125.572C337.684 125.3 337.172 125.164 336.628 125.164C336.07 125.164 335.552 125.3 335.072 125.572C334.593 125.844 334.204 126.253 333.906 126.797C333.608 127.341 333.459 128.015 333.459 128.819C333.459 129.622 333.608 130.296 333.906 130.84C334.204 131.385 334.586 131.793 335.053 132.065C335.533 132.337 336.044 132.473 336.589 132.473ZM346.635 133.873C345.495 133.873 344.588 133.53 343.914 132.843C343.24 132.143 342.903 131.074 342.903 129.635V123.998H344.536V129.46C344.536 131.469 345.359 132.473 347.005 132.473C347.847 132.473 348.54 132.175 349.085 131.579C349.642 130.97 349.921 130.108 349.921 128.994V123.998H351.554V133.64H350.076L349.96 131.91C349.661 132.519 349.214 132.998 348.618 133.348C348.035 133.698 347.374 133.873 346.635 133.873ZM357.352 133.873C356.198 133.873 355.239 133.581 354.475 132.998C353.71 132.415 353.263 131.624 353.133 130.627H354.805C354.909 131.132 355.175 131.573 355.602 131.948C356.043 132.311 356.633 132.493 357.371 132.493C358.058 132.493 358.564 132.35 358.888 132.065C359.212 131.767 359.374 131.417 359.374 131.015C359.374 130.432 359.16 130.043 358.732 129.849C358.317 129.655 357.728 129.48 356.963 129.324C356.445 129.22 355.926 129.071 355.408 128.877C354.889 128.683 354.455 128.41 354.105 128.06C353.755 127.698 353.581 127.225 353.581 126.641C353.581 125.799 353.892 125.112 354.514 124.581C355.149 124.036 356.004 123.764 357.08 123.764C358.104 123.764 358.939 124.023 359.587 124.542C360.248 125.047 360.631 125.773 360.734 126.719H359.121C359.056 126.227 358.842 125.844 358.479 125.572C358.129 125.287 357.656 125.144 357.06 125.144C356.477 125.144 356.023 125.268 355.699 125.514C355.388 125.76 355.233 126.084 355.233 126.486C355.233 126.875 355.434 127.179 355.836 127.4C356.25 127.62 356.808 127.808 357.507 127.963C358.104 128.093 358.667 128.255 359.199 128.449C359.743 128.631 360.184 128.909 360.521 129.285C360.871 129.648 361.045 130.179 361.045 130.879C361.058 131.748 360.728 132.467 360.054 133.037C359.393 133.594 358.492 133.873 357.352 133.873ZM367.13 133.873C366.21 133.873 365.394 133.666 364.681 133.251C363.968 132.823 363.404 132.234 362.989 131.482C362.588 130.73 362.387 129.842 362.387 128.819C362.387 127.808 362.588 126.926 362.989 126.175C363.391 125.41 363.949 124.82 364.661 124.406C365.387 123.978 366.223 123.764 367.169 123.764C368.102 123.764 368.906 123.978 369.58 124.406C370.267 124.82 370.791 125.371 371.154 126.058C371.517 126.745 371.699 127.484 371.699 128.274C371.699 128.417 371.692 128.559 371.679 128.702C371.679 128.845 371.679 129.007 371.679 129.188H364C364.039 129.927 364.208 130.542 364.506 131.035C364.817 131.514 365.199 131.877 365.653 132.123C366.119 132.37 366.612 132.493 367.13 132.493C367.804 132.493 368.368 132.337 368.821 132.026C369.275 131.715 369.606 131.294 369.813 130.763H371.426C371.167 131.657 370.668 132.402 369.93 132.998C369.204 133.581 368.271 133.873 367.13 133.873ZM367.13 125.144C366.353 125.144 365.659 125.384 365.05 125.864C364.454 126.33 364.111 127.017 364.02 127.924H370.085C370.046 127.056 369.748 126.376 369.191 125.883C368.634 125.391 367.947 125.144 367.13 125.144ZM371.977 135.953L373.105 131.657H374.796L373.105 135.953H371.977ZM3.05856 165.64V152.032H4.69152L11.9426 162.938V152.032H13.5756V165.64H11.9426L4.69152 154.734V165.64H3.05856ZM18.9887 165.873C18.1852 165.873 17.5178 165.737 16.9864 165.465C16.455 165.193 16.0598 164.83 15.8006 164.376C15.5414 163.923 15.4118 163.43 15.4118 162.899C15.4118 161.914 15.7876 161.156 16.5393 160.624C17.291 160.093 18.3148 159.827 19.6108 159.827H22.2158V159.711C22.2158 158.868 21.9954 158.233 21.5548 157.805C21.1142 157.365 20.5245 157.144 19.7858 157.144C19.1507 157.144 18.5999 157.306 18.1334 157.63C17.6798 157.942 17.3946 158.402 17.278 159.011H15.6062C15.671 158.311 15.9042 157.721 16.306 157.242C16.7207 156.762 17.2326 156.399 17.8418 156.153C18.4509 155.894 19.0989 155.764 19.7858 155.764C21.1336 155.764 22.1445 156.127 22.8184 156.853C23.5053 157.566 23.8487 158.518 23.8487 159.711V165.64H22.3907L22.2935 163.91C22.0214 164.454 21.6196 164.92 21.0882 165.309C20.5698 165.685 19.87 165.873 18.9887 165.873ZM19.2414 164.493C19.8635 164.493 20.3949 164.331 20.8355 164.007C21.2891 163.683 21.6326 163.262 21.8658 162.743C22.0991 162.225 22.2158 161.68 22.2158 161.11V161.091H19.7469C18.7878 161.091 18.1074 161.259 17.7057 161.596C17.3169 161.92 17.1225 162.328 17.1225 162.821C17.1225 163.326 17.3039 163.735 17.6668 164.046C18.0426 164.344 18.5675 164.493 19.2414 164.493ZM29.5255 162.607C28.9812 162.607 28.4822 162.536 28.0286 162.393L27.0566 163.307C27.1992 163.411 27.3742 163.501 27.5815 163.579C27.8018 163.644 28.1129 163.709 28.5146 163.774C28.9164 163.825 29.4802 163.884 30.2059 163.948C31.5019 164.039 32.4286 164.337 32.9858 164.843C33.5431 165.348 33.8218 166.009 33.8218 166.826C33.8218 167.383 33.6662 167.914 33.3552 168.42C33.0571 168.925 32.5906 169.34 31.9555 169.664C31.3334 169.988 30.5299 170.15 29.545 170.15C28.6766 170.15 27.9055 170.033 27.2316 169.8C26.5577 169.58 26.0328 169.236 25.657 168.77C25.2811 168.316 25.0932 167.739 25.0932 167.039C25.0932 166.677 25.1904 166.281 25.3848 165.854C25.5792 165.439 25.9421 165.044 26.4734 164.668C26.1883 164.551 25.9421 164.428 25.7347 164.298C25.5403 164.156 25.3589 164 25.1904 163.832V163.385L26.8428 161.752C26.0782 161.104 25.6958 160.248 25.6958 159.186C25.6958 158.551 25.8449 157.974 26.143 157.456C26.441 156.937 26.8752 156.529 27.4454 156.231C28.0157 155.92 28.709 155.764 29.5255 155.764C30.0828 155.764 30.5882 155.842 31.0418 155.998H34.5994V157.222L32.7914 157.3C33.1673 157.844 33.3552 158.473 33.3552 159.186C33.3552 159.821 33.1997 160.397 32.8886 160.916C32.5906 161.434 32.1564 161.849 31.5862 162.16C31.0289 162.458 30.342 162.607 29.5255 162.607ZM29.5255 161.266C30.2124 161.266 30.7567 161.091 31.1585 160.741C31.5732 160.378 31.7806 159.86 31.7806 159.186C31.7806 158.525 31.5732 158.019 31.1585 157.669C30.7567 157.306 30.2124 157.125 29.5255 157.125C28.8257 157.125 28.2684 157.306 27.8537 157.669C27.4519 158.019 27.251 158.525 27.251 159.186C27.251 159.86 27.4519 160.378 27.8537 160.741C28.2684 161.091 28.8257 161.266 29.5255 161.266ZM26.6873 166.884C26.6873 167.532 26.9594 168.011 27.5038 168.322C28.0481 168.646 28.7285 168.808 29.545 168.808C30.3485 168.808 30.99 168.634 31.4695 168.284C31.962 167.934 32.2082 167.467 32.2082 166.884C32.2082 166.469 32.0398 166.106 31.7028 165.795C31.3658 165.497 30.7438 165.322 29.8366 165.27C29.1238 165.219 28.5082 165.154 27.9898 165.076C27.4584 165.361 27.1085 165.666 26.94 165.99C26.7715 166.327 26.6873 166.625 26.6873 166.884ZM35.8582 169.917V155.998H37.3357L37.4912 157.592C37.8022 157.125 38.2429 156.704 38.8131 156.328C39.3963 155.952 40.135 155.764 41.0293 155.764C41.9883 155.764 42.8242 155.985 43.5371 156.425C44.2499 156.866 44.8007 157.468 45.1895 158.233C45.5912 158.998 45.7921 159.866 45.7921 160.838C45.7921 161.81 45.5912 162.678 45.1895 163.443C44.8007 164.195 44.2434 164.791 43.5176 165.232C42.8048 165.659 41.9689 165.873 41.0098 165.873C40.2193 165.873 39.513 165.711 38.8909 165.387C38.2818 165.063 37.8152 164.609 37.4912 164.026V169.917H35.8582ZM40.8349 164.454C41.4829 164.454 42.0531 164.305 42.5456 164.007C43.0381 163.696 43.4269 163.268 43.712 162.724C43.9971 162.179 44.1397 161.544 44.1397 160.819C44.1397 160.093 43.9971 159.458 43.712 158.914C43.4269 158.369 43.0381 157.948 42.5456 157.65C42.0531 157.339 41.4829 157.183 40.8349 157.183C40.1869 157.183 39.6166 157.339 39.1242 157.65C38.6317 157.948 38.2429 158.369 37.9578 158.914C37.6726 159.458 37.5301 160.093 37.5301 160.819C37.5301 161.544 37.6726 162.179 37.9578 162.724C38.2429 163.268 38.6317 163.696 39.1242 164.007C39.6166 164.305 40.1869 164.454 40.8349 164.454ZM51.0006 165.873C49.8602 165.873 48.953 165.53 48.279 164.843C47.6051 164.143 47.2682 163.074 47.2682 161.635V155.998H48.9011V161.46C48.9011 163.469 49.7241 164.473 51.37 164.473C52.2124 164.473 52.9058 164.175 53.4501 163.579C54.0074 162.97 54.286 162.108 54.286 160.994V155.998H55.919V165.64H54.4415L54.3249 163.91C54.0268 164.519 53.5797 164.998 52.9835 165.348C52.4003 165.698 51.7394 165.873 51.0006 165.873ZM58.0236 165.64V155.998H59.5011L59.6372 157.844C59.9353 157.209 60.3889 156.704 60.998 156.328C61.6071 155.952 62.3588 155.764 63.253 155.764V157.475H62.8059C62.2357 157.475 61.7108 157.579 61.2313 157.786C60.7517 157.98 60.3694 158.317 60.0843 158.797C59.7992 159.276 59.6566 159.937 59.6566 160.78V165.64H58.0236ZM62.5927 167.953L63.7202 163.657H65.4115L63.7202 167.953H62.5927ZM71.4259 165.64V152.032H73.331L78.2299 161.518L83.0899 152.032H85.0144V165.64H83.3815V154.948L78.8325 163.696H77.6078L73.0588 154.967V165.64H71.4259ZM90.4125 165.873C89.609 165.873 88.9416 165.737 88.4102 165.465C87.8788 165.193 87.4836 164.83 87.2244 164.376C86.9652 163.923 86.8356 163.43 86.8356 162.899C86.8356 161.914 87.2114 161.156 87.9631 160.624C88.7148 160.093 89.7386 159.827 91.0346 159.827H93.6396V159.711C93.6396 158.868 93.4192 158.233 92.9786 157.805C92.538 157.365 91.9483 157.144 91.2096 157.144C90.5745 157.144 90.0237 157.306 89.5572 157.63C89.1036 157.942 88.8184 158.402 88.7018 159.011H87.03C87.0948 158.311 87.328 157.721 87.7298 157.242C88.1445 156.762 88.6564 156.399 89.2656 156.153C89.8747 155.894 90.5227 155.764 91.2096 155.764C92.5574 155.764 93.5683 156.127 94.2422 156.853C94.9291 157.566 95.2725 158.518 95.2725 159.711V165.64H93.8145L93.7173 163.91C93.4452 164.454 93.0434 164.92 92.512 165.309C91.9936 165.685 91.2938 165.873 90.4125 165.873ZM90.6652 164.493C91.2873 164.493 91.8187 164.331 92.2593 164.007C92.7129 163.683 93.0564 163.262 93.2896 162.743C93.5229 162.225 93.6396 161.68 93.6396 161.11V161.091H91.1707C90.2116 161.091 89.5312 161.259 89.1295 161.596C88.7407 161.92 88.5463 162.328 88.5463 162.821C88.5463 163.326 88.7277 163.735 89.0906 164.046C89.4664 164.344 89.9913 164.493 90.6652 164.493ZM97.1391 165.64V151.643H98.772V157.65C99.096 157.054 99.5561 156.594 100.152 156.27C100.748 155.933 101.396 155.764 102.096 155.764C103.211 155.764 104.105 156.114 104.779 156.814C105.453 157.501 105.79 158.564 105.79 160.002V165.64H104.176V160.177C104.176 158.168 103.366 157.164 101.746 157.164C100.904 157.164 100.198 157.468 99.6274 158.078C99.0571 158.674 98.772 159.529 98.772 160.644V165.64H97.1391ZM110.888 165.873C110.085 165.873 109.417 165.737 108.886 165.465C108.355 165.193 107.959 164.83 107.7 164.376C107.441 163.923 107.311 163.43 107.311 162.899C107.311 161.914 107.687 161.156 108.439 160.624C109.191 160.093 110.214 159.827 111.51 159.827H114.115V159.711C114.115 158.868 113.895 158.233 113.454 157.805C113.014 157.365 112.424 157.144 111.685 157.144C111.05 157.144 110.5 157.306 110.033 157.63C109.579 157.942 109.294 158.402 109.178 159.011H107.506C107.571 158.311 107.804 157.721 108.206 157.242C108.62 156.762 109.132 156.399 109.741 156.153C110.35 155.894 110.998 155.764 111.685 155.764C113.033 155.764 114.044 156.127 114.718 156.853C115.405 157.566 115.748 158.518 115.748 159.711V165.64H114.29L114.193 163.91C113.921 164.454 113.519 164.92 112.988 165.309C112.469 165.685 111.77 165.873 110.888 165.873ZM111.141 164.493C111.763 164.493 112.294 164.331 112.735 164.007C113.189 163.683 113.532 163.262 113.765 162.743C113.999 162.225 114.115 161.68 114.115 161.11V161.091H111.646C110.687 161.091 110.007 161.259 109.605 161.596C109.216 161.92 109.022 162.328 109.022 162.821C109.022 163.326 109.204 163.735 109.566 164.046C109.942 164.344 110.467 164.493 111.141 164.493ZM117.615 165.64V155.998H119.092L119.228 157.844C119.526 157.209 119.98 156.704 120.589 156.328C121.198 155.952 121.95 155.764 122.844 155.764V157.475H122.397C121.827 157.475 121.302 157.579 120.822 157.786C120.343 157.98 119.961 158.317 119.675 158.797C119.39 159.276 119.248 159.937 119.248 160.78V165.64H117.615ZM127.301 165.873C126.498 165.873 125.83 165.737 125.299 165.465C124.768 165.193 124.372 164.83 124.113 164.376C123.854 163.923 123.724 163.43 123.724 162.899C123.724 161.914 124.1 161.156 124.852 160.624C125.604 160.093 126.628 159.827 127.924 159.827H130.528V159.711C130.528 158.868 130.308 158.233 129.868 157.805C129.427 157.365 128.837 157.144 128.098 157.144C127.463 157.144 126.913 157.306 126.446 157.63C125.992 157.942 125.707 158.402 125.591 159.011H123.919C123.984 158.311 124.217 157.721 124.619 157.242C125.033 156.762 125.545 156.399 126.154 156.153C126.764 155.894 127.412 155.764 128.098 155.764C129.446 155.764 130.457 156.127 131.131 156.853C131.818 157.566 132.161 158.518 132.161 159.711V165.64H130.703L130.606 163.91C130.334 164.454 129.932 164.92 129.401 165.309C128.883 165.685 128.183 165.873 127.301 165.873ZM127.554 164.493C128.176 164.493 128.708 164.331 129.148 164.007C129.602 163.683 129.945 163.262 130.179 162.743C130.412 162.225 130.528 161.68 130.528 161.11V161.091H128.06C127.101 161.091 126.42 161.259 126.018 161.596C125.63 161.92 125.435 162.328 125.435 162.821C125.435 163.326 125.617 163.735 125.98 164.046C126.355 164.344 126.88 164.493 127.554 164.493ZM137.722 165.873C136.568 165.873 135.609 165.581 134.844 164.998C134.08 164.415 133.633 163.624 133.503 162.627H135.175C135.279 163.132 135.544 163.573 135.972 163.948C136.413 164.311 137.002 164.493 137.741 164.493C138.428 164.493 138.933 164.35 139.257 164.065C139.581 163.767 139.743 163.417 139.743 163.015C139.743 162.432 139.53 162.043 139.102 161.849C138.687 161.655 138.097 161.48 137.333 161.324C136.814 161.22 136.296 161.071 135.778 160.877C135.259 160.683 134.825 160.41 134.475 160.06C134.125 159.698 133.95 159.225 133.95 158.641C133.95 157.799 134.261 157.112 134.883 156.581C135.518 156.036 136.374 155.764 137.449 155.764C138.473 155.764 139.309 156.023 139.957 156.542C140.618 157.047 141 157.773 141.104 158.719H139.491C139.426 158.227 139.212 157.844 138.849 157.572C138.499 157.287 138.026 157.144 137.43 157.144C136.847 157.144 136.393 157.268 136.069 157.514C135.758 157.76 135.603 158.084 135.603 158.486C135.603 158.875 135.804 159.179 136.205 159.4C136.62 159.62 137.177 159.808 137.877 159.963C138.473 160.093 139.037 160.255 139.568 160.449C140.113 160.631 140.553 160.909 140.89 161.285C141.24 161.648 141.415 162.179 141.415 162.879C141.428 163.748 141.098 164.467 140.424 165.037C139.763 165.594 138.862 165.873 137.722 165.873ZM143.165 165.64V151.643H144.798V157.65C145.122 157.054 145.582 156.594 146.178 156.27C146.774 155.933 147.422 155.764 148.122 155.764C149.237 155.764 150.131 156.114 150.805 156.814C151.479 157.501 151.816 158.564 151.816 160.002V165.64H150.202V160.177C150.202 158.168 149.392 157.164 147.772 157.164C146.93 157.164 146.223 157.468 145.653 158.078C145.083 158.674 144.798 159.529 144.798 160.644V165.64H143.165ZM157.517 165.64C156.635 165.64 155.942 165.426 155.437 164.998C154.931 164.571 154.678 163.799 154.678 162.685V157.378H153.007V155.998H154.678L154.892 153.684H156.311V155.998H159.15V157.378H156.311V162.685C156.311 163.294 156.435 163.709 156.681 163.929C156.927 164.136 157.361 164.24 157.983 164.24H158.994V165.64H157.517ZM160.641 165.64V155.998H162.118L162.255 157.844C162.553 157.209 163.006 156.704 163.615 156.328C164.224 155.952 164.976 155.764 165.87 155.764V157.475H165.423C164.853 157.475 164.328 157.579 163.849 157.786C163.369 157.98 162.987 158.317 162.702 158.797C162.417 159.276 162.274 159.937 162.274 160.78V165.64H160.641ZM170.328 165.873C169.524 165.873 168.857 165.737 168.325 165.465C167.794 165.193 167.399 164.83 167.139 164.376C166.88 163.923 166.751 163.43 166.751 162.899C166.751 161.914 167.127 161.156 167.878 160.624C168.63 160.093 169.654 159.827 170.95 159.827H173.555V159.711C173.555 158.868 173.334 158.233 172.894 157.805C172.453 157.365 171.863 157.144 171.125 157.144C170.49 157.144 169.939 157.306 169.472 157.63C169.019 157.942 168.734 158.402 168.617 159.011H166.945C167.01 158.311 167.243 157.721 167.645 157.242C168.06 156.762 168.572 156.399 169.181 156.153C169.79 155.894 170.438 155.764 171.125 155.764C172.473 155.764 173.483 156.127 174.157 156.853C174.844 157.566 175.188 158.518 175.188 159.711V165.64H173.73L173.632 163.91C173.36 164.454 172.959 164.92 172.427 165.309C171.909 165.685 171.209 165.873 170.328 165.873ZM170.58 164.493C171.202 164.493 171.734 164.331 172.174 164.007C172.628 163.683 172.971 163.262 173.205 162.743C173.438 162.225 173.555 161.68 173.555 161.11V161.091H171.086C170.127 161.091 169.446 161.259 169.045 161.596C168.656 161.92 168.461 162.328 168.461 162.821C168.461 163.326 168.643 163.735 169.006 164.046C169.382 164.344 169.906 164.493 170.58 164.493ZM187.875 165.64V162.724H180.974V161.46L187.584 152.032H189.489V161.285H191.511V162.724H189.489V165.64H187.875ZM182.782 161.285H187.953V153.84L182.782 161.285ZM199.063 165.64V162.724H192.161V161.46L198.771 152.032H200.676V161.285H202.698V162.724H200.676V165.64H199.063ZM193.969 161.285H199.14V153.84L193.969 161.285ZM209.394 165.873C208.189 165.873 207.146 165.581 206.264 164.998C205.396 164.402 204.729 163.579 204.262 162.529C203.796 161.467 203.562 160.235 203.562 158.836C203.562 157.436 203.796 156.211 204.262 155.162C204.729 154.099 205.396 153.276 206.264 152.693C207.146 152.097 208.189 151.798 209.394 151.798C210.6 151.798 211.636 152.097 212.505 152.693C213.373 153.276 214.04 154.099 214.507 155.162C214.974 156.211 215.207 157.436 215.207 158.836C215.207 160.235 214.974 161.467 214.507 162.529C214.04 163.579 213.373 164.402 212.505 164.998C211.636 165.581 210.6 165.873 209.394 165.873ZM209.394 164.434C210.185 164.434 210.891 164.214 211.513 163.774C212.148 163.32 212.641 162.678 212.991 161.849C213.354 161.007 213.535 160.002 213.535 158.836C213.535 157.669 213.354 156.671 212.991 155.842C212.641 155.013 212.148 154.378 211.513 153.937C210.891 153.483 210.185 153.256 209.394 153.256C208.591 153.256 207.878 153.483 207.256 153.937C206.634 154.378 206.141 155.013 205.778 155.842C205.416 156.671 205.234 157.669 205.234 158.836C205.234 160.002 205.416 161.007 205.778 161.849C206.141 162.678 206.634 163.32 207.256 163.774C207.878 164.214 208.591 164.434 209.394 164.434ZM222.29 165.873C221.085 165.873 220.041 165.581 219.16 164.998C218.292 164.402 217.624 163.579 217.158 162.529C216.691 161.467 216.458 160.235 216.458 158.836C216.458 157.436 216.691 156.211 217.158 155.162C217.624 154.099 218.292 153.276 219.16 152.693C220.041 152.097 221.085 151.798 222.29 151.798C223.495 151.798 224.532 152.097 225.4 152.693C226.269 153.276 226.936 154.099 227.403 155.162C227.869 156.211 228.103 157.436 228.103 158.836C228.103 160.235 227.869 161.467 227.403 162.529C226.936 163.579 226.269 164.402 225.4 164.998C224.532 165.581 223.495 165.873 222.29 165.873ZM222.29 164.434C223.081 164.434 223.787 164.214 224.409 163.774C225.044 163.32 225.537 162.678 225.886 161.849C226.249 161.007 226.431 160.002 226.431 158.836C226.431 157.669 226.249 156.671 225.886 155.842C225.537 155.013 225.044 154.378 224.409 153.937C223.787 153.483 223.081 153.256 222.29 153.256C221.487 153.256 220.774 153.483 220.152 153.937C219.53 154.378 219.037 155.013 218.674 155.842C218.311 156.671 218.13 157.669 218.13 158.836C218.13 160.002 218.311 161.007 218.674 161.849C219.037 162.678 219.53 163.32 220.152 163.774C220.774 164.214 221.487 164.434 222.29 164.434ZM235.186 165.873C233.98 165.873 232.937 165.581 232.056 164.998C231.188 164.402 230.52 163.579 230.054 162.529C229.587 161.467 229.354 160.235 229.354 158.836C229.354 157.436 229.587 156.211 230.054 155.162C230.52 154.099 231.188 153.276 232.056 152.693C232.937 152.097 233.98 151.798 235.186 151.798C236.391 151.798 237.428 152.097 238.296 152.693C239.164 153.276 239.832 154.099 240.298 155.162C240.765 156.211 240.998 157.436 240.998 158.836C240.998 160.235 240.765 161.467 240.298 162.529C239.832 163.579 239.164 164.402 238.296 164.998C237.428 165.581 236.391 165.873 235.186 165.873ZM235.186 164.434C235.976 164.434 236.683 164.214 237.305 163.774C237.94 163.32 238.432 162.678 238.782 161.849C239.145 161.007 239.326 160.002 239.326 158.836C239.326 157.669 239.145 156.671 238.782 155.842C238.432 155.013 237.94 154.378 237.305 153.937C236.683 153.483 235.976 153.256 235.186 153.256C234.382 153.256 233.669 153.483 233.047 153.937C232.425 154.378 231.933 155.013 231.57 155.842C231.207 156.671 231.026 157.669 231.026 158.836C231.026 160.002 231.207 161.007 231.57 161.849C231.933 162.678 232.425 163.32 233.047 163.774C233.669 164.214 234.382 164.434 235.186 164.434ZM247.265 165.873C246.41 165.873 245.677 165.705 245.068 165.368C244.459 165.031 243.973 164.584 243.61 164.026C243.26 163.456 243.046 162.827 242.969 162.141H244.485C244.615 162.879 244.926 163.45 245.418 163.851C245.911 164.253 246.533 164.454 247.284 164.454C248.321 164.454 249.183 163.974 249.87 163.015C250.557 162.043 250.926 160.534 250.978 158.486C250.667 159.095 250.168 159.626 249.481 160.08C248.807 160.521 247.991 160.741 247.032 160.741C246.267 160.741 245.541 160.559 244.854 160.197C244.168 159.834 243.61 159.328 243.183 158.68C242.755 158.019 242.541 157.248 242.541 156.367C242.541 155.602 242.729 154.87 243.105 154.17C243.494 153.47 244.038 152.9 244.738 152.459C245.438 152.019 246.274 151.798 247.246 151.798C248.23 151.798 249.06 151.986 249.734 152.362C250.408 152.725 250.946 153.218 251.347 153.84C251.762 154.462 252.06 155.162 252.242 155.939C252.436 156.704 252.533 157.488 252.533 158.291C252.533 159.795 252.326 161.117 251.911 162.257C251.496 163.385 250.894 164.272 250.103 164.92C249.326 165.556 248.38 165.873 247.265 165.873ZM247.362 159.322C247.971 159.322 248.516 159.186 248.995 158.914C249.475 158.628 249.857 158.253 250.142 157.786C250.427 157.319 250.57 156.814 250.57 156.27C250.57 155.686 250.427 155.168 250.142 154.714C249.857 154.248 249.475 153.885 248.995 153.626C248.516 153.367 247.971 153.237 247.362 153.237C246.753 153.237 246.209 153.367 245.729 153.626C245.25 153.885 244.874 154.248 244.602 154.714C244.33 155.168 244.193 155.693 244.193 156.289C244.193 157.209 244.492 157.948 245.088 158.505C245.697 159.05 246.455 159.322 247.362 159.322ZM253.036 167.953L254.164 163.657H255.855L254.164 167.953H253.036ZM261.87 165.64V152.032H263.503V165.64H261.87ZM265.707 165.64V155.998H267.185L267.282 157.728C267.593 157.119 268.04 156.639 268.623 156.289C269.207 155.939 269.868 155.764 270.606 155.764C271.747 155.764 272.654 156.114 273.328 156.814C274.015 157.501 274.358 158.564 274.358 160.002V165.64H272.725V160.177C272.725 158.168 271.896 157.164 270.237 157.164C269.408 157.164 268.714 157.468 268.157 158.078C267.613 158.674 267.34 159.529 267.34 160.644V165.64H265.707ZM280.623 165.873C279.664 165.873 278.822 165.653 278.096 165.212C277.383 164.771 276.826 164.169 276.424 163.404C276.035 162.64 275.841 161.771 275.841 160.799C275.841 159.827 276.042 158.965 276.444 158.214C276.845 157.449 277.403 156.853 278.115 156.425C278.828 155.985 279.671 155.764 280.643 155.764C281.433 155.764 282.133 155.926 282.742 156.25C283.351 156.574 283.824 157.028 284.161 157.611V151.643H285.794V165.64H284.317L284.161 164.046C283.85 164.512 283.403 164.933 282.82 165.309C282.237 165.685 281.504 165.873 280.623 165.873ZM280.798 164.454C281.446 164.454 282.016 164.305 282.509 164.007C283.014 163.696 283.403 163.268 283.675 162.724C283.96 162.179 284.103 161.544 284.103 160.819C284.103 160.093 283.96 159.458 283.675 158.914C283.403 158.369 283.014 157.948 282.509 157.65C282.016 157.339 281.446 157.183 280.798 157.183C280.163 157.183 279.593 157.339 279.087 157.65C278.595 157.948 278.206 158.369 277.921 158.914C277.649 159.458 277.513 160.093 277.513 160.819C277.513 161.544 277.649 162.179 277.921 162.724C278.206 163.268 278.595 163.696 279.087 164.007C279.593 164.305 280.163 164.454 280.798 164.454ZM288.864 153.859C288.54 153.859 288.268 153.755 288.048 153.548C287.84 153.328 287.737 153.056 287.737 152.732C287.737 152.421 287.84 152.161 288.048 151.954C288.268 151.747 288.54 151.643 288.864 151.643C289.175 151.643 289.441 151.747 289.661 151.954C289.882 152.161 289.992 152.421 289.992 152.732C289.992 153.056 289.882 153.328 289.661 153.548C289.441 153.755 289.175 153.859 288.864 153.859ZM288.048 165.64V155.998H289.681V165.64H288.048ZM295.148 165.873C294.345 165.873 293.677 165.737 293.146 165.465C292.615 165.193 292.219 164.83 291.96 164.376C291.701 163.923 291.571 163.43 291.571 162.899C291.571 161.914 291.947 161.156 292.699 160.624C293.451 160.093 294.474 159.827 295.77 159.827H298.375V159.711C298.375 158.868 298.155 158.233 297.714 157.805C297.274 157.365 296.684 157.144 295.945 157.144C295.31 157.144 294.76 157.306 294.293 157.63C293.839 157.942 293.554 158.402 293.438 159.011H291.766C291.831 158.311 292.064 157.721 292.466 157.242C292.88 156.762 293.392 156.399 294.001 156.153C294.611 155.894 295.259 155.764 295.945 155.764C297.293 155.764 298.304 156.127 298.978 156.853C299.665 157.566 300.008 158.518 300.008 159.711V165.64H298.55L298.453 163.91C298.181 164.454 297.779 164.92 297.248 165.309C296.73 165.685 296.03 165.873 295.148 165.873ZM295.401 164.493C296.023 164.493 296.555 164.331 296.995 164.007C297.449 163.683 297.792 163.262 298.026 162.743C298.259 162.225 298.375 161.68 298.375 161.11V161.091H295.907C294.948 161.091 294.267 161.259 293.865 161.596C293.477 161.92 293.282 162.328 293.282 162.821C293.282 163.326 293.464 163.735 293.826 164.046C294.202 164.344 294.727 164.493 295.401 164.493Z" fill="black"/>
<path d="M9.02664 221.353C7.69176 221.353 6.53832 221.062 5.56632 220.479C4.60728 219.882 3.86208 219.059 3.33072 218.01C2.79936 216.947 2.53368 215.716 2.53368 214.316C2.53368 212.929 2.79936 211.711 3.33072 210.661C3.86208 209.599 4.60728 208.769 5.56632 208.173C6.53832 207.577 7.69176 207.279 9.02664 207.279C10.5818 207.279 11.8454 207.655 12.8174 208.406C13.8024 209.145 14.431 210.182 14.7031 211.517H12.8952C12.6878 210.674 12.2602 210 11.6122 209.495C10.9771 208.977 10.1153 208.717 9.02664 208.717C8.05464 208.717 7.20576 208.944 6.48 209.398C5.75424 209.838 5.19048 210.48 4.78872 211.322C4.39992 212.152 4.20552 213.15 4.20552 214.316C4.20552 215.483 4.39992 216.487 4.78872 217.329C5.19048 218.159 5.75424 218.8 6.48 219.254C7.20576 219.695 8.05464 219.915 9.02664 219.915C10.1153 219.915 10.9771 219.669 11.6122 219.176C12.2602 218.671 12.6878 218.003 12.8952 217.174H14.7031C14.431 218.483 13.8024 219.507 12.8174 220.245C11.8454 220.984 10.5818 221.353 9.02664 221.353ZM20.7631 221.353C19.8559 221.353 19.0394 221.146 18.3136 220.731C17.5879 220.317 17.0112 219.733 16.5835 218.982C16.1688 218.217 15.9614 217.323 15.9614 216.299C15.9614 215.275 16.1752 214.387 16.6029 213.636C17.0306 212.871 17.6073 212.281 18.3331 211.867C19.0718 211.452 19.8948 211.245 20.802 211.245C21.7092 211.245 22.5256 211.452 23.2514 211.867C23.9772 212.281 24.5474 212.871 24.9621 213.636C25.3898 214.387 25.6036 215.275 25.6036 216.299C25.6036 217.323 25.3898 218.217 24.9621 218.982C24.5344 219.733 23.9512 220.317 23.2125 220.731C22.4868 221.146 21.6703 221.353 20.7631 221.353ZM20.7631 219.954C21.3204 219.954 21.8388 219.818 22.3183 219.545C22.7978 219.273 23.1866 218.865 23.4847 218.321C23.7828 217.776 23.9318 217.103 23.9318 216.299C23.9318 215.495 23.7828 214.822 23.4847 214.277C23.1996 213.733 22.8172 213.325 22.3377 213.053C21.8582 212.78 21.3463 212.644 20.802 212.644C20.2447 212.644 19.7263 212.78 19.2468 213.053C18.7672 213.325 18.3784 213.733 18.0804 214.277C17.7823 214.822 17.6332 215.495 17.6332 216.299C17.6332 217.103 17.7823 217.776 18.0804 218.321C18.3784 218.865 18.7608 219.273 19.2273 219.545C19.7068 219.818 20.2188 219.954 20.7631 219.954ZM27.291 221.12V211.478H28.7684L28.8656 213.208C29.1767 212.599 29.6238 212.119 30.207 211.769C30.7902 211.42 31.4511 211.245 32.1899 211.245C33.3303 211.245 34.2375 211.595 34.9115 212.294C35.5983 212.981 35.9418 214.044 35.9418 215.483V221.12H34.3088V215.657C34.3088 213.649 33.4794 212.644 31.8205 212.644C30.9911 212.644 30.2977 212.949 29.7404 213.558C29.1961 214.154 28.9239 215.009 28.9239 216.124V221.12H27.291ZM41.6429 221.12C40.7616 221.12 40.0682 220.906 39.5628 220.479C39.0573 220.051 38.8046 219.28 38.8046 218.165V212.858H37.1328V211.478H38.8046L39.0185 209.165H40.4376V211.478H43.2758V212.858H40.4376V218.165C40.4376 218.774 40.5607 219.189 40.8069 219.409C41.0532 219.617 41.4873 219.72 42.1094 219.72H43.1203V221.12H41.6429ZM47.9748 221.353C47.1713 221.353 46.5039 221.217 45.9725 220.945C45.4412 220.673 45.0459 220.31 44.7867 219.857C44.5275 219.403 44.3979 218.91 44.3979 218.379C44.3979 217.394 44.7737 216.636 45.5254 216.105C46.2771 215.573 47.3009 215.308 48.5969 215.308H51.2019V215.191C51.2019 214.349 50.9816 213.713 50.5409 213.286C50.1003 212.845 49.5106 212.625 48.7719 212.625C48.1368 212.625 47.586 212.787 47.1195 213.111C46.6659 213.422 46.3808 213.882 46.2641 214.491H44.5923C44.6571 213.791 44.8904 213.202 45.2921 212.722C45.7068 212.243 46.2188 211.88 46.8279 211.633C47.437 211.374 48.085 211.245 48.7719 211.245C50.1197 211.245 51.1306 211.607 51.8045 212.333C52.4914 213.046 52.8348 213.999 52.8348 215.191V221.12H51.3768L51.2796 219.39C51.0075 219.934 50.6057 220.401 50.0744 220.79C49.556 221.165 48.8561 221.353 47.9748 221.353ZM48.2276 219.973C48.8496 219.973 49.381 219.811 49.8216 219.487C50.2752 219.163 50.6187 218.742 50.852 218.224C51.0852 217.705 51.2019 217.161 51.2019 216.591V216.571H48.733C47.774 216.571 47.0936 216.74 46.6918 217.077C46.303 217.401 46.1086 217.809 46.1086 218.301C46.1086 218.807 46.29 219.215 46.6529 219.526C47.0288 219.824 47.5536 219.973 48.2276 219.973ZM59.1337 221.353C58.2135 221.353 57.3841 221.146 56.6454 220.731C55.9196 220.304 55.3429 219.714 54.9152 218.962C54.5005 218.198 54.2931 217.31 54.2931 216.299C54.2931 215.288 54.5005 214.407 54.9152 213.655C55.3429 212.891 55.9196 212.301 56.6454 211.886C57.3841 211.458 58.2135 211.245 59.1337 211.245C60.2742 211.245 61.2332 211.543 62.0108 212.139C62.8014 212.735 63.3003 213.532 63.5077 214.53H61.8359C61.7063 213.934 61.3887 213.474 60.8833 213.15C60.3779 212.813 59.7882 212.644 59.1143 212.644C58.5699 212.644 58.058 212.78 57.5785 213.053C57.099 213.325 56.7102 213.733 56.4121 214.277C56.114 214.822 55.965 215.495 55.965 216.299C55.965 217.103 56.114 217.776 56.4121 218.321C56.7102 218.865 57.099 219.28 57.5785 219.565C58.058 219.837 58.5699 219.973 59.1143 219.973C59.7882 219.973 60.3779 219.811 60.8833 219.487C61.3887 219.15 61.7063 218.677 61.8359 218.068H63.5077C63.3133 219.04 62.8208 219.831 62.0303 220.44C61.2397 221.049 60.2742 221.353 59.1337 221.353ZM68.7495 221.12C67.8682 221.12 67.1749 220.906 66.6694 220.479C66.164 220.051 65.9113 219.28 65.9113 218.165V212.858H64.2394V211.478H65.9113L66.1251 209.165H67.5442V211.478H70.3825V212.858H67.5442V218.165C67.5442 218.774 67.6674 219.189 67.9136 219.409C68.1598 219.617 68.594 219.72 69.2161 219.72H70.227V221.12H68.7495ZM76.5327 221.12V207.512H78.1656L85.4167 218.418V207.512H87.0497V221.12H85.4167L78.1656 210.214V221.12H76.5327ZM92.7739 221.353C91.6334 221.353 90.7262 221.01 90.0523 220.323C89.3784 219.623 89.0414 218.554 89.0414 217.115V211.478H90.6744V216.941C90.6744 218.949 91.4973 219.954 93.1432 219.954C93.9856 219.954 94.679 219.656 95.2233 219.059C95.7806 218.45 96.0592 217.589 96.0592 216.474V211.478H97.6922V221.12H96.2148L96.0981 219.39C95.8 219.999 95.3529 220.479 94.7568 220.829C94.1736 221.178 93.5126 221.353 92.7739 221.353ZM99.7969 221.12V211.478H101.274L101.391 212.878C101.702 212.359 102.117 211.957 102.635 211.672C103.154 211.387 103.737 211.245 104.385 211.245C105.149 211.245 105.804 211.4 106.348 211.711C106.905 212.022 107.333 212.495 107.631 213.13C107.968 212.547 108.428 212.087 109.011 211.75C109.608 211.413 110.249 211.245 110.936 211.245C112.089 211.245 113.01 211.595 113.696 212.294C114.383 212.981 114.727 214.044 114.727 215.483V221.12H113.113V215.657C113.113 214.66 112.912 213.908 112.511 213.402C112.109 212.897 111.532 212.644 110.78 212.644C110.003 212.644 109.355 212.949 108.836 213.558C108.331 214.154 108.078 215.009 108.078 216.124V221.12H106.445V215.657C106.445 214.66 106.244 213.908 105.843 213.402C105.441 212.897 104.864 212.644 104.113 212.644C103.348 212.644 102.706 212.949 102.188 213.558C101.683 214.154 101.43 215.009 101.43 216.124V221.12H99.7969ZM121.755 221.353C120.964 221.353 120.258 221.191 119.636 220.867C119.027 220.543 118.56 220.09 118.236 219.507L118.081 221.12H116.603V207.123H118.236V213.072C118.547 212.605 118.988 212.184 119.558 211.808C120.141 211.433 120.88 211.245 121.774 211.245C122.733 211.245 123.569 211.465 124.282 211.906C124.995 212.346 125.546 212.949 125.935 213.713C126.336 214.478 126.537 215.346 126.537 216.318C126.537 217.29 126.336 218.159 125.935 218.923C125.546 219.675 124.988 220.271 124.263 220.712C123.55 221.14 122.714 221.353 121.755 221.353ZM121.58 219.934C122.228 219.934 122.798 219.785 123.291 219.487C123.783 219.176 124.172 218.748 124.457 218.204C124.742 217.66 124.885 217.025 124.885 216.299C124.885 215.573 124.742 214.938 124.457 214.394C124.172 213.85 123.783 213.428 123.291 213.13C122.798 212.819 122.228 212.664 121.58 212.664C120.932 212.664 120.362 212.819 119.869 213.13C119.377 213.428 118.988 213.85 118.703 214.394C118.418 214.938 118.275 215.573 118.275 216.299C118.275 217.025 118.418 217.66 118.703 218.204C118.988 218.748 119.377 219.176 119.869 219.487C120.362 219.785 120.932 219.934 121.58 219.934ZM132.562 221.353C131.642 221.353 130.826 221.146 130.113 220.731C129.4 220.304 128.836 219.714 128.422 218.962C128.02 218.211 127.819 217.323 127.819 216.299C127.819 215.288 128.02 214.407 128.422 213.655C128.823 212.891 129.381 212.301 130.093 211.886C130.819 211.458 131.655 211.245 132.601 211.245C133.534 211.245 134.338 211.458 135.012 211.886C135.699 212.301 136.223 212.852 136.586 213.539C136.949 214.225 137.131 214.964 137.131 215.755C137.131 215.897 137.124 216.04 137.111 216.182C137.111 216.325 137.111 216.487 137.111 216.668H129.432C129.471 217.407 129.64 218.023 129.938 218.515C130.249 218.995 130.631 219.358 131.085 219.604C131.551 219.85 132.044 219.973 132.562 219.973C133.236 219.973 133.8 219.818 134.254 219.507C134.707 219.196 135.038 218.774 135.245 218.243H136.858C136.599 219.137 136.1 219.882 135.362 220.479C134.636 221.062 133.703 221.353 132.562 221.353ZM132.562 212.625C131.785 212.625 131.091 212.865 130.482 213.344C129.886 213.811 129.543 214.498 129.452 215.405H135.517C135.478 214.536 135.18 213.856 134.623 213.364C134.066 212.871 133.379 212.625 132.562 212.625ZM138.712 221.12V211.478H140.189L140.325 213.325C140.623 212.69 141.077 212.184 141.686 211.808C142.295 211.433 143.047 211.245 143.941 211.245V212.955H143.494C142.924 212.955 142.399 213.059 141.919 213.266C141.44 213.461 141.058 213.798 140.772 214.277C140.487 214.757 140.345 215.418 140.345 216.26V221.12H138.712ZM150.316 221.217C149.992 221.217 149.72 221.114 149.5 220.906C149.292 220.686 149.189 220.42 149.189 220.109C149.189 219.798 149.292 219.539 149.5 219.332C149.72 219.111 149.992 219.001 150.316 219.001C150.627 219.001 150.886 219.111 151.094 219.332C151.314 219.539 151.424 219.798 151.424 220.109C151.424 220.42 151.314 220.686 151.094 220.906C150.886 221.114 150.627 221.217 150.316 221.217ZM150.316 213.461C149.992 213.461 149.72 213.357 149.5 213.15C149.292 212.929 149.189 212.664 149.189 212.353C149.189 212.042 149.292 211.782 149.5 211.575C149.72 211.355 149.992 211.245 150.316 211.245C150.627 211.245 150.886 211.355 151.094 211.575C151.314 211.782 151.424 212.042 151.424 212.353C151.424 212.664 151.314 212.929 151.094 213.15C150.886 213.357 150.627 213.461 150.316 213.461Z" fill="black"/>
<g clip-path="url(#clip0_4_466)">
<path d="M73.3141 27.6049H66.0649L64.9636 30.9234H58.9907L66.4429 10.619H72.9885L80.4112 30.9234H74.4072L73.3141 27.6049ZM69.6895 16.7217L67.5164 23.2825H71.8938L69.6895 16.7217Z" fill="#29539B"/>
<path d="M82.2703 9.61914H87.9519V30.9306H82.2703V9.61914Z" fill="#29539B"/>
<path d="M97.1992 14.5787C98.1448 14.5225 99.0881 14.72 99.9303 15.1504C100.772 15.5809 101.482 16.2283 101.986 17.025V14.7704H107.667V30.7426C107.667 35.0585 105.291 38.8644 99.4329 38.8644C94.36 38.8644 91.2279 36.332 90.8221 32.3329H96.4219C96.6542 33.3676 97.6394 33.9718 99.0892 33.9718C100.683 33.9718 101.989 33.2539 101.989 30.7491V28.6764C101.486 29.4727 100.776 30.1199 99.9342 30.5503C99.0923 30.9807 98.1494 31.1784 97.2041 31.1227C93.3487 31.1227 90.2756 27.9861 90.2756 22.8385C90.2756 17.691 93.3422 14.5787 97.1992 14.5787ZM99.0254 19.4989C98.6017 19.4996 98.1831 19.5899 97.7973 19.7636C97.4115 19.9373 97.0673 20.1904 96.7876 20.5063C96.5079 20.8222 96.2993 21.1935 96.1753 21.5956C96.0513 21.9977 96.0148 22.4214 96.0684 22.8385C96.1433 23.4029 96.3805 23.9338 96.7515 24.3678C97.1225 24.8018 97.6116 25.1205 98.1603 25.2857C98.7091 25.4509 99.2941 25.4556 99.8455 25.2992C100.397 25.1429 100.891 24.8321 101.269 24.4041C101.647 23.9761 101.893 23.449 101.977 22.886C102.061 22.323 101.98 21.7478 101.743 21.2294C101.506 20.7109 101.124 20.2712 100.642 19.9629C100.16 19.6545 99.5988 19.4906 99.0254 19.4907V19.4989Z" fill="#29539B"/>
<path d="M118.478 31.1155C116.839 31.0734 115.249 30.5526 113.907 29.6183C112.564 28.684 111.53 27.3777 110.931 25.8627C110.333 24.3477 110.198 22.6912 110.543 21.1004C110.888 19.5096 111.698 18.0551 112.871 16.9187C114.044 15.7822 115.529 15.0144 117.14 14.7111C118.75 14.4079 120.415 14.5827 121.926 15.2137C123.438 15.8446 124.728 16.9038 125.636 18.2587C126.544 19.6136 127.029 21.2041 127.031 22.8313C127.084 23.9508 126.897 25.0686 126.483 26.1112C126.068 27.1538 125.437 28.0974 124.628 28.8801C123.82 29.6627 122.854 30.2666 121.794 30.6519C120.734 31.0372 119.604 31.1952 118.478 31.1155ZM118.478 26.223C119.927 26.223 121.259 25.159 121.259 22.8281C121.259 20.5248 119.95 19.4608 118.515 19.4608C117.08 19.4608 115.789 20.5248 115.789 22.8281C115.781 25.159 116.998 26.223 118.478 26.223Z" fill="#29539B"/>
<path d="M144.044 14.9199L135.552 26.344H144.044V30.9328H129.173V26.6348L137.577 15.1831H129.173V10.6349H144.044V14.9199Z" fill="#29539B"/>
<path d="M154.449 31.1157C152.259 31.0853 150.169 30.2002 148.631 28.6519C147.093 27.1036 146.23 25.0165 146.23 22.8421C146.23 20.6677 147.093 18.5806 148.631 17.0323C150.169 15.484 152.259 14.5989 154.449 14.5685C155.541 14.4938 156.636 14.6514 157.662 15.0305C158.688 15.4097 159.62 16.0017 160.396 16.7671C161.173 17.5325 161.776 18.4536 162.166 19.4688C162.555 20.4841 162.722 21.5702 162.654 22.6545C162.654 23.0966 162.625 23.5383 162.568 23.9767H151.811C151.928 25.8496 152.942 26.5952 154.214 26.5952C154.641 26.6109 155.063 26.4984 155.425 26.2724C155.787 26.0464 156.072 25.7173 156.243 25.3282H162.298C161.865 27.0448 160.847 28.5597 159.416 29.6149C157.985 30.6701 156.23 31.2005 154.449 31.1157ZM151.841 21.2397H156.852C156.853 20.9308 156.79 20.625 156.665 20.342C156.54 20.059 156.357 19.8051 156.128 19.5965C155.898 19.3879 155.627 19.2294 155.332 19.1311C155.037 19.0328 154.725 18.9969 154.415 19.0257C153.78 18.9929 153.157 19.2059 152.678 19.6198C152.198 20.0336 151.898 20.616 151.843 21.2445L151.841 21.2397Z" fill="#29539B"/>
<path d="M176.051 22.2535C176.083 21.8823 176.037 21.5086 175.916 21.156C175.794 20.8035 175.601 20.4797 175.347 20.2053C175.093 19.9309 174.785 19.7119 174.441 19.562C174.097 19.4122 173.726 19.3348 173.351 19.3348C172.976 19.3348 172.604 19.4122 172.261 19.562C171.917 19.7119 171.609 19.9309 171.355 20.2053C171.101 20.4797 170.907 20.8035 170.786 21.156C170.665 21.5086 170.619 21.8823 170.651 22.2535V30.9243H164.976V14.7701H170.657V17.0799C171.217 16.2993 171.963 15.6677 172.827 15.2413C173.692 14.8149 174.649 14.6067 175.614 14.6353C179.388 14.6353 181.731 17.283 181.731 21.5128V30.934H176.049L176.051 22.2535Z" fill="#29539B"/>
<path d="M184.398 10.3959C184.492 9.58747 184.883 8.84163 185.495 8.30025C186.107 7.75886 186.898 7.45972 187.718 7.45972C188.538 7.45972 189.329 7.75886 189.941 8.30025C190.553 8.84163 190.943 9.58747 191.037 10.3959C190.929 11.1932 190.532 11.9243 189.922 12.4537C189.311 12.9831 188.528 13.2749 187.718 13.2749C186.907 13.2749 186.124 12.9831 185.514 12.4537C184.903 11.9243 184.507 11.1932 184.398 10.3959ZM184.862 14.7702H190.545V30.9244H184.862V14.7702Z" fill="#29539B"/>
<path d="M194.688 19.4606H192.688V14.7695H194.688V10.8531H200.401V14.7695H203.356V19.4606H200.401V24.8713C200.401 25.7338 200.775 26.1074 201.733 26.1074H203.384V30.922H200.921C197.321 30.922 194.688 29.426 194.688 24.7917V19.4606Z" fill="#29539B"/>
<path d="M205.995 9.61914H211.678V17.0717C212.245 16.2842 212.999 15.6486 213.874 15.2219C214.75 14.7953 215.718 14.5908 216.692 14.627C220.403 14.627 222.747 17.2747 222.747 21.5045V30.9306H217.065V22.2599C217.103 21.8856 217.062 21.5075 216.944 21.15C216.826 20.7925 216.634 20.4635 216.38 20.1844C216.126 19.9052 215.815 19.6821 215.469 19.5294C215.123 19.3766 214.748 19.2977 214.369 19.2977C213.99 19.2977 213.615 19.3766 213.269 19.5294C212.922 19.6821 212.612 19.9052 212.358 20.1844C212.104 20.4635 211.912 20.7925 211.794 21.15C211.676 21.5075 211.635 21.8856 211.673 22.2599V30.9306H205.99L205.995 9.61914Z" fill="#29539B"/>
<path d="M13.825 45.8394H3.29481C2.72003 45.8387 2.15543 45.6887 1.65712 45.4044C1.1588 45.12 0.74411 44.7112 0.454248 44.2185C0.164385 43.7259 0.00944004 43.1665 0.00480676 42.5959C0.000173476 42.0254 0.146013 41.4636 0.427836 40.9663L22.3834 2.14756C22.5316 1.88063 22.716 1.63521 22.9316 1.41823C23.1385 1.21383 23.3724 1.03841 23.6271 0.896808C24.1226 0.62344 24.6802 0.47998 25.2471 0.47998C25.814 0.47998 26.3716 0.62344 26.8671 0.896808C27.1213 1.03845 27.3547 1.21388 27.561 1.41823C27.7844 1.63354 27.9761 1.87907 28.1304 2.14756L50.0893 40.9615C50.3713 41.4591 50.5172 42.0213 50.5123 42.5923C50.5075 43.1632 50.3521 43.7229 50.0616 44.2158C49.7712 44.7086 49.3558 45.1173 48.8568 45.4013C48.3578 45.6853 47.7926 45.8347 47.2174 45.8345H36.6954C35.6014 43.7731 33.9542 42.0524 31.9359 40.8629C29.9177 39.6735 27.6071 39.0616 25.2602 39.0951C22.9136 39.0615 20.6034 39.6729 18.5852 40.8618C16.5671 42.0507 14.9196 43.7706 13.825 45.8313V45.8394Z" fill="url(#paint0_linear_4_466)"/>
<path opacity="0.27" d="M22.4807 30.3931L25.4458 26.688H26.9857L24.248 30.3915L22.4807 30.3931Z" fill="url(#paint1_linear_4_466)"/>
<path opacity="0.22" d="M24.8282 21.1857H29.4609L28.1518 22.81L23.6418 22.6996L24.8282 21.1857Z" fill="url(#paint2_linear_4_466)"/>
<path d="M24.8383 21.1967L19.7164 27.6437C19.4677 27.9056 19.3292 28.2519 19.3292 28.6118C19.3292 28.9717 19.4677 29.318 19.7164 29.5799C20.0107 29.9077 20.381 30.1593 20.7953 30.313C21.2096 30.4667 21.6554 30.5178 22.0941 30.4619L25.7989 25.9267L29.4775 21.1967H24.8383Z" fill="white"/>
<path d="M25.4515 26.7148H29.6669C29.6669 26.7148 30.9023 27.0137 31.2231 27.7496C31.4073 28.2399 31.4073 28.7797 31.2231 29.2699C31.2231 29.2699 30.8025 30.3972 29.8158 30.3972H22.506L25.4515 26.7148Z" fill="white"/>
<path d="M21.3853 17.4868H28.6951C29.1452 17.4868 29.5768 17.6643 29.895 17.9802C30.2133 18.2961 30.392 18.7245 30.392 19.1713C30.392 19.3925 30.3482 19.6115 30.2629 19.8159C30.1776 20.0203 30.0526 20.2059 29.895 20.3624C29.7375 20.5188 29.5504 20.6429 29.3445 20.7275C29.1386 20.8122 28.9179 20.8557 28.6951 20.8557H21.3853C21.1625 20.8557 20.9418 20.8122 20.7359 20.7275C20.53 20.6429 20.3429 20.5188 20.1854 20.3624C20.0278 20.2059 19.9028 20.0203 19.8175 19.8159C19.7322 19.6115 19.6884 19.3925 19.6884 19.1713C19.6884 18.7245 19.8671 18.2961 20.1854 17.9802C20.5036 17.6643 20.9352 17.4868 21.3853 17.4868Z" fill="white"/>
</g>
<defs>
<linearGradient id="paint0_linear_4_466" x1="-74.8983" y1="99.6356" x2="-74.8983" y2="99.4996" gradientUnits="userSpaceOnUse">
<stop stop-color="#0E2041"/>
<stop offset="1" stop-color="#29539B"/>
</linearGradient>
<linearGradient id="paint1_linear_4_466" x1="-72.8816" y1="97.6561" x2="-72.9028" y2="97.6861" gradientUnits="userSpaceOnUse">
<stop stop-color="white"/>
<stop offset="1" stop-color="#A7ACAD"/>
</linearGradient>
<linearGradient id="paint2_linear_4_466" x1="-73.4255" y1="95.1733" x2="-73.4255" y2="95.0368" gradientUnits="userSpaceOnUse">
<stop stop-color="#A7ACAD"/>
<stop offset="1" stop-color="white"/>
</linearGradient>
<clipPath id="clip0_4_466">
<rect width="222.75" height="45.36" fill="white" transform="translate(0 0.47998)"/>
</clipPath>
</defs>
</svg>
