<svg width="196" height="34" viewBox="0 0 196 34" fill="none" xmlns="http://www.w3.org/2000/svg">
<path d="M33.438 17.259C33.438 8.25727 26.1407 0.959961 17.139 0.959961C8.13727 0.959961 0.839966 8.25727 0.839966 17.259C0.839966 25.3943 6.80028 32.1372 14.5922 33.36V21.9704H10.4538V17.259H14.5922V13.6681C14.5922 9.58316 17.0256 7.32676 20.7486 7.32676C22.5319 7.32676 24.3971 7.6451 24.3971 7.6451V11.6562H22.3419C20.3171 11.6562 19.6857 12.9126 19.6857 14.2015V17.259H24.2061L23.4835 21.9704H19.6857V33.36C27.4777 32.1372 33.438 25.3943 33.438 17.259Z" fill="black"/>
<path d="M124.747 29.3349C136.22 29.3349 142.494 20.2385 142.494 12.3503C142.494 12.092 142.489 11.8348 142.477 11.5787C143.698 10.7333 144.751 9.68661 145.588 8.4876C144.47 8.96313 143.268 9.28318 142.006 9.42748C143.294 8.68848 144.283 7.51935 144.749 6.12576C143.525 6.8209 142.185 7.31093 140.788 7.57474C139.65 6.41442 138.03 5.68872 136.235 5.68872C132.791 5.68872 129.997 8.36204 129.997 11.6573C129.997 12.1258 130.052 12.5813 130.159 13.0184C124.975 12.7688 120.378 10.3934 117.302 6.78153C116.747 7.69252 116.456 8.72788 116.457 9.78187C116.457 11.8529 117.558 13.6812 119.233 14.7508C118.242 14.7219 117.273 14.4658 116.408 14.0042C116.407 14.0293 116.407 14.0537 116.407 14.0805C116.407 16.9714 118.557 19.3851 121.411 19.9321C120.875 20.0718 120.322 20.1424 119.766 20.1421C119.365 20.1421 118.974 20.1043 118.594 20.0345C119.388 22.4063 121.691 24.1323 124.421 24.1806C122.286 25.7819 119.597 26.7358 116.674 26.7358C116.177 26.7362 115.68 26.7086 115.186 26.6531C117.946 28.3464 121.224 29.3345 124.747 29.3345" fill="black"/>
<path d="M74.3132 3.66211C70.5517 3.66211 70.0797 3.67856 68.6024 3.74579C67.1279 3.8133 66.1215 4.04673 65.2408 4.38923C64.3299 4.74298 63.5572 5.21618 62.7874 5.9863C62.0169 6.75612 61.5437 7.52883 61.1888 8.43946C60.8455 9.32037 60.6117 10.3271 60.5454 11.8009C60.4793 13.2783 60.462 13.7506 60.462 17.512C60.462 21.2734 60.4787 21.744 60.5457 23.2214C60.6135 24.6958 60.8469 25.7022 61.1891 26.5828C61.5432 27.4938 62.0164 28.2665 62.7865 29.0363C63.556 29.8067 64.3287 30.2811 65.2391 30.6348C66.1203 30.9773 67.127 31.2107 68.6012 31.2782C70.0785 31.3455 70.5503 31.3619 74.3115 31.3619C78.0732 31.3619 78.5438 31.3455 80.0211 31.2782C81.4956 31.2107 82.5032 30.9773 83.3844 30.6348C84.295 30.2811 85.0666 29.8067 85.8361 29.0363C86.6065 28.2665 87.0798 27.4938 87.4347 26.5831C87.7751 25.7022 88.0089 24.6955 88.0781 23.2216C88.1445 21.7443 88.1618 21.2734 88.1618 17.512C88.1618 13.7506 88.1445 13.2786 88.0781 11.8012C88.0089 10.3268 87.7751 9.32037 87.4347 8.43975C87.0798 7.52883 86.6065 6.75612 85.8361 5.9863C85.0657 5.2159 84.2953 4.74269 83.3835 4.38923C82.5006 4.04673 81.4936 3.8133 80.0191 3.74579C78.5418 3.67856 78.0715 3.66211 74.3089 3.66211H74.3132ZM73.0707 6.15798C73.4395 6.1574 73.8509 6.15798 74.3132 6.15798C78.0111 6.15798 78.4494 6.17125 79.9098 6.23761C81.2601 6.29936 81.993 6.525 82.4812 6.71457C83.1276 6.9656 83.5884 7.26568 84.0728 7.75043C84.5576 8.23517 84.8577 8.69684 85.1093 9.34317C85.2989 9.8308 85.5248 10.5637 85.5863 11.9141C85.6526 13.3741 85.667 13.8126 85.667 17.5088C85.667 21.205 85.6526 21.6436 85.5863 23.1036C85.5245 24.454 85.2989 25.1869 85.1093 25.6745C84.8583 26.3208 84.5576 26.7811 84.0728 27.2655C83.5881 27.7503 83.1279 28.0504 82.4812 28.3014C81.9936 28.4918 81.2601 28.7169 79.9098 28.7786C78.4497 28.845 78.0111 28.8594 74.3132 28.8594C70.6149 28.8594 70.1766 28.845 68.7166 28.7786C67.3662 28.7163 66.6333 28.4907 66.1448 28.3011C65.4985 28.0501 65.0368 27.75 64.5521 27.2652C64.0673 26.7805 63.7672 26.32 63.5156 25.6734C63.3261 25.1857 63.1001 24.4528 63.0387 23.1025C62.9723 21.6425 62.959 21.2039 62.959 17.5054C62.959 13.8069 62.9723 13.3706 63.0387 11.9106C63.1004 10.5602 63.3261 9.82734 63.5156 9.33913C63.7667 8.6928 64.0673 8.23114 64.5521 7.74639C65.0368 7.26164 65.4985 6.96156 66.1448 6.70995C66.633 6.51952 67.3662 6.29446 68.7166 6.23242C69.9943 6.17471 70.4894 6.1574 73.0707 6.15452V6.15798ZM81.7062 8.45764C80.7887 8.45764 80.0442 9.20121 80.0442 10.1191C80.0442 11.0366 80.7887 11.781 81.7062 11.781C82.6238 11.781 83.3682 11.0366 83.3682 10.1191C83.3682 9.20149 82.6238 8.45706 81.7062 8.45706V8.45764ZM74.3132 10.3995C70.3853 10.3995 67.2006 13.5841 67.2006 17.512C67.2006 21.4399 70.3853 24.6231 74.3132 24.6231C78.2411 24.6231 81.4246 21.4399 81.4246 17.512C81.4246 13.5841 78.2408 10.3995 74.3129 10.3995H74.3132ZM74.3132 12.8954C76.8627 12.8954 78.9299 14.9622 78.9299 17.512C78.9299 20.0616 76.8627 22.1287 74.3132 22.1287C71.7633 22.1287 69.6965 20.0616 69.6965 17.512C69.6965 14.9622 71.7633 12.8954 74.3132 12.8954Z" fill="black"/>
<path fill-rule="evenodd" clip-rule="evenodd" d="M195.546 28.6592H190.834V20.8569C190.834 18.7177 189.998 17.5223 188.256 17.5223C186.362 17.5223 185.372 18.7663 185.372 20.8569V28.6592H180.831V13.7959H185.372V15.798C185.372 15.798 186.737 13.3418 189.981 13.3418C193.224 13.3418 195.546 15.267 195.546 19.2487V28.6592ZM175.414 11.8497C173.867 11.8497 172.614 10.6216 172.614 9.10697C172.614 7.59235 173.867 6.36426 175.414 6.36426C176.961 6.36426 178.213 7.59235 178.213 9.10697C178.213 10.6216 176.961 11.8497 175.414 11.8497ZM173.069 28.6592H177.804V13.7959H173.069V28.6592Z" fill="black"/>
</svg>
