<svg width="81" height="260" viewBox="0 0 81 260" fill="none" xmlns="http://www.w3.org/2000/svg">
<path d="M0.442546 22L4.58975 10.66H6.92255L11.0697 22H8.86655L7.95935 19.3756H3.53675L2.61335 22H0.442546ZM4.10375 17.7556H7.39235L5.73995 13.0414L4.10375 17.7556ZM11.9959 22V10.336H14.0695V22H11.9959ZM19.1043 19.6024C18.7155 19.6024 18.3537 19.5592 18.0189 19.4728L17.4195 20.0722C17.6031 20.1694 17.8515 20.2504 18.1647 20.3152C18.4779 20.38 18.9855 20.4448 19.6875 20.5096C20.7567 20.6068 21.5343 20.8606 22.0203 21.271C22.5063 21.6814 22.7493 22.2484 22.7493 22.972C22.7493 23.4472 22.6197 23.8954 22.3605 24.3166C22.1013 24.7486 21.7017 25.0942 21.1617 25.3534C20.6217 25.6234 19.9305 25.7584 19.0881 25.7584C17.9433 25.7584 17.0199 25.5424 16.3179 25.1104C15.6159 24.6892 15.2649 24.052 15.2649 23.1988C15.2649 22.4752 15.6159 21.8488 16.3179 21.3196C16.1019 21.2224 15.9129 21.1198 15.7509 21.0118C15.5997 20.9038 15.4647 20.7904 15.3459 20.6716V20.299L16.7553 18.8086C16.1289 18.2578 15.8157 17.5504 15.8157 16.6864C15.8157 16.1464 15.9453 15.655 16.2045 15.2122C16.4745 14.7694 16.8525 14.4184 17.3385 14.1592C17.8245 13.9 18.4131 13.7704 19.1043 13.7704C19.5579 13.7704 19.9791 13.8352 20.3679 13.9648H23.4135V15.2284L22.0365 15.3256C22.2525 15.736 22.3605 16.1896 22.3605 16.6864C22.3605 17.2264 22.2309 17.7178 21.9717 18.1606C21.7125 18.6034 21.3345 18.9544 20.8377 19.2136C20.3517 19.4728 19.7739 19.6024 19.1043 19.6024ZM19.1043 18.0148C19.5255 18.0148 19.8711 17.9014 20.1411 17.6746C20.4219 17.4478 20.5623 17.1238 20.5623 16.7026C20.5623 16.2814 20.4219 15.9574 20.1411 15.7306C19.8711 15.5038 19.5255 15.3904 19.1043 15.3904C18.6615 15.3904 18.3051 15.5038 18.0351 15.7306C17.7651 15.9574 17.6301 16.2814 17.6301 16.7026C17.6301 17.1238 17.7651 17.4478 18.0351 17.6746C18.3051 17.9014 18.6615 18.0148 19.1043 18.0148ZM17.1603 22.9882C17.1603 23.3878 17.3439 23.6848 17.7111 23.8792C18.0891 24.0844 18.5481 24.187 19.0881 24.187C19.6065 24.187 20.0277 24.079 20.3517 23.863C20.6757 23.6578 20.8377 23.377 20.8377 23.0206C20.8377 22.729 20.7297 22.486 20.5137 22.2916C20.3085 22.0972 19.8927 21.9784 19.2663 21.9352C18.8235 21.9028 18.4131 21.8542 18.0351 21.7894C17.7219 21.9622 17.4951 22.1512 17.3547 22.3564C17.2251 22.5616 17.1603 22.7722 17.1603 22.9882ZM27.9788 22.1944C27.2012 22.1944 26.4992 22.0162 25.8728 21.6598C25.2572 21.3034 24.7658 20.812 24.3986 20.1856C24.0422 19.5484 23.864 18.814 23.864 17.9824C23.864 17.1508 24.0476 16.4218 24.4148 15.7954C24.782 15.1582 25.2734 14.6614 25.889 14.305C26.5154 13.9486 27.2174 13.7704 27.995 13.7704C28.7618 13.7704 29.453 13.9486 30.0686 14.305C30.695 14.6614 31.1864 15.1582 31.5428 15.7954C31.91 16.4218 32.0936 17.1508 32.0936 17.9824C32.0936 18.814 31.91 19.5484 31.5428 20.1856C31.1864 20.812 30.695 21.3034 30.0686 21.6598C29.4422 22.0162 28.7456 22.1944 27.9788 22.1944ZM27.9788 20.3962C28.5188 20.3962 28.9886 20.1964 29.3882 19.7968C29.7878 19.3864 29.9876 18.7816 29.9876 17.9824C29.9876 17.1832 29.7878 16.5838 29.3882 16.1842C28.9886 15.7738 28.5242 15.5686 27.995 15.5686C27.4442 15.5686 26.969 15.7738 26.5694 16.1842C26.1806 16.5838 25.9862 17.1832 25.9862 17.9824C25.9862 18.7816 26.1806 19.3864 26.5694 19.7968C26.969 20.1964 27.4388 20.3962 27.9788 20.3962ZM33.17 22V20.4124L38.3864 12.3934H33.2186V10.66H40.784V12.2476L35.5352 20.2666H40.8164V22H33.17ZM46.0556 22.1944C45.2456 22.1944 44.5274 22.0216 43.901 21.676C43.2746 21.3304 42.7832 20.8444 42.4268 20.218C42.0704 19.5916 41.8922 18.868 41.8922 18.0472C41.8922 17.2156 42.065 16.4758 42.4106 15.8278C42.767 15.1798 43.253 14.6776 43.8686 14.3212C44.495 13.954 45.2294 13.7704 46.0718 13.7704C46.8602 13.7704 47.5568 13.9432 48.1616 14.2888C48.7664 14.6344 49.2362 15.1096 49.571 15.7144C49.9166 16.3084 50.0894 16.9726 50.0894 17.707C50.0894 17.8258 50.084 17.95 50.0732 18.0796C50.0732 18.2092 50.0678 18.3442 50.057 18.4846H43.9496C43.9928 19.111 44.2088 19.6024 44.5976 19.9588C44.9972 20.3152 45.4778 20.4934 46.0394 20.4934C46.4606 20.4934 46.8116 20.4016 47.0924 20.218C47.384 20.0236 47.6 19.7752 47.7404 19.4728H49.8464C49.6952 19.9804 49.4414 20.4448 49.085 20.866C48.7394 21.2764 48.3074 21.6004 47.789 21.838C47.2814 22.0756 46.7036 22.1944 46.0556 22.1944ZM46.0718 15.4552C45.5642 15.4552 45.116 15.601 44.7272 15.8926C44.3384 16.1734 44.09 16.6054 43.982 17.1886H47.9834C47.951 16.6594 47.7566 16.2382 47.4002 15.925C47.0438 15.6118 46.601 15.4552 46.0718 15.4552ZM51.3474 22V13.9648H53.178L53.34 15.3256C53.5884 14.8504 53.9448 14.4724 54.4092 14.1916C54.8844 13.9108 55.4406 13.7704 56.0778 13.7704C57.0714 13.7704 57.8436 14.0836 58.3944 14.71C58.9452 15.3364 59.2206 16.2544 59.2206 17.464V22H57.147V17.6584C57.147 16.9672 57.0066 16.438 56.7258 16.0708C56.445 15.7036 56.0076 15.52 55.4136 15.52C54.8304 15.52 54.3498 15.7252 53.9718 16.1356C53.6046 16.546 53.421 17.1184 53.421 17.8528V22H51.3474ZM61.8352 12.7174C61.4572 12.7174 61.144 12.604 60.8956 12.3772C60.658 12.1504 60.5392 11.8642 60.5392 11.5186C60.5392 11.173 60.658 10.8922 60.8956 10.6762C61.144 10.4494 61.4572 10.336 61.8352 10.336C62.2132 10.336 62.521 10.4494 62.7586 10.6762C63.007 10.8922 63.1312 11.173 63.1312 11.5186C63.1312 11.8642 63.007 12.1504 62.7586 12.3772C62.521 12.604 62.2132 12.7174 61.8352 12.7174ZM60.7984 22V13.9648H62.872V22H60.7984ZM68.1306 22C67.2882 22 66.6132 21.7948 66.1056 21.3844C65.598 20.974 65.3442 20.245 65.3442 19.1974V15.6982H63.9672V13.9648H65.3442L65.5872 11.8102H67.4178V13.9648H69.5886V15.6982H67.4178V19.2136C67.4178 19.6024 67.4988 19.8724 67.6608 20.0236C67.8336 20.164 68.1252 20.2342 68.5356 20.2342H69.54V22H68.1306ZM70.8829 22V10.336H72.9565V15.196C73.2265 14.7532 73.5883 14.4076 74.0419 14.1592C74.5063 13.9 75.0355 13.7704 75.6296 13.7704C76.6232 13.7704 77.39 14.0836 77.93 14.71C78.4808 15.3364 78.7562 16.2544 78.7562 17.464V22H76.6988V17.6584C76.6988 16.9672 76.5584 16.438 76.2776 16.0708C76.0076 15.7036 75.5756 15.52 74.9816 15.52C74.3983 15.52 73.9123 15.7252 73.5235 16.1356C73.1455 16.546 72.9565 17.1184 72.9565 17.8528V22H70.8829Z" fill="#29539B"/>
<path d="M1.50854 68.36V54.752H5.90198C6.9647 54.752 7.83302 54.9269 8.50694 55.2769C9.18086 55.6268 9.67982 56.1063 10.0038 56.7154C10.3278 57.3245 10.4898 57.9985 10.4898 58.7372C10.4898 59.5925 10.2565 60.3637 9.78998 61.0505C9.33638 61.7374 8.62358 62.2234 7.65158 62.5085L10.6259 68.36H8.70134L5.94086 62.7418H5.82422H3.1415V68.36H1.50854ZM3.1415 61.4588H5.78534C6.8351 61.4588 7.59974 61.2061 8.07926 60.7006C8.55878 60.1952 8.79854 59.5472 8.79854 58.7566C8.79854 57.9531 8.55878 57.3181 8.07926 56.8515C7.6127 56.372 6.84158 56.1322 5.7659 56.1322H3.1415V61.4588ZM16.0983 68.5933C15.1781 68.5933 14.3616 68.3859 13.6488 67.9712C12.936 67.5435 12.3723 66.9538 11.9575 66.2021C11.5558 65.4505 11.3549 64.5627 11.3549 63.5389C11.3549 62.528 11.5558 61.6467 11.9575 60.895C12.3593 60.1304 12.9166 59.5407 13.6294 59.126C14.3551 58.6983 15.1911 58.4845 16.1371 58.4845C17.0703 58.4845 17.8738 58.6983 18.5477 59.126C19.2346 59.5407 19.7595 60.0915 20.1223 60.7784C20.4852 61.4653 20.6667 62.204 20.6667 62.9945C20.6667 63.1371 20.6602 63.2797 20.6472 63.4222C20.6472 63.5648 20.6472 63.7268 20.6472 63.9082H12.9684C13.0073 64.6469 13.1758 65.2625 13.4739 65.755C13.7849 66.2345 14.1672 66.5974 14.6208 66.8437C15.0874 67.0899 15.5799 67.213 16.0983 67.213C16.7722 67.213 17.3359 67.0575 17.7895 66.7465C18.2431 66.4354 18.5736 66.0142 18.781 65.4829H20.3945C20.1353 66.3771 19.6363 67.1223 18.8976 67.7185C18.1719 68.3017 17.2387 68.5933 16.0983 68.5933ZM16.0983 59.8647C15.3207 59.8647 14.6273 60.1045 14.0182 60.584C13.422 61.0505 13.0786 61.7374 12.9879 62.6446H19.0531C19.0143 61.7763 18.7162 61.0959 18.1589 60.6034C17.6016 60.1109 16.9147 59.8647 16.0983 59.8647ZM25.9414 68.5933C24.788 68.5933 23.829 68.3017 23.0643 67.7185C22.2997 67.1353 21.8526 66.3447 21.723 65.3468H23.3948C23.4985 65.8522 23.7642 66.2929 24.1918 66.6687C24.6325 67.0316 25.2222 67.213 25.9609 67.213C26.6478 67.213 27.1532 67.0705 27.4772 66.7853C27.8012 66.4873 27.9632 66.1373 27.9632 65.7356C27.9632 65.1524 27.7494 64.7636 27.3217 64.5692C26.907 64.3748 26.3173 64.1998 25.5526 64.0443C25.0342 63.9406 24.5158 63.7916 23.9974 63.5972C23.479 63.4028 23.0449 63.1306 22.695 62.7807C22.345 62.4178 22.1701 61.9448 22.1701 61.3616C22.1701 60.5192 22.4811 59.8323 23.1032 59.3009C23.7382 58.7566 24.5936 58.4845 25.6693 58.4845C26.6931 58.4845 27.529 58.7437 28.177 59.2621C28.838 59.7675 29.2203 60.4933 29.324 61.4393H27.7105C27.6457 60.9469 27.4318 60.5645 27.069 60.2924C26.719 60.0073 26.246 59.8647 25.6498 59.8647C25.0666 59.8647 24.613 59.9878 24.289 60.2341C23.978 60.4803 23.8225 60.8043 23.8225 61.2061C23.8225 61.5949 24.0234 61.8994 24.4251 62.1197C24.8398 62.3401 25.3971 62.528 26.097 62.6835C26.6931 62.8131 27.2569 62.9751 27.7882 63.1695C28.3326 63.3509 28.7732 63.6296 29.1102 64.0054C29.4601 64.3683 29.635 64.8997 29.635 65.5995C29.648 66.4678 29.3175 67.1871 28.6436 67.7573C27.9826 68.3146 27.0819 68.5933 25.9414 68.5933ZM34.9033 68.5933C33.7628 68.5933 32.8556 68.2498 32.1817 67.5629C31.5078 66.8631 31.1708 65.7939 31.1708 64.3553V58.7177H32.8038V64.1804C32.8038 66.1892 33.6267 67.1936 35.2726 67.1936C36.115 67.1936 36.8084 66.8955 37.3527 66.2993C37.91 65.6902 38.1886 64.8284 38.1886 63.7138V58.7177H39.8216V68.36H38.3442L38.2275 66.6298C37.9294 67.2389 37.4823 67.7185 36.8862 68.0684C36.303 68.4183 35.642 68.5933 34.9033 68.5933ZM41.9263 68.36V54.3632H43.5592V68.36H41.9263ZM49.4628 68.36C48.5815 68.36 47.8881 68.1461 47.3827 67.7185C46.8773 67.2908 46.6245 66.5197 46.6245 65.4051V60.098H44.9527V58.7177H46.6245L46.8384 56.4044H48.2575V58.7177H51.0957V60.098H48.2575V65.4051C48.2575 66.0142 48.3806 66.4289 48.6269 66.6493C48.8731 66.8566 49.3073 66.9603 49.9293 66.9603H50.9402V68.36H49.4628ZM56.2807 68.5933C55.1273 68.5933 54.1683 68.3017 53.4036 67.7185C52.639 67.1353 52.1919 66.3447 52.0623 65.3468H53.7341C53.8378 65.8522 54.1035 66.2929 54.5311 66.6687C54.9718 67.0316 55.5615 67.213 56.3002 67.213C56.9871 67.213 57.4925 67.0705 57.8165 66.7853C58.1405 66.4873 58.3025 66.1373 58.3025 65.7356C58.3025 65.1524 58.0887 64.7636 57.661 64.5692C57.2463 64.3748 56.6566 64.1998 55.8919 64.0443C55.3735 63.9406 54.8551 63.7916 54.3367 63.5972C53.8183 63.4028 53.3842 63.1306 53.0343 62.7807C52.6843 62.4178 52.5094 61.9448 52.5094 61.3616C52.5094 60.5192 52.8204 59.8323 53.4425 59.3009C54.0775 58.7566 54.9329 58.4845 56.0086 58.4845C57.0324 58.4845 57.8684 58.7437 58.5164 59.2621C59.1773 59.7675 59.5596 60.4933 59.6633 61.4393H58.0498C57.985 60.9469 57.7712 60.5645 57.4083 60.2924C57.0584 60.0073 56.5853 59.8647 55.9891 59.8647C55.4059 59.8647 54.9523 59.9878 54.6283 60.2341C54.3173 60.4803 54.1618 60.8043 54.1618 61.2061C54.1618 61.5949 54.3627 61.8994 54.7644 62.1197C55.1791 62.3401 55.7364 62.528 56.4363 62.6835C57.0324 62.8131 57.5962 62.9751 58.1276 63.1695C58.6719 63.3509 59.1125 63.6296 59.4495 64.0054C59.7994 64.3683 59.9744 64.8997 59.9744 65.5995C59.9873 66.4678 59.6568 67.1871 58.9829 67.7573C58.322 68.3146 57.4212 68.5933 56.2807 68.5933Z" fill="black"/>
<path d="M1.50854 113.72V100.112H3.41366L8.31254 109.599L13.1725 100.112H15.0971V113.72H13.4641V103.028L8.91518 111.776H7.69046L3.1415 103.048V113.72H1.50854ZM21.681 113.953C20.7738 113.953 19.9574 113.746 19.2316 113.331C18.5058 112.917 17.9291 112.333 17.5014 111.582C17.0867 110.817 16.8794 109.923 16.8794 108.899C16.8794 107.875 17.0932 106.987 17.5209 106.236C17.9486 105.471 18.5253 104.881 19.251 104.467C19.9898 104.052 20.8127 103.845 21.7199 103.845C22.6271 103.845 23.4436 104.052 24.1694 104.467C24.8951 104.881 25.4654 105.471 25.8801 106.236C26.3078 106.987 26.5216 107.875 26.5216 108.899C26.5216 109.923 26.3078 110.817 25.8801 111.582C25.4524 112.333 24.8692 112.917 24.1305 113.331C23.4047 113.746 22.5882 113.953 21.681 113.953ZM21.681 112.554C22.2383 112.554 22.7567 112.418 23.2362 112.145C23.7158 111.873 24.1046 111.465 24.4026 110.921C24.7007 110.376 24.8498 109.702 24.8498 108.899C24.8498 108.095 24.7007 107.422 24.4026 106.877C24.1175 106.333 23.7352 105.925 23.2557 105.652C22.7762 105.38 22.2642 105.244 21.7199 105.244C21.1626 105.244 20.6442 105.38 20.1647 105.652C19.6852 105.925 19.2964 106.333 18.9983 106.877C18.7002 107.422 18.5512 108.095 18.5512 108.899C18.5512 109.702 18.7002 110.376 18.9983 110.921C19.2964 111.465 19.6787 111.873 20.1453 112.145C20.6248 112.418 21.1367 112.554 21.681 112.554ZM32.6412 113.953C31.7211 113.953 30.8916 113.746 30.1529 113.331C29.4272 112.904 28.8504 112.314 28.4228 111.562C28.008 110.798 27.8007 109.91 27.8007 108.899C27.8007 107.888 28.008 107.007 28.4228 106.255C28.8504 105.49 29.4272 104.901 30.1529 104.486C30.8916 104.058 31.7211 103.845 32.6412 103.845C33.7817 103.845 34.7408 104.143 35.5184 104.739C36.3089 105.335 36.8079 106.132 37.0152 107.13H35.3434C35.2138 106.534 34.8963 106.074 34.3908 105.75C33.8854 105.413 33.2957 105.244 32.6218 105.244C32.0775 105.244 31.5656 105.38 31.086 105.652C30.6065 105.925 30.2177 106.333 29.9196 106.877C29.6216 107.422 29.4725 108.095 29.4725 108.899C29.4725 109.702 29.6216 110.376 29.9196 110.921C30.2177 111.465 30.6065 111.88 31.086 112.165C31.5656 112.437 32.0775 112.573 32.6218 112.573C33.2957 112.573 33.8854 112.411 34.3908 112.087C34.8963 111.75 35.2138 111.277 35.3434 110.668H37.0152C36.8208 111.64 36.3284 112.431 35.5378 113.04C34.7472 113.649 33.7817 113.953 32.6412 113.953ZM38.7126 113.72V99.7233H40.3456V108.141L44.2919 104.078H46.2942L42.0174 108.432L46.8385 113.72H44.7584L40.3456 108.724V113.72H38.7126Z" fill="black"/>
<path d="M1.50854 159.08V145.472H3.1415V159.08H1.50854ZM9.15666 159.08C8.27538 159.08 7.58202 158.866 7.07658 158.439C6.57114 158.011 6.31842 157.24 6.31842 156.125V150.818H4.64658V149.438H6.31842L6.53226 147.124H7.95138V149.438H10.7896V150.818H7.95138V156.125C7.95138 156.734 8.0745 157.149 8.32074 157.369C8.56698 157.577 9.00114 157.68 9.62322 157.68H10.6341V159.08H9.15666ZM16.3504 159.313C15.4302 159.313 14.6137 159.106 13.9009 158.691C13.1881 158.264 12.6244 157.674 12.2097 156.922C11.8079 156.171 11.607 155.283 11.607 154.259C11.607 153.248 11.8079 152.367 12.2097 151.615C12.6114 150.85 13.1687 150.261 13.8815 149.846C14.6073 149.418 15.4432 149.205 16.3893 149.205C17.3224 149.205 18.1259 149.418 18.7998 149.846C19.4867 150.261 20.0116 150.812 20.3745 151.498C20.7373 152.185 20.9188 152.924 20.9188 153.715C20.9188 153.857 20.9123 154 20.8993 154.142C20.8993 154.285 20.8993 154.447 20.8993 154.628H13.2205C13.2594 155.367 13.4279 155.983 13.726 156.475C14.037 156.955 14.4193 157.318 14.8729 157.564C15.3395 157.81 15.832 157.933 16.3504 157.933C17.0243 157.933 17.5881 157.778 18.0417 157.467C18.4953 157.156 18.8257 156.734 19.0331 156.203H20.6466C20.3874 157.097 19.8885 157.842 19.1497 158.439C18.424 159.022 17.4909 159.313 16.3504 159.313ZM16.3504 150.585C15.5728 150.585 14.8794 150.825 14.2703 151.304C13.6741 151.771 13.3307 152.458 13.24 153.365H19.3053C19.2664 152.496 18.9683 151.816 18.411 151.324C17.8537 150.831 17.1669 150.585 16.3504 150.585ZM22.4999 159.08V149.438H23.9774L24.094 150.838C24.4051 150.319 24.8198 149.917 25.3382 149.632C25.8566 149.347 26.4398 149.205 27.0878 149.205C27.8524 149.205 28.5069 149.36 29.0512 149.671C29.6085 149.982 30.0362 150.455 30.3343 151.09C30.6712 150.507 31.1313 150.047 31.7145 149.71C32.3107 149.373 32.9522 149.205 33.6391 149.205C34.7925 149.205 35.7127 149.554 36.3995 150.254C37.0864 150.941 37.4299 152.004 37.4299 153.442V159.08H35.8163V153.617C35.8163 152.62 35.6155 151.868 35.2137 151.362C34.8119 150.857 34.2352 150.604 33.4835 150.604C32.7059 150.604 32.0579 150.909 31.5395 151.518C31.0341 152.114 30.7814 152.969 30.7814 154.084V159.08H29.1484V153.617C29.1484 152.62 28.9475 151.868 28.5458 151.362C28.144 150.857 27.5673 150.604 26.8156 150.604C26.051 150.604 25.4095 150.909 24.8911 151.518C24.3856 152.114 24.1329 152.969 24.1329 154.084V159.08H22.4999ZM48.2031 159.313C47.3348 159.313 46.5507 159.158 45.8509 158.847C45.151 158.523 44.5873 158.043 44.1596 157.408C43.7449 156.773 43.5246 155.983 43.4986 155.037H45.151C45.164 155.814 45.4362 156.488 45.9675 157.058C46.4989 157.616 47.2441 157.894 48.2031 157.894C49.1622 157.894 49.8814 157.629 50.361 157.097C50.8534 156.566 51.0997 155.924 51.0997 155.173C51.0997 154.538 50.9442 154.019 50.6331 153.617C50.335 153.216 49.9268 152.918 49.4084 152.723C48.903 152.529 48.3457 152.432 47.7366 152.432H46.7257V151.051H47.7366C48.6178 151.051 49.3047 150.85 49.7972 150.449C50.3026 150.047 50.5554 149.483 50.5554 148.757C50.5554 148.148 50.3545 147.649 49.9527 147.261C49.5639 146.859 48.9807 146.658 48.2031 146.658C47.4514 146.658 46.8488 146.885 46.3952 147.338C45.9416 147.779 45.6889 148.336 45.637 149.01H43.9846C44.0235 148.271 44.2179 147.617 44.5678 147.047C44.9307 146.476 45.4232 146.036 46.0453 145.725C46.6674 145.401 47.3866 145.239 48.2031 145.239C49.0844 145.239 49.8166 145.394 50.3998 145.705C50.996 146.016 51.4431 146.431 51.7412 146.95C52.0522 147.468 52.2078 148.038 52.2078 148.66C52.2078 149.347 52.0198 149.976 51.644 150.546C51.2682 151.103 50.7044 151.479 49.9527 151.673C50.7562 151.842 51.4237 152.224 51.955 152.82C52.4864 153.417 52.7521 154.201 52.7521 155.173C52.7521 155.924 52.5771 156.618 52.2272 157.253C51.8902 157.875 51.3848 158.374 50.7109 158.75C50.037 159.125 49.201 159.313 48.2031 159.313Z" fill="black"/>
<path d="M1.50854 204.44V190.832H3.1415V204.44H1.50854ZM9.15666 204.44C8.27538 204.44 7.58202 204.226 7.07658 203.799C6.57114 203.371 6.31842 202.6 6.31842 201.485V196.178H4.64658V194.798H6.31842L6.53226 192.485H7.95138V194.798H10.7896V196.178H7.95138V201.485C7.95138 202.094 8.0745 202.509 8.32074 202.729C8.56698 202.937 9.00114 203.041 9.62322 203.041H10.6341V204.44H9.15666ZM16.3504 204.673C15.4302 204.673 14.6137 204.466 13.9009 204.051C13.1881 203.624 12.6244 203.034 12.2097 202.282C11.8079 201.531 11.607 200.643 11.607 199.619C11.607 198.608 11.8079 197.727 12.2097 196.975C12.6114 196.211 13.1687 195.621 13.8815 195.206C14.6073 194.779 15.4432 194.565 16.3893 194.565C17.3224 194.565 18.1259 194.779 18.7998 195.206C19.4867 195.621 20.0116 196.172 20.3745 196.859C20.7373 197.545 20.9188 198.284 20.9188 199.075C20.9188 199.217 20.9123 199.36 20.8993 199.502C20.8993 199.645 20.8993 199.807 20.8993 199.988H13.2205C13.2594 200.727 13.4279 201.343 13.726 201.835C14.037 202.315 14.4193 202.678 14.8729 202.924C15.3395 203.17 15.832 203.293 16.3504 203.293C17.0243 203.293 17.5881 203.138 18.0417 202.827C18.4953 202.516 18.8257 202.094 19.0331 201.563H20.6466C20.3874 202.457 19.8885 203.203 19.1497 203.799C18.424 204.382 17.4909 204.673 16.3504 204.673ZM16.3504 195.945C15.5728 195.945 14.8794 196.185 14.2703 196.664C13.6741 197.131 13.3307 197.818 13.24 198.725H19.3053C19.2664 197.857 18.9683 197.176 18.411 196.684C17.8537 196.191 17.1669 195.945 16.3504 195.945ZM22.4999 204.44V194.798H23.9774L24.094 196.198C24.4051 195.679 24.8198 195.277 25.3382 194.992C25.8566 194.707 26.4398 194.565 27.0878 194.565C27.8524 194.565 28.5069 194.72 29.0512 195.031C29.6085 195.342 30.0362 195.815 30.3343 196.45C30.6712 195.867 31.1313 195.407 31.7145 195.07C32.3107 194.733 32.9522 194.565 33.6391 194.565C34.7925 194.565 35.7127 194.915 36.3995 195.614C37.0864 196.301 37.4299 197.364 37.4299 198.803V204.44H35.8163V198.978C35.8163 197.98 35.6155 197.228 35.2137 196.723C34.8119 196.217 34.2352 195.964 33.4835 195.964C32.7059 195.964 32.0579 196.269 31.5395 196.878C31.0341 197.474 30.7814 198.33 30.7814 199.444V204.44H29.1484V198.978C29.1484 197.98 28.9475 197.228 28.5458 196.723C28.144 196.217 27.5673 195.964 26.8156 195.964C26.051 195.964 25.4095 196.269 24.8911 196.878C24.3856 197.474 24.1329 198.33 24.1329 199.444V204.44H22.4999ZM50.1277 204.44V201.524H43.2265V200.261L49.8361 190.832H51.7412V200.086H53.763V201.524H51.7412V204.44H50.1277ZM45.0344 200.086H50.2054V192.64L45.0344 200.086Z" fill="black"/>
<path d="M1.50854 249.8V236.192H3.1415V249.8H1.50854ZM9.15666 249.8C8.27538 249.8 7.58202 249.586 7.07658 249.159C6.57114 248.731 6.31842 247.96 6.31842 246.845V241.538H4.64658V240.158H6.31842L6.53226 237.845H7.95138V240.158H10.7896V241.538H7.95138V246.845C7.95138 247.454 8.0745 247.869 8.32074 248.089C8.56698 248.297 9.00114 248.4 9.62322 248.4H10.6341V249.8H9.15666ZM16.3504 250.033C15.4302 250.033 14.6137 249.826 13.9009 249.411C13.1881 248.984 12.6244 248.394 12.2097 247.642C11.8079 246.891 11.607 246.003 11.607 244.979C11.607 243.968 11.8079 243.087 12.2097 242.335C12.6114 241.571 13.1687 240.981 13.8815 240.566C14.6073 240.138 15.4432 239.925 16.3893 239.925C17.3224 239.925 18.1259 240.138 18.7998 240.566C19.4867 240.981 20.0116 241.532 20.3745 242.219C20.7373 242.905 20.9188 243.644 20.9188 244.435C20.9188 244.577 20.9123 244.72 20.8993 244.862C20.8993 245.005 20.8993 245.167 20.8993 245.348H13.2205C13.2594 246.087 13.4279 246.703 13.726 247.195C14.037 247.675 14.4193 248.038 14.8729 248.284C15.3395 248.53 15.832 248.653 16.3504 248.653C17.0243 248.653 17.5881 248.498 18.0417 248.187C18.4953 247.876 18.8257 247.454 19.0331 246.923H20.6466C20.3874 247.817 19.8885 248.562 19.1497 249.159C18.424 249.742 17.4909 250.033 16.3504 250.033ZM16.3504 241.305C15.5728 241.305 14.8794 241.545 14.2703 242.024C13.6741 242.491 13.3307 243.178 13.24 244.085H19.3053C19.2664 243.216 18.9683 242.536 18.411 242.044C17.8537 241.551 17.1669 241.305 16.3504 241.305ZM22.4999 249.8V240.158H23.9774L24.094 241.558C24.4051 241.039 24.8198 240.637 25.3382 240.352C25.8566 240.067 26.4398 239.925 27.0878 239.925C27.8524 239.925 28.5069 240.08 29.0512 240.391C29.6085 240.702 30.0362 241.175 30.3343 241.81C30.6712 241.227 31.1313 240.767 31.7145 240.43C32.3107 240.093 32.9522 239.925 33.6391 239.925C34.7925 239.925 35.7127 240.275 36.3995 240.974C37.0864 241.661 37.4299 242.724 37.4299 244.163V249.8H35.8163V244.338C35.8163 243.34 35.6155 242.588 35.2137 242.082C34.8119 241.577 34.2352 241.324 33.4835 241.324C32.7059 241.324 32.0579 241.629 31.5395 242.238C31.0341 242.834 30.7814 243.69 30.7814 244.804V249.8H29.1484V244.338C29.1484 243.34 28.9475 242.588 28.5458 242.082C28.144 241.577 27.5673 241.324 26.8156 241.324C26.051 241.324 25.4095 241.629 24.8911 242.238C24.3856 242.834 24.1329 243.69 24.1329 244.804V249.8H22.4999ZM48.5919 250.033C47.6588 250.033 46.8488 249.865 46.1619 249.528C45.475 249.191 44.9242 248.731 44.5095 248.148C44.1078 247.552 43.8615 246.878 43.7708 246.126H45.3649C45.5204 246.878 45.8833 247.487 46.4535 247.953C47.0238 248.407 47.743 248.634 48.6114 248.634C49.2594 248.634 49.8166 248.485 50.2832 248.187C50.7498 247.876 51.1062 247.461 51.3524 246.942C51.6116 246.424 51.7412 245.847 51.7412 245.212C51.7412 244.201 51.4561 243.385 50.8858 242.763C50.3156 242.141 49.5769 241.83 48.6697 241.83C47.918 241.83 47.2765 241.998 46.7451 242.335C46.2138 242.672 45.825 243.113 45.5787 243.657H44.0235L45.1899 236.192H52.3244V237.611H46.4535L45.6565 241.752C45.9675 241.376 46.3952 241.065 46.9395 240.819C47.4968 240.573 48.1318 240.45 48.8446 240.45C49.7389 240.45 50.5165 240.657 51.1774 241.072C51.8514 241.486 52.3762 242.05 52.7521 242.763C53.1279 243.476 53.3158 244.286 53.3158 245.193C53.3158 246.061 53.1279 246.865 52.7521 247.603C52.3892 248.342 51.8514 248.932 51.1386 249.372C50.4387 249.813 49.5898 250.033 48.5919 250.033Z" fill="black"/>
</svg>
